<svg width="1216" height="863" viewBox="0 0 1216 863" fill="none" xmlns="http://www.w3.org/2000/svg">
<g opacity="0.05" clip-path="url(#clip0_295_650)">
<path d="M-38.6462 791.022C-37.2153 792.453 -35.6742 793.704 -34.1882 795.025L-34.3684 795.205C53.4352 883.009 195.785 883.009 283.599 795.205L404.769 674.034L245.783 515.048L124.578 636.279L-59.1649 452.537L123.272 270.095L649.743 796.566C737.546 884.37 879.896 884.37 967.71 796.566L1150.15 614.124C1237.95 526.321 1237.95 383.971 1150.15 296.157L808.729 637.58L208.894 37.7452C161.607 -9.53635 84.9412 -9.53635 37.6597 37.7452L-35.7093 111.114L-218.146 293.556C-305.949 381.359 -305.949 523.709 -218.146 611.518L-38.6462 791.022Z" fill="#1D3ADB"/>
<path d="M807.423 271.401L936.889 400.867L1095.87 241.881L886.916 32.9269C843.011 -10.9773 771.839 -10.9773 727.93 32.9269L520.121 240.735L679.102 399.716L807.423 271.401Z" fill="#1D3ADB"/>
</g>
<defs>
<clipPath id="clip0_295_650">
<rect width="1500" height="862.5" fill="white" transform="translate(-284)"/>
</clipPath>
</defs>
</svg>
