<svg width="48" height="48" viewBox="0 0 48 48" fill="none" xmlns="http://www.w3.org/2000/svg">
<g clip-path="url(#clip0_164_350)">
<path d="M46.7614 15.1057C45.1166 13.4607 42.4401 13.4608 40.7947 15.106C40.2887 15.6126 37.0576 18.8463 36.564 19.3403V8.19619C36.564 7.06931 36.1251 6.00994 35.3282 5.21316L31.3509 1.23563C30.5541 0.43875 29.4947 0 28.3678 0H4.22021C1.894 0 0.00146484 1.89253 0.00146484 4.21875V43.7812C0.00146484 46.1075 1.894 48 4.22021 48H32.3452C34.6714 48 36.564 46.1075 36.564 43.7812V31.2779L46.7613 21.0719C48.4101 19.4232 48.4105 16.7545 46.7614 15.1057ZM28.1266 2.8125C28.3922 2.8125 28.9042 2.76647 29.3622 3.22434L33.3396 7.20187C33.7859 7.64822 33.7516 8.13731 33.7516 8.4375H28.1266V2.8125ZM33.7515 43.7812C33.7515 44.5567 33.1207 45.1875 32.3452 45.1875H4.22021C3.44481 45.1875 2.81396 44.5567 2.81396 43.7812V4.21875C2.81396 3.44334 3.44481 2.8125 4.22021 2.8125H25.314V9.84375C25.314 10.6204 25.9436 11.25 26.7202 11.25H33.7515V22.1553C33.7515 22.1553 29.6027 26.3077 29.6025 26.3078L27.6147 28.2956C27.4604 28.4499 27.3439 28.6382 27.2749 28.8453L25.2861 34.8115C25.1177 35.3168 25.2492 35.874 25.6259 36.2506C26.003 36.6278 26.5604 36.7586 27.0649 36.5903L33.0312 34.6016C33.2383 34.5326 33.4265 34.4163 33.5808 34.2619L33.7515 34.0913V43.7812ZM30.5977 29.29L32.5864 31.2788L31.8268 32.0384L28.8437 33.0327L29.8381 30.0496L30.5977 29.29ZM34.5748 29.2896L32.5861 27.3008C33.6451 26.241 38.3484 21.5336 39.3459 20.5353L41.3346 22.524L34.5748 29.2896ZM44.7722 19.0836L43.3226 20.5344L41.3339 18.5457L42.784 17.0944C43.3326 16.546 44.2246 16.5461 44.7728 17.0944C45.321 17.6428 45.3239 18.5318 44.7722 19.0836Z" fill="white"/>
<path d="M26.7202 14.0625H7.03271C6.25609 14.0625 5.62646 14.6921 5.62646 15.4688C5.62646 16.2454 6.25609 16.875 7.03271 16.875H26.7202C27.4968 16.875 28.1265 16.2454 28.1265 15.4688C28.1265 14.6921 27.4968 14.0625 26.7202 14.0625Z" fill="white"/>
<path d="M21.0952 19.6875H7.03271C6.25609 19.6875 5.62646 20.3171 5.62646 21.0938C5.62646 21.8704 6.25609 22.5 7.03271 22.5H21.0952C21.8718 22.5 22.5015 21.8704 22.5015 21.0938C22.5015 20.3171 21.8718 19.6875 21.0952 19.6875Z" fill="white"/>
<path d="M21.0952 25.3125H7.03271C6.25609 25.3125 5.62646 25.9421 5.62646 26.7188C5.62646 27.4954 6.25609 28.125 7.03271 28.125H21.0952C21.8718 28.125 22.5015 27.4954 22.5015 26.7188C22.5015 25.9421 21.8718 25.3125 21.0952 25.3125Z" fill="white"/>
<path d="M21.0952 30.9375H7.03271C6.25609 30.9375 5.62646 31.5671 5.62646 32.3438C5.62646 33.1204 6.25609 33.75 7.03271 33.75H21.0952C21.8718 33.75 22.5015 33.1204 22.5015 32.3438C22.5015 31.5671 21.8718 30.9375 21.0952 30.9375Z" fill="white"/>
<path d="M26.7202 39.5625H18.2827C17.5061 39.5625 16.8765 40.1921 16.8765 40.9688C16.8765 41.7454 17.5061 42.375 18.2827 42.375H26.7202C27.4968 42.375 28.1265 41.7454 28.1265 40.9688C28.1265 40.1921 27.4968 39.5625 26.7202 39.5625Z" fill="white"/>
</g>
<defs>
<clipPath id="clip0_164_350">
<rect width="48" height="48" fill="white"/>
</clipPath>
</defs>
</svg>
