<svg width="49" height="48" viewBox="0 0 49 48" fill="none" xmlns="http://www.w3.org/2000/svg">
<g clip-path="url(#clip0_164_330)">
<path d="M29.0001 24H27.5001C25.0251 24 23.0001 26.025 23.0001 28.5V36.84C22.1151 36.315 21.0951 36 20.0001 36C16.6851 36 14.0001 38.685 14.0001 42C14.0001 45.315 16.6851 48 20.0001 48C23.3151 48 26.0001 45.315 26.0001 42V33H29.0001C31.4751 33 33.5001 30.975 33.5001 28.5C33.5001 26.025 31.4751 24 29.0001 24ZM20.0001 45C18.3501 45 17.0001 43.65 17.0001 42C17.0001 40.35 18.3501 39 20.0001 39C21.6501 39 23.0001 40.35 23.0001 42C23.0001 43.65 21.6501 45 20.0001 45ZM29.0001 30H26.0001V28.5C26.0001 27.675 26.6751 27 27.5001 27H29.0001C29.8251 27 30.5001 27.675 30.5001 28.5C30.5001 29.325 29.8251 30 29.0001 30ZM24.5001 15.42L17.9301 20.67C17.2851 21.195 16.3401 21.09 15.8151 20.43C15.2901 19.785 15.3951 18.84 16.0551 18.315L23.5551 12.315C24.1101 11.88 24.8751 11.88 25.4301 12.315L32.9301 18.315C33.5751 18.825 33.6801 19.77 33.1701 20.43C32.8701 20.805 32.4351 21 32.0001 21C31.6701 21 31.3401 20.895 31.0701 20.67L24.5001 15.42ZM46.9851 22.485C46.9851 30.78 40.1151 32.97 36.4851 32.97C35.6601 32.97 34.9851 32.295 34.9851 31.47C34.9851 30.645 35.6601 29.97 36.4851 29.97C37.2501 29.97 43.9851 29.7 43.9851 22.485C43.9851 20.37 43.4451 18.735 42.3351 17.475C40.1901 15.03 36.5151 14.985 36.4701 14.985C35.6451 14.985 34.9701 14.31 34.9701 13.485C34.9851 13.065 34.8051 3 24.5001 3C14.1351 3 14.0151 13.05 14.0151 13.485C14.0151 14.31 13.3401 14.985 12.5151 14.985C12.4851 14.985 8.81014 15.045 6.66514 17.475C5.55514 18.735 5.01514 20.37 5.01514 22.485C5.01514 29.7 11.7501 29.97 12.5151 29.97C12.6051 29.97 12.7101 29.985 12.8001 30H18.5001C19.3251 30 20.0001 30.675 20.0001 31.5C20.0001 32.325 19.3251 33 18.5001 33H12.5001C12.3951 33 12.2751 32.985 12.1701 32.97C8.46514 32.835 2.01514 30.525 2.01514 22.485C2.01514 19.635 2.82514 17.28 4.41514 15.495C6.48514 13.14 9.38014 12.375 11.0901 12.12C11.6001 7.275 14.8101 0 24.5001 0C34.1901 0 37.4001 7.275 37.9101 12.105C39.6201 12.36 42.5151 13.14 44.5851 15.495C46.1751 17.28 46.9851 19.635 46.9851 22.485Z" fill="white"/>
</g>
<defs>
<clipPath id="clip0_164_330">
<rect width="48" height="48" fill="white" transform="translate(0.5)"/>
</clipPath>
</defs>
</svg>
