<svg width="49" height="48" viewBox="0 0 49 48" fill="none" xmlns="http://www.w3.org/2000/svg">
<g clip-path="url(#clip0_164_190)">
<path d="M41.1312 26.7124V3.96797C41.13 2.91596 40.7115 1.90738 39.9676 1.1635C39.2237 0.419623 38.2151 0.00119099 37.1631 0L4.47343 0C3.42141 0.00116623 2.41281 0.41959 1.66891 1.16347C0.92501 1.90736 0.506562 2.91595 0.505371 3.96797V26.7124C0.506537 27.7644 0.924974 28.773 1.66888 29.5169C2.41278 30.2608 3.4214 30.6793 4.47343 30.6804H4.91556V36.4764C4.91364 36.8575 5.02853 37.23 5.24476 37.5437C5.46099 37.8575 5.76817 38.0974 6.12493 38.2312C6.34043 38.3137 6.56919 38.3561 6.79993 38.3563C7.06395 38.356 7.32488 38.2996 7.56548 38.1909C7.80608 38.0822 8.02085 37.9237 8.19559 37.7257L14.4734 30.6804H37.1631C38.2151 30.6792 39.2237 30.2608 39.9676 29.5169C40.7115 28.773 41.13 27.7644 41.1312 26.7124ZM14.0756 28.3349C13.8697 28.335 13.6662 28.3785 13.4784 28.4627C13.2905 28.547 13.1226 28.6699 12.9856 28.8235L7.26071 35.2481V29.7949C7.26027 29.4078 7.10629 29.0367 6.83257 28.763C6.55885 28.4893 6.18774 28.3353 5.80065 28.3349H4.47343C4.04327 28.3344 3.63087 28.1633 3.32671 27.8591C3.02255 27.5549 2.85147 27.1425 2.851 26.7124V3.96797C2.85149 3.53783 3.02259 3.12546 3.32675 2.82131C3.63091 2.51717 4.0433 2.3461 4.47343 2.34562H37.1631C37.5933 2.3461 38.0057 2.51717 38.3098 2.82131C38.614 3.12545 38.7851 3.53782 38.7856 3.96797V26.7124C38.7852 27.1425 38.614 27.555 38.3099 27.8591C38.0057 28.1633 37.5933 28.3344 37.1631 28.3349H14.0756Z" fill="white"/>
<path d="M44.5267 13.6781H44.0237C43.7127 13.6781 43.4144 13.8017 43.1944 14.0216C42.9745 14.2416 42.8509 14.5399 42.8509 14.8509C42.8509 15.162 42.9745 15.4603 43.1944 15.6802C43.4144 15.9002 43.7127 16.0237 44.0237 16.0237H44.5267C44.9569 16.0242 45.3692 16.1953 45.6734 16.4995C45.9776 16.8037 46.1487 17.216 46.1492 17.6462V36.3562C46.1485 36.7863 45.9773 37.1985 45.6732 37.5025C45.369 37.8066 44.9568 37.9776 44.5267 37.9781H43.1994C42.8123 37.9786 42.4412 38.1325 42.1675 38.4062C41.8938 38.6799 41.7399 39.051 41.7394 39.4381V44.8914L36.0147 38.4669C35.8777 38.3133 35.7097 38.1903 35.5219 38.106C35.334 38.0218 35.1304 37.9782 34.9246 37.9781H21.5947C21.1646 37.9777 20.7523 37.8067 20.4481 37.5026C20.1439 37.1986 19.9727 36.7863 19.9721 36.3562V33.8201C19.9721 33.5091 19.8485 33.2108 19.6286 32.9908C19.4086 32.7709 19.1103 32.6473 18.7993 32.6473C18.4882 32.6473 18.1899 32.7709 17.97 32.9908C17.75 33.2108 17.6265 33.5091 17.6265 33.8201V36.3562C17.6276 37.4083 18.0461 38.4169 18.79 39.1608C19.5339 39.9048 20.5425 40.3232 21.5945 40.3244H34.5273L40.8052 47.3696C40.98 47.5675 41.1948 47.7261 41.4354 47.8347C41.676 47.9434 41.9369 47.9997 42.201 48C42.4317 47.9997 42.6605 47.9572 42.876 47.8747C43.2327 47.7409 43.5399 47.501 43.7561 47.1873C43.9724 46.8735 44.0873 46.5011 44.0853 46.12V40.3241H44.527C45.5789 40.3228 46.5874 39.9044 47.3312 39.1605C48.0751 38.4167 48.4935 37.4082 48.4948 36.3562V17.6461C48.4936 16.5941 48.0751 15.5855 47.3312 14.8416C46.5873 14.0977 45.5787 13.6793 44.5267 13.6781Z" fill="white"/>
<path d="M21.4074 5.90747H20.2294C19.0547 5.90881 17.9285 6.37604 17.0979 7.20666C16.2673 8.03727 15.8001 9.16344 15.7988 10.3381V10.927C15.7988 11.2381 15.9224 11.5364 16.1423 11.7563C16.3623 11.9763 16.6606 12.0998 16.9716 12.0998C17.2827 12.0998 17.581 11.9763 17.8009 11.7563C18.0209 11.5364 18.1445 11.2381 18.1445 10.927V10.3381C18.145 9.78531 18.3649 9.25533 18.7558 8.86444C19.1466 8.47354 19.6766 8.25365 20.2294 8.253H21.4074C21.9602 8.25365 22.4902 8.47354 22.8811 8.86443C23.2719 9.25532 23.4918 9.7853 23.4924 10.3381V11.8913C23.4918 12.444 23.2719 12.974 22.8811 13.3649C22.4902 13.7558 21.9602 13.9757 21.4074 13.9763H20.8184C20.5074 13.9764 20.2091 14.0999 19.9892 14.3199C19.7693 14.5398 19.6457 14.838 19.6457 15.1491V19.5614C19.6443 19.7163 19.6736 19.8699 19.7319 20.0134C19.7902 20.1569 19.8764 20.2875 19.9854 20.3975C20.0945 20.5075 20.2242 20.5948 20.3672 20.6544C20.5102 20.714 20.6635 20.7447 20.8184 20.7447C20.9733 20.7447 21.1267 20.714 21.2697 20.6544C21.4126 20.5948 21.5424 20.5075 21.6514 20.3975C21.7605 20.2875 21.8466 20.1569 21.905 20.0134C21.9633 19.8699 21.9926 19.7163 21.9912 19.5614V16.2822C23.0551 16.1396 24.0312 15.616 24.7386 14.8086C25.446 14.0012 25.8366 12.9647 25.838 11.8913V10.3381C25.8367 9.16342 25.3695 8.03724 24.5389 7.20662C23.7083 6.376 22.5821 5.90879 21.4074 5.90747Z" fill="white"/>
<path d="M20.8183 22.1478C20.5072 22.1478 20.209 22.2714 19.989 22.4913C19.7691 22.7113 19.6456 23.0096 19.6456 23.3206V23.336C19.6442 23.4909 19.6735 23.6445 19.7318 23.788C19.7901 23.9315 19.8763 24.062 19.9853 24.172C20.0944 24.2821 20.2241 24.3694 20.3671 24.429C20.5101 24.4886 20.6634 24.5193 20.8183 24.5193C20.9732 24.5193 21.1266 24.4886 21.2696 24.429C21.4125 24.3694 21.5423 24.2821 21.6513 24.172C21.7604 24.062 21.8465 23.9315 21.9048 23.788C21.9632 23.6445 21.9925 23.4909 21.9911 23.336V23.3206C21.9911 23.0095 21.8675 22.7112 21.6476 22.4913C21.4276 22.2713 21.1293 22.1478 20.8183 22.1478Z" fill="white"/>
</g>
<defs>
<clipPath id="clip0_164_190">
<rect width="48" height="48" fill="white" transform="translate(0.5)"/>
</clipPath>
</defs>
</svg>
