<svg width="56" height="56" viewBox="0 0 56 56" fill="none" xmlns="http://www.w3.org/2000/svg">
<g clip-path="url(#clip0_164_332)" filter="url(#filter0_d_164_332)">
<path d="M46.8438 0H9.15625C7.78918 0.00148891 6.47854 0.545213 5.51188 1.51188C4.54521 2.47854 4.00149 3.78918 4 5.15625L4 42.8438C4.00149 44.2108 4.54521 45.5215 5.51188 46.4881C6.47854 47.4548 7.78918 47.9985 9.15625 48H46.8438C48.2108 47.9985 49.5215 47.4548 50.4881 46.4881C51.4548 45.5215 51.9985 44.2108 52 42.8438V5.15625C51.9985 3.78918 51.4548 2.47854 50.4881 1.51188C49.5215 0.545213 48.2108 0.00148891 46.8438 0ZM49.1875 42.8438C49.1875 43.4654 48.9406 44.0615 48.501 44.501C48.0615 44.9406 47.4654 45.1875 46.8438 45.1875H9.15625C8.53465 45.1875 7.93851 44.9406 7.49897 44.501C7.05943 44.0615 6.8125 43.4654 6.8125 42.8438V5.15625C6.8125 4.53465 7.05943 3.93851 7.49897 3.49897C7.93851 3.05943 8.53465 2.8125 9.15625 2.8125H46.8438C47.4654 2.8125 48.0615 3.05943 48.501 3.49897C48.9406 3.93851 49.1875 4.53465 49.1875 5.15625V42.8438Z" fill="white"/>
<path d="M20.7815 27.6488C21.1214 27.8604 21.5101 27.9809 21.9101 27.9986C22.3101 28.0163 22.7079 27.9307 23.0652 27.75L36.9065 20.8303C37.2958 20.6357 37.6231 20.3364 37.852 19.9662C38.0808 19.5959 38.202 19.1693 38.202 18.7341C38.202 18.2988 38.0808 17.8722 37.852 17.5019C37.6231 17.1317 37.2958 16.8325 36.9065 16.6378L23.0652 9.71719C22.708 9.53857 22.311 9.45422 21.912 9.47213C21.513 9.49005 21.1252 9.60964 20.7854 9.81955C20.4455 10.0295 20.165 10.3227 19.9704 10.6715C19.7758 11.0203 19.6735 11.4131 19.6734 11.8125V25.6547C19.6715 26.0542 19.7725 26.4475 19.9665 26.7967C20.1606 27.1459 20.4412 27.4394 20.7815 27.6488ZM22.4859 12.5719L34.8102 18.7341L22.4859 24.8963V12.5719Z" fill="white"/>
<path d="M46.2812 33.8438H17.2188V32.4375C17.2188 32.0645 17.0706 31.7069 16.8069 31.4431C16.5431 31.1794 16.1855 31.0312 15.8125 31.0312C15.4395 31.0312 15.0819 31.1794 14.8181 31.4431C14.5544 31.7069 14.4062 32.0645 14.4062 32.4375V33.8438H11.125C10.752 33.8438 10.3944 33.9919 10.1306 34.2556C9.86691 34.5194 9.71875 34.877 9.71875 35.25C9.71875 35.623 9.86691 35.9806 10.1306 36.2444C10.3944 36.5081 10.752 36.6562 11.125 36.6562H14.4062V38.0625C14.4062 38.4355 14.5544 38.7931 14.8181 39.0569C15.0819 39.3206 15.4395 39.4688 15.8125 39.4688C16.1855 39.4688 16.5431 39.3206 16.8069 39.0569C17.0706 38.7931 17.2188 38.4355 17.2188 38.0625V36.6562H46.2812C46.6542 36.6562 47.0119 36.5081 47.2756 36.2444C47.5393 35.9806 47.6875 35.623 47.6875 35.25C47.6875 34.877 47.5393 34.5194 47.2756 34.2556C47.0119 33.9919 46.6542 33.8438 46.2812 33.8438Z" fill="white"/>
</g>
<defs>
<filter id="filter0_d_164_332" x="0" y="0" width="56" height="56" filterUnits="userSpaceOnUse" color-interpolation-filters="sRGB">
<feFlood flood-opacity="0" result="BackgroundImageFix"/>
<feColorMatrix in="SourceAlpha" type="matrix" values="0 0 0 0 0 0 0 0 0 0 0 0 0 0 0 0 0 0 127 0" result="hardAlpha"/>
<feOffset dy="4"/>
<feGaussianBlur stdDeviation="2"/>
<feComposite in2="hardAlpha" operator="out"/>
<feColorMatrix type="matrix" values="0 0 0 0 0 0 0 0 0 0 0 0 0 0 0 0 0 0 0.25 0"/>
<feBlend mode="normal" in2="BackgroundImageFix" result="effect1_dropShadow_164_332"/>
<feBlend mode="normal" in="SourceGraphic" in2="effect1_dropShadow_164_332" result="shape"/>
</filter>
<clipPath id="clip0_164_332">
<rect width="48" height="48" fill="white" transform="translate(4)"/>
</clipPath>
</defs>
</svg>
