<svg width="48" height="48" viewBox="0 0 48 48" fill="none" xmlns="http://www.w3.org/2000/svg">
<g clip-path="url(#clip0_164_343)">
<path d="M36.7878 28.5843C36.5984 28.5173 36.4051 28.4477 36.2118 28.3756V24.9893C36.5967 25.1099 36.7938 25.3036 36.8172 25.3277C37.1579 25.7134 37.7469 25.7526 38.1356 25.4137C38.5259 25.0736 38.5667 24.4815 38.2265 24.0911C37.8933 23.7086 37.1982 23.2276 36.2118 23.0712V22.5C36.2118 21.9823 35.792 21.5625 35.2743 21.5625C34.7566 21.5625 34.3368 21.9823 34.3368 22.5V23.1772C34.2593 23.197 34.1812 23.2181 34.1018 23.242C32.9352 23.5934 32.0639 24.59 31.8277 25.8428C31.6114 26.9903 31.9827 28.0998 32.7965 28.738C33.1937 29.0497 33.6807 29.3352 34.3368 29.6333V33.9931C33.8358 33.9338 33.4743 33.7799 32.8966 33.4019C32.4632 33.1184 31.8824 33.24 31.5989 33.6732C31.3154 34.1065 31.4369 34.6875 31.8702 34.971C32.8341 35.6017 33.5085 35.8132 34.3369 35.8771V36.5625C34.3369 37.0802 34.7567 37.5 35.2744 37.5C35.7921 37.5 36.2119 37.0802 36.2119 36.5625V35.7899C37.8818 35.3895 38.9532 33.9737 39.1878 32.5774C39.491 30.7743 38.5489 29.2069 36.7878 28.5843ZM33.9538 27.2627C33.6969 27.0612 33.5856 26.6401 33.6704 26.1901C33.7377 25.8333 33.9466 25.4153 34.3369 25.1747V27.5236C34.1968 27.4387 34.0674 27.3518 33.9538 27.2627ZM37.3388 32.2666C37.2389 32.8604 36.8561 33.4865 36.2118 33.8078V30.3709C37.4716 30.845 37.3938 31.9389 37.3388 32.2666Z" fill="white"/>
<path d="M13.5938 8.4375H17.3438C18.1204 8.4375 18.75 7.80788 18.75 7.03125C18.75 6.25462 18.1204 5.625 17.3438 5.625H13.5938C12.8171 5.625 12.1875 6.25462 12.1875 7.03125C12.1875 7.80788 12.8171 8.4375 13.5938 8.4375Z" fill="white"/>
<path d="M8.4375 8.4375C9.21415 8.4375 9.84375 7.8079 9.84375 7.03125C9.84375 6.2546 9.21415 5.625 8.4375 5.625C7.66085 5.625 7.03125 6.2546 7.03125 7.03125C7.03125 7.8079 7.66085 8.4375 8.4375 8.4375Z" fill="white"/>
<path d="M35.3438 16.875C33.7949 16.875 32.3104 17.1552 30.9375 17.6667V5.15625C30.9375 2.31309 28.6244 0 25.7812 0H5.15625C2.31309 0 0 2.31309 0 5.15625V42.8438C0 45.6869 2.31309 48 5.15625 48H25.7812C28.6244 48 30.9375 45.6869 30.9375 42.8438V41.3958C32.3104 41.9073 33.7949 42.1875 35.3438 42.1875C42.3224 42.1875 48 36.5099 48 29.5312C48 22.5526 42.3224 16.875 35.3438 16.875ZM5.15625 2.8125H25.7812C27.0736 2.8125 28.125 3.86391 28.125 5.15625V19.1417C24.841 21.4304 22.6875 25.2337 22.6875 29.5312C22.6875 33.6116 24.629 37.2465 27.6361 39.5625H2.8125V5.15625C2.8125 3.86391 3.86391 2.8125 5.15625 2.8125ZM25.7812 45.1875H5.15625C3.86391 45.1875 2.8125 44.1361 2.8125 42.8438V42.375H28.125V42.8438C28.125 44.1361 27.0736 45.1875 25.7812 45.1875ZM35.3438 39.375C29.9159 39.375 25.5 34.9591 25.5 29.5312C25.5 24.1034 29.9159 19.6875 35.3438 19.6875C40.7716 19.6875 45.1875 24.1034 45.1875 29.5312C45.1875 34.9591 40.7716 39.375 35.3438 39.375Z" fill="white"/>
<path d="M9.84375 28.6875C9.84375 29.2061 10.1292 29.6827 10.5864 29.9274C10.7944 30.0387 11.0224 30.0937 11.2499 30.0937C11.5227 30.0937 11.7948 30.0144 12.03 29.8575L20.4675 24.2325C20.8587 23.9718 21.0938 23.5327 21.0938 23.0625C21.0938 22.5923 20.8588 22.1532 20.4675 21.8925L12.03 16.2675C11.5986 15.9798 11.0437 15.953 10.5864 16.1977C10.1292 16.4423 9.84375 16.9189 9.84375 17.4375V28.6875ZM12.6562 20.065L17.1523 23.0625L12.6562 26.06V20.065Z" fill="white"/>
</g>
<defs>
<clipPath id="clip0_164_343">
<rect width="48" height="48" fill="white"/>
</clipPath>
</defs>
</svg>
