<svg width="49" height="48" viewBox="0 0 49 48" fill="none" xmlns="http://www.w3.org/2000/svg">
<g clip-path="url(#clip0_164_292)">
<path d="M44.7694 18.9105C45.6385 18.0633 45.9454 16.8199 45.5704 15.6655C45.1953 14.5112 44.2161 13.6857 43.015 13.5112L32.5122 11.9851C32.306 11.9552 32.1278 11.8257 32.0356 11.6388L27.3386 2.12175C26.8015 1.03331 25.7138 0.357185 24.5 0.357185C23.2863 0.357185 22.1986 1.03331 21.6615 2.12175L16.9645 11.6389C16.8722 11.8257 16.694 11.9552 16.4878 11.9852L5.98516 13.5112C4.78404 13.6857 3.80501 14.5112 3.42982 15.6655C3.05463 16.8199 3.36157 18.0633 4.23082 18.9105L11.8307 26.3185C11.9798 26.464 12.048 26.6736 12.0127 26.879L10.2186 37.3392C10.0135 38.5356 10.4959 39.7218 11.4779 40.4352C12.4598 41.1488 13.7374 41.241 14.8116 40.6763L24.2055 35.7377C24.39 35.6407 24.6102 35.6407 24.7948 35.7377L34.1887 40.6763C34.656 40.922 35.1616 41.0434 35.6647 41.0433C36.3182 41.0433 36.9675 40.8385 37.5222 40.4351C38.5041 39.7216 38.9867 38.5353 38.7814 37.3391L36.9874 26.8789C36.9522 26.6735 37.0203 26.4639 37.1694 26.3184L44.7694 18.9105ZM34.4916 27.3071L36.2857 37.7676C36.3457 38.1176 36.1296 38.3172 36.0339 38.3867C35.9381 38.4561 35.6814 38.6002 35.3672 38.4348L25.9732 33.4961C25.5121 33.2538 25.0062 33.1325 24.5002 33.1325C23.9943 33.1325 23.4883 33.2538 23.0272 33.496L13.6334 38.4346C13.3189 38.5999 13.0624 38.456 12.9666 38.3865C12.8709 38.317 12.6547 38.1174 12.7148 37.7674L14.5089 27.3071C14.6851 26.2801 14.3449 25.2327 13.5985 24.5053L5.99866 17.0973C5.74432 16.8492 5.80188 16.5607 5.83854 16.4482C5.87501 16.3357 5.9981 16.0684 6.34957 16.0174L16.8521 14.4912C17.8833 14.3414 18.7744 13.6942 19.2356 12.7596L23.9326 3.24244C24.0898 2.92397 24.3819 2.88956 24.5003 2.88956C24.6185 2.88956 24.9107 2.92387 25.068 3.24244V3.24253L29.7649 12.7597C30.2261 13.6942 31.1171 14.3415 32.1483 14.4913L42.651 16.0175C43.0024 16.0685 43.1254 16.3357 43.162 16.4483C43.1986 16.5609 43.2562 16.8495 43.0018 17.0974L35.4019 24.5054C34.6557 25.2327 34.3155 26.2801 34.4916 27.3071Z" fill="white"/>
<path d="M39.2921 2.1211C38.7262 1.7101 37.9345 1.83553 37.5235 2.40122L36.1794 4.2511C35.7684 4.81678 35.8937 5.60869 36.4595 6.01969C36.6844 6.18291 36.9448 6.26157 37.2028 6.26157C37.5944 6.26157 37.9804 6.08053 38.2281 5.73966L39.5722 3.88978C39.9832 3.324 39.8579 2.5321 39.2921 2.1211Z" fill="white"/>
<path d="M12.8149 4.24359L11.4708 2.39372C11.0599 1.82822 10.2681 1.70278 9.70218 2.11359C9.13649 2.52459 9.01105 3.3165 9.42205 3.88219L10.7661 5.73206C11.0139 6.07322 11.4 6.25415 11.7917 6.25415C12.0498 6.25415 12.3102 6.1755 12.5348 6.01219C13.1005 5.60128 13.226 4.80937 12.8149 4.24359Z" fill="white"/>
<path d="M5.14548 28.7652C4.92939 28.1002 4.21511 27.7362 3.54995 27.9523L1.37523 28.659C0.710075 28.8751 0.346231 29.5896 0.562325 30.2545C0.736137 30.7897 1.23254 31.1299 1.76626 31.1299C1.89592 31.1299 2.02782 31.1097 2.15786 31.0674L4.33257 30.3607C4.99764 30.1447 5.36157 29.4304 5.14548 28.7652Z" fill="white"/>
<path d="M24.5006 42.8237C23.8013 42.8237 23.2344 43.3906 23.2344 44.0899V46.3766C23.2344 47.0759 23.8013 47.6428 24.5006 47.6428C25.1998 47.6428 25.7667 47.0759 25.7667 46.3766V44.0899C25.7667 43.3905 25.1999 42.8237 24.5006 42.8237Z" fill="white"/>
<path d="M47.6246 28.6608L45.4498 27.9541C44.785 27.7382 44.0704 28.1019 43.8543 28.7671C43.6382 29.4322 44.0021 30.1465 44.6672 30.3626L46.8419 31.0693C46.972 31.1115 47.1038 31.1316 47.2334 31.1316C47.7673 31.1316 48.2637 30.7913 48.4375 30.2562C48.6536 29.5912 48.2896 28.8769 47.6246 28.6608Z" fill="white"/>
</g>
<defs>
<clipPath id="clip0_164_292">
<rect width="48" height="48" fill="white" transform="translate(0.5)"/>
</clipPath>
</defs>
</svg>
