<svg width="49" height="48" viewBox="0 0 49 48" fill="none" xmlns="http://www.w3.org/2000/svg">
<g clip-path="url(#clip0_164_326)">
<path d="M45.6051 25.0616C44.8343 24.9693 44.1344 25.5201 44.0422 26.2913C42.8864 35.9745 34.6395 43.277 24.8592 43.277C16.0626 43.277 8.50816 37.3698 6.23585 29.1368L7.9182 30.0607C8.59898 30.4346 9.45407 30.1856 9.8276 29.5052C10.2015 28.8244 9.95284 27.9693 9.27206 27.5954L4.9567 25.2253C4.27666 24.8518 3.4223 25.0997 3.04804 25.7794L0.67466 30.0893C0.300032 30.7697 0.547953 31.6248 1.228 31.9994C1.93038 32.3279 2.7331 32.1664 3.13812 31.4461L3.68816 30.4474C6.47462 39.5879 14.9838 46.0895 24.8592 46.0895C36.0629 46.0895 45.5103 37.7213 46.8345 26.6246C46.9268 25.8534 46.376 25.1535 45.6051 25.0616Z" fill="white"/>
<path d="M47.6492 13.8839C46.9365 13.5767 46.1089 13.9052 45.8013 14.6185L45.3582 15.6454C43.9736 12.2598 41.7514 9.2302 38.8892 6.88466C34.9484 3.65436 29.9658 1.8757 24.8591 1.8757C19.7524 1.8757 14.7698 3.65436 10.8287 6.88466C6.94215 10.0699 4.2337 14.5156 3.20246 19.4023C3.04207 20.1622 3.52839 20.9081 4.28826 21.0685C5.04704 21.2289 5.7941 20.743 5.95413 19.9831C6.8539 15.7201 9.21812 11.8409 12.6114 9.05955C16.0508 6.2405 20.4006 4.68816 24.8591 4.68816C29.3173 4.68816 33.6671 6.2405 37.1065 9.05955C39.7501 11.226 41.7686 14.0594 42.9573 17.2212L41.1769 16.4554C40.4635 16.1489 39.6362 16.4781 39.3293 17.1915C39.0225 17.9049 39.3521 18.7318 40.0654 19.0386L44.5888 20.9843C45.3586 21.3025 46.1082 20.9773 46.4359 20.2493L48.3838 15.7318C48.6914 15.0188 48.3625 14.1916 47.6492 13.8839Z" fill="white"/>
<path d="M33.5263 13.6375C33.9299 12.8234 33.9918 11.9006 33.7014 11.0396C33.411 10.1787 32.8027 9.48252 31.9886 9.07896C30.3078 8.24621 28.2632 8.93614 27.4301 10.6167C27.2481 10.9843 27.1361 11.374 27.0943 11.7702C26.0081 11.6702 24.904 11.7713 23.834 12.0793C21.7041 12.6916 19.8925 14.0692 18.7331 15.9578L14.9359 22.1422C14.4287 22.0514 13.9043 22.0891 13.4026 22.2583C12.6178 22.5231 11.9832 23.0775 11.6159 23.8191L11.3654 24.3241C10.6066 25.8556 11.2351 27.7192 12.7669 28.478L20.9867 32.5509C20.1774 34.2347 20.54 36.1269 22.6405 37.1838C24.4822 37.9403 26.5322 37.1991 27.3283 35.6933L28.1973 36.1236C28.6316 36.3389 29.0996 36.4477 29.5706 36.4477C29.9042 36.4477 30.2393 36.3931 30.5645 36.2833C31.3489 36.0189 31.9835 35.4644 32.3512 34.7225L32.6013 34.2175C32.969 33.4756 33.0257 32.6351 32.761 31.8503C32.5918 31.3486 32.3039 30.9085 31.9246 30.5598L34.5451 23.7927C35.3453 21.7259 35.3438 19.4499 34.5411 17.3845C34.1379 16.3467 33.5494 15.407 32.8122 14.6032C33.1019 14.33 33.3443 14.0052 33.5263 13.6375ZM30.4758 11.5325C30.8021 11.5325 31.0665 11.7969 31.0665 12.1229C31.0665 12.4491 30.8021 12.7132 30.4758 12.7132C30.1499 12.7132 29.8855 12.4488 29.8855 12.1229C29.8855 11.7969 30.1499 11.5325 30.4758 11.5325ZM24.4463 34.7013C24.2617 34.7639 24.064 34.7503 23.8893 34.6639C23.7146 34.5775 23.5842 34.4281 23.522 34.2435C23.4733 34.0992 23.4714 33.9465 23.5143 33.8037L24.8011 34.4412C24.7129 34.5617 24.5906 34.6529 24.4463 34.7013ZM31.9224 22.7772L29.0678 30.1482C28.6661 31.059 29.0502 32.1371 29.9507 32.5838H29.9511C30.0979 32.6622 30.1518 32.8233 30.0814 32.9691L29.831 33.4741C29.7471 33.6206 29.5977 33.6686 29.4461 33.6037L14.0156 25.9581C13.8736 25.8878 13.815 25.7149 13.8853 25.5732L14.1358 25.0682C14.2035 24.9433 14.335 24.8547 14.521 24.9382C14.9696 25.1605 15.4779 25.1946 15.9525 25.0349C16.4004 24.8836 16.7677 24.5764 16.9944 24.1652L21.1296 17.4295C21.9209 16.1405 23.1576 15.2001 24.6114 14.7819C26.0649 14.3637 27.6121 14.5032 28.9671 15.1748C28.9674 15.1748 28.9674 15.1748 28.9678 15.1752C28.9682 15.1752 28.9682 15.1752 28.9685 15.1755C30.3239 15.8472 31.3719 16.9934 31.9198 18.4033C32.4676 19.8132 32.4684 21.3666 31.9224 22.7772Z" fill="white"/>
</g>
<defs>
<clipPath id="clip0_164_326">
<rect width="48" height="48" fill="white" transform="translate(0.5)"/>
</clipPath>
</defs>
</svg>
