<svg width="214" height="206" viewBox="0 0 214 206" fill="none" xmlns="http://www.w3.org/2000/svg">
<path d="M64.6923 0.853637C65.3738 0.562159 66.0589 0.277584 66.7476 0H146.326C147.015 0.277584 147.7 0.562159 148.382 0.853637H64.6923Z" fill="#3A45EC"/>
<path d="M48.679 9.39001C49.1229 9.10223 49.5691 8.81768 50.0176 8.53637H163.056C163.505 8.81768 163.951 9.10223 164.395 9.39001H48.679Z" fill="#3A45EC"/>
<path d="M37.2583 17.9264C37.5927 17.6398 37.929 17.3552 38.267 17.0727H174.807C175.145 17.3552 175.481 17.6398 175.816 17.9264H37.2583Z" fill="#3A45EC"/>
<path d="M28.3829 26.4627C28.648 26.1767 28.9146 25.8922 29.1828 25.6091H183.891C184.159 25.8922 184.426 26.1767 184.691 26.4627H28.3829Z" fill="#3A45EC"/>
<path d="M21.2568 34.9991C21.4711 34.7135 21.6868 34.4289 21.904 34.1455H191.17C191.387 34.4289 191.603 34.7135 191.817 34.9991H21.2568Z" fill="#3A45EC"/>
<path d="M15.4729 43.5355C15.6468 43.2501 15.822 42.9655 15.9985 42.6818H197.075C197.252 42.9655 197.427 43.2501 197.601 43.5355H15.4729Z" fill="#3A45EC"/>
<path d="M10.7922 52.0719C10.9321 51.7866 11.0732 51.502 11.2155 51.2182H201.858C202.001 51.502 202.142 51.7866 202.282 52.0719H10.7922Z" fill="#3A45EC"/>
<path d="M7.06234 60.6082C7.17229 60.3231 7.28343 60.0385 7.39575 59.7546H205.678C205.79 60.0385 205.902 60.3231 206.012 60.6082H7.06234Z" fill="#3A45EC"/>
<path d="M4.18122 69.1446C4.2641 68.8596 4.34814 68.575 4.43333 68.291H208.641C208.726 68.575 208.81 68.8596 208.893 69.1446H4.18122Z" fill="#3A45EC"/>
<path d="M2.07866 77.681C2.13644 77.396 2.19535 77.1115 2.2554 76.8273H210.818C210.879 77.1115 210.937 77.396 210.995 77.681H2.07866Z" fill="#3A45EC"/>
<path d="M0.706024 86.2173C0.740058 85.9324 0.775214 85.6479 0.811486 85.3637H212.262C212.299 85.6479 212.334 85.9324 212.368 86.2173H0.706024Z" fill="#3A45EC"/>
<path d="M0.0301739 94.7537C0.0413667 94.4689 0.0536747 94.1843 0.0670938 93.9001H213.007C213.02 94.1843 213.033 94.4689 213.044 94.7537H0.0301739Z" fill="#3A45EC"/>
<path d="M0.0301739 103.29C0.0190037 103.006 0.00894433 102.721 0 102.436H213.074C213.065 102.721 213.055 103.006 213.044 103.29H0.0301739Z" fill="#3A45EC"/>
<path d="M0.706024 111.826C0.672071 111.542 0.639235 111.258 0.607519 110.973H212.466C212.435 111.258 212.402 111.542 212.368 111.826H0.706024Z" fill="#3A45EC"/>
<path d="M2.07866 120.363C2.02104 120.079 1.96455 119.794 1.9092 119.509H211.165C211.109 119.794 211.053 120.079 210.995 120.363H2.07866Z" fill="#3A45EC"/>
<path d="M4.18122 128.899C4.09862 128.615 4.01717 128.331 3.93687 128.046H209.137C209.057 128.331 208.975 128.615 208.893 128.899H4.18122Z" fill="#3A45EC"/>
<path d="M7.06234 137.436C6.95285 137.152 6.84453 136.867 6.7374 136.582H206.336C206.229 136.867 206.121 137.152 206.012 137.436H7.06234Z" fill="#3A45EC"/>
<path d="M10.7922 145.972C10.6531 145.688 10.5151 145.404 10.3784 145.118H202.695C202.559 145.404 202.421 145.688 202.282 145.972H10.7922Z" fill="#3A45EC"/>
<path d="M15.4729 154.508C15.3 154.225 15.1285 153.94 14.9582 153.655H198.116C197.945 153.94 197.774 154.225 197.601 154.508H15.4729Z" fill="#3A45EC"/>
<path d="M21.2568 163.045C21.0441 162.761 20.8328 162.477 20.6228 162.191H192.451C192.241 162.477 192.03 162.761 191.817 163.045H21.2568Z" fill="#3A45EC"/>
<path d="M28.3829 171.581C28.1205 171.298 27.8596 171.013 27.6002 170.727H185.474C185.214 171.013 184.953 171.298 184.691 171.581H28.3829Z" fill="#3A45EC"/>
<path d="M37.2583 180.117C36.9285 179.835 36.6005 179.55 36.2743 179.264H176.8C176.473 179.55 176.145 179.835 175.816 180.117H37.2583Z" fill="#3A45EC"/>
<path d="M48.679 188.654C48.2448 188.372 47.8127 188.088 47.3829 187.8H165.691C165.261 188.088 164.829 188.372 164.395 188.654H48.679Z" fill="#3A45EC"/>
<path d="M64.6923 197.19C64.0417 196.912 63.3944 196.627 62.7505 196.336H150.323C149.679 196.627 149.032 196.912 148.382 197.19H64.6923Z" fill="#3A45EC"/>
<path d="M120.084 204.873C115.648 205.436 111.126 205.727 106.537 205.727C101.948 205.727 97.4264 205.436 92.99 204.873H120.084Z" fill="#3A45EC"/>
</svg>
