<svg width="1920" height="1583" viewBox="0 0 1920 1583" fill="none" xmlns="http://www.w3.org/2000/svg">
<path d="M0 0H1920V1583H0V0Z" fill="#1138A7"/>
<path fill-rule="evenodd" clip-rule="evenodd" d="M252 0H742V428H252V0ZM252.766 0.764286H312.484V60.3786H252.766V0.764286ZM314.016 0.764286H373.734V60.3786H314.016V0.764286ZM434.984 0.764286H375.266V60.3786H434.984V0.764286ZM436.516 0.764286H496.234V60.3786H436.516V0.764286ZM557.484 0.764286H497.766V60.3786H557.484V0.764286ZM559.016 0.764286H618.734V60.3786H559.016V0.764286ZM679.984 0.764286H620.266V60.3786H679.984V0.764286ZM681.516 0.764286H741.234V60.3786H681.516V0.764286ZM312.484 61.9071H252.766V121.521H312.484V61.9071ZM314.016 61.9071H373.734V121.521H314.016V61.9071ZM434.984 61.9071H375.266V121.521H434.984V61.9071ZM436.516 61.9071H496.234V121.521H436.516V61.9071ZM557.484 61.9071H497.766V121.521H557.484V61.9071ZM559.016 61.9071H618.734V121.521H559.016V61.9071ZM679.984 61.9071H620.266V121.521H679.984V61.9071ZM681.516 61.9071H741.234V121.521H681.516V61.9071ZM312.484 123.05H252.766V182.664H312.484V123.05ZM314.016 123.05H373.734V182.664H314.016V123.05ZM434.984 123.05H375.266V182.664H434.984V123.05ZM436.516 123.05H496.234V182.664H436.516V123.05ZM557.484 123.05H497.766V182.664H557.484V123.05ZM559.016 123.05H618.734V182.664H559.016V123.05ZM679.984 123.05H620.266V182.664H679.984V123.05ZM681.516 123.05H741.234V182.664H681.516V123.05ZM312.484 184.193H252.766V243.807H312.484V184.193ZM314.016 184.193H373.734V243.807H314.016V184.193ZM434.984 184.193H375.266V243.807H434.984V184.193ZM436.516 184.193H496.234V243.807H436.516V184.193ZM557.484 184.193H497.766V243.807H557.484V184.193ZM559.016 184.193H618.734V243.807H559.016V184.193ZM679.984 184.193H620.266V243.807H679.984V184.193ZM681.516 184.193H741.234V243.807H681.516V184.193ZM312.484 245.336H252.766V304.95H312.484V245.336ZM314.016 245.336H373.734V304.95H314.016V245.336ZM434.984 245.336H375.266V304.95H434.984V245.336ZM436.516 245.336H496.234V304.95H436.516V245.336ZM557.484 245.336H497.766V304.95H557.484V245.336ZM559.016 245.336H618.734V304.95H559.016V245.336ZM679.984 245.336H620.266V304.95H679.984V245.336ZM681.516 245.336H741.234V304.95H681.516V245.336ZM312.484 306.479H252.766V366.093H312.484V306.479ZM314.016 306.479H373.734V366.093H314.016V306.479ZM434.984 306.479H375.266V366.093H434.984V306.479ZM436.516 306.479H496.234V366.093H436.516V306.479ZM557.484 306.479H497.766V366.093H557.484V306.479ZM559.016 306.479H618.734V366.093H559.016V306.479ZM679.984 306.479H620.266V366.093H679.984V306.479ZM681.516 306.479H741.234V366.093H681.516V306.479ZM312.484 367.621H252.766V427.236H312.484V367.621ZM314.016 367.621H373.734V427.236H314.016V367.621ZM434.984 367.621H375.266V427.236H434.984V367.621ZM436.516 367.621H496.234V427.236H436.516V367.621ZM557.484 367.621H497.766V427.236H557.484V367.621ZM559.016 367.621H618.734V427.236H559.016V367.621ZM679.984 367.621H620.266V427.236H679.984V367.621ZM681.516 367.621H741.234V427.236H681.516V367.621Z" fill="url(#paint0_linear_601_295)"/>
<path d="M1395 144L1398.49 166.194L1420.68 162.657L1400.65 172.836L1410.87 192.843L1395 176.94L1379.13 192.843L1389.35 172.836L1369.32 162.657L1391.51 166.194L1395 144Z" fill="white"/>
<path d="M318 246L321.491 268.194L343.679 264.657L323.649 274.836L333.87 294.843L318 278.94L302.13 294.843L312.351 274.836L292.321 264.657L314.509 268.194L318 246Z" fill="white"/>
<path d="M413.72 650.577C414.181 650.38 414.644 650.188 415.109 650H468.891C469.356 650.188 469.819 650.38 470.28 650.577H413.72Z" fill="white"/>
<path d="M402.898 656.344C403.198 656.15 403.5 655.958 403.803 655.768H480.197C480.5 655.958 480.802 656.15 481.102 656.344H402.898Z" fill="white"/>
<path d="M395.18 662.112C395.406 661.918 395.633 661.726 395.862 661.535H488.138C488.367 661.726 488.594 661.918 488.82 662.112H395.18Z" fill="white"/>
<path d="M389.182 667.88C389.361 667.686 389.541 667.494 389.722 667.303H494.278C494.459 667.494 494.639 667.686 494.818 667.88H389.182Z" fill="white"/>
<path d="M384.366 673.647C384.511 673.454 384.656 673.262 384.803 673.071H499.197C499.344 673.262 499.489 673.454 499.634 673.647H384.366Z" fill="white"/>
<path d="M380.457 679.415C380.574 679.222 380.693 679.03 380.812 678.838H503.188C503.307 679.03 503.426 679.222 503.543 679.415H380.457Z" fill="white"/>
<path d="M377.294 685.183C377.388 684.99 377.483 684.798 377.58 684.606H506.42C506.517 684.798 506.612 684.99 506.706 685.183H377.294Z" fill="white"/>
<path d="M374.773 690.95C374.847 690.758 374.922 690.565 374.998 690.373H509.002C509.078 690.565 509.153 690.758 509.227 690.95H374.773Z" fill="white"/>
<path d="M372.826 696.718C372.882 696.525 372.939 696.333 372.996 696.141H511.004C511.061 696.333 511.118 696.525 511.174 696.718H372.826Z" fill="white"/>
<path d="M371.405 702.485C371.444 702.293 371.484 702.101 371.524 701.909H512.476C512.516 702.101 512.556 702.293 512.595 702.485H371.405Z" fill="white"/>
<path d="M370.477 708.253C370.5 708.061 370.524 707.868 370.548 707.676H513.452C513.476 707.868 513.5 708.061 513.523 708.253H370.477Z" fill="white"/>
<path d="M370.02 714.021C370.028 713.828 370.036 713.636 370.045 713.444H513.955C513.964 713.636 513.972 713.828 513.98 714.021H370.02Z" fill="white"/>
<path d="M370.02 719.788C370.013 719.596 370.006 719.404 370 719.212H514C513.994 719.404 513.987 719.596 513.98 719.788H370.02Z" fill="white"/>
<path d="M370.477 725.556C370.454 725.364 370.432 725.172 370.411 724.979H513.589C513.568 725.172 513.546 725.364 513.523 725.556H370.477Z" fill="white"/>
<path d="M371.405 731.324C371.366 731.132 371.328 730.939 371.29 730.747H512.71C512.672 730.939 512.634 731.132 512.595 731.324H371.405Z" fill="white"/>
<path d="M372.826 737.091C372.77 736.899 372.715 736.707 372.661 736.515H511.339C511.285 736.707 511.23 736.899 511.174 737.091H372.826Z" fill="white"/>
<path d="M374.773 742.859C374.699 742.667 374.626 742.475 374.553 742.282H509.447C509.374 742.475 509.301 742.667 509.227 742.859H374.773Z" fill="white"/>
<path d="M377.294 748.627C377.2 748.435 377.106 748.243 377.014 748.05H506.986C506.894 748.243 506.8 748.435 506.706 748.627H377.294Z" fill="white"/>
<path d="M380.457 754.394C380.34 754.202 380.224 754.01 380.109 753.817H503.891C503.776 754.01 503.66 754.202 503.543 754.394H380.457Z" fill="white"/>
<path d="M384.366 760.162C384.222 759.97 384.079 759.778 383.937 759.585H500.063C499.921 759.778 499.778 759.97 499.634 760.162H384.366Z" fill="white"/>
<path d="M389.182 765.929C389.004 765.738 388.828 765.546 388.653 765.353H495.347C495.172 765.546 494.996 765.738 494.818 765.929H389.182Z" fill="white"/>
<path d="M395.18 771.697C394.957 771.506 394.735 771.314 394.515 771.12H489.485C489.265 771.314 489.043 771.506 488.82 771.697H395.18Z" fill="white"/>
<path d="M402.898 777.465C402.605 777.275 402.313 777.082 402.022 776.888H481.978C481.687 777.082 481.395 777.275 481.102 777.465H402.898Z" fill="white"/>
<path d="M413.72 783.232C413.281 783.044 412.843 782.852 412.408 782.656H471.592C471.157 782.852 470.719 783.044 470.28 783.232H413.72Z" fill="white"/>
<path d="M451.155 788.423C448.157 788.804 445.101 789 442 789C438.899 789 435.843 788.804 432.845 788.423H451.155Z" fill="white"/>
<defs>
<linearGradient id="paint0_linear_601_295" x1="-266.449" y1="-131.3" x2="864.916" y2="1643.61" gradientUnits="userSpaceOnUse">
<stop stop-color="white"/>
<stop offset="0.657437" stop-color="white" stop-opacity="0"/>
</linearGradient>
</defs>
</svg>
