<svg width="341" height="297" viewBox="0 0 341 297" fill="none" xmlns="http://www.w3.org/2000/svg">
<path d="M240.72 158.577C241.181 158.38 241.644 158.188 242.109 158H295.891C296.356 158.188 296.819 158.38 297.28 158.577H240.72Z" fill="white"/>
<path d="M229.898 164.344C230.198 164.15 230.5 163.958 230.803 163.768H307.197C307.5 163.958 307.802 164.15 308.102 164.344H229.898Z" fill="white"/>
<path d="M222.18 170.112C222.406 169.918 222.633 169.726 222.862 169.535H315.138C315.367 169.726 315.594 169.918 315.82 170.112H222.18Z" fill="white"/>
<path d="M216.182 175.88C216.361 175.686 216.541 175.494 216.722 175.303H321.278C321.459 175.494 321.639 175.686 321.818 175.88H216.182Z" fill="white"/>
<path d="M211.366 181.647C211.511 181.454 211.656 181.262 211.803 181.071H326.197C326.344 181.262 326.489 181.454 326.634 181.647H211.366Z" fill="white"/>
<path d="M207.457 187.415C207.574 187.222 207.693 187.03 207.812 186.838H330.188C330.307 187.03 330.426 187.222 330.543 187.415H207.457Z" fill="white"/>
<path d="M204.294 193.183C204.388 192.99 204.483 192.798 204.58 192.606H333.42C333.517 192.798 333.612 192.99 333.706 193.183H204.294Z" fill="white"/>
<path d="M201.773 198.95C201.847 198.758 201.922 198.565 201.998 198.373H336.002C336.078 198.565 336.153 198.758 336.227 198.95H201.773Z" fill="white"/>
<path d="M199.826 204.718C199.882 204.525 199.939 204.333 199.996 204.141H338.004C338.061 204.333 338.118 204.525 338.174 204.718H199.826Z" fill="white"/>
<path d="M198.405 210.485C198.444 210.293 198.484 210.101 198.524 209.909H339.476C339.516 210.101 339.556 210.293 339.595 210.485H198.405Z" fill="white"/>
<path d="M197.477 216.253C197.5 216.061 197.524 215.868 197.548 215.676H340.452C340.476 215.868 340.5 216.061 340.523 216.253H197.477Z" fill="white"/>
<path d="M197.02 222.021C197.028 221.828 197.036 221.636 197.045 221.444H340.955C340.964 221.636 340.972 221.828 340.98 222.021H197.02Z" fill="white"/>
<path d="M197.02 227.788C197.013 227.596 197.006 227.404 197 227.212H341C340.994 227.404 340.987 227.596 340.98 227.788H197.02Z" fill="white"/>
<path d="M197.477 233.556C197.454 233.364 197.432 233.172 197.411 232.979H340.589C340.568 233.172 340.546 233.364 340.523 233.556H197.477Z" fill="white"/>
<path d="M198.405 239.324C198.366 239.132 198.328 238.939 198.29 238.747H339.71C339.672 238.939 339.634 239.132 339.595 239.324H198.405Z" fill="white"/>
<path d="M199.826 245.091C199.77 244.899 199.715 244.707 199.661 244.515H338.339C338.285 244.707 338.23 244.899 338.174 245.091H199.826Z" fill="white"/>
<path d="M201.773 250.859C201.699 250.667 201.626 250.475 201.553 250.282H336.447C336.374 250.475 336.301 250.667 336.227 250.859H201.773Z" fill="white"/>
<path d="M204.294 256.627C204.2 256.435 204.106 256.243 204.014 256.05H333.986C333.894 256.243 333.8 256.435 333.706 256.627H204.294Z" fill="white"/>
<path d="M207.457 262.394C207.34 262.203 207.224 262.01 207.109 261.817H330.891C330.776 262.01 330.66 262.203 330.543 262.394H207.457Z" fill="white"/>
<path d="M211.366 268.162C211.222 267.97 211.079 267.778 210.937 267.585H327.063C326.921 267.778 326.778 267.97 326.634 268.162H211.366Z" fill="white"/>
<path d="M216.182 273.929C216.004 273.738 215.828 273.546 215.653 273.353H322.347C322.172 273.546 321.996 273.738 321.818 273.929H216.182Z" fill="white"/>
<path d="M222.18 279.697C221.957 279.506 221.735 279.314 221.515 279.12H316.485C316.265 279.314 316.043 279.506 315.82 279.697H222.18Z" fill="white"/>
<path d="M229.898 285.465C229.605 285.275 229.313 285.082 229.022 284.888H308.978C308.687 285.082 308.395 285.275 308.102 285.465H229.898Z" fill="white"/>
<path d="M240.72 291.232C240.281 291.044 239.843 290.852 239.408 290.656H298.592C298.157 290.852 297.719 291.044 297.28 291.232H240.72Z" fill="white"/>
<path d="M278.155 296.423C275.157 296.804 272.101 297 269 297C265.899 297 262.843 296.804 259.845 296.423H278.155Z" fill="white"/>
<path d="M0 60C0 31.7157 0 17.5736 8.7868 8.7868C17.5736 0 31.7157 0 60 0H181C209.284 0 223.426 0 232.213 8.7868C241 17.5736 241 31.7157 241 60V202C241 230.284 241 244.426 232.213 253.213C223.426 262 209.284 262 181 262H60C31.7157 262 17.5736 262 8.7868 253.213C0 244.426 0 230.284 0 202V60Z" fill="black"/>
<path d="M0 60C0 31.7157 0 17.5736 8.7868 8.7868C17.5736 0 31.7157 0 60 0H181C209.284 0 223.426 0 232.213 8.7868C241 17.5736 241 31.7157 241 60V202C241 230.284 241 244.426 232.213 253.213C223.426 262 209.284 262 181 262H60C31.7157 262 17.5736 262 8.7868 253.213C0 244.426 0 230.284 0 202V60Z" fill="#FFC93E"/>
<path d="M117.75 199.125C120.857 199.125 123.375 196.607 123.375 193.5C123.375 190.393 120.857 187.875 117.75 187.875C114.643 187.875 112.125 190.393 112.125 193.5C112.125 196.607 114.643 199.125 117.75 199.125Z" fill="#C8C8C9"/>
<path d="M119.156 198.925C121.486 198.925 123.375 196.496 123.375 193.5C123.375 190.504 121.486 188.075 119.156 188.075C116.826 188.075 114.938 190.504 114.938 193.5C114.938 196.496 116.826 198.925 119.156 198.925Z" fill="#DEDEDF"/>
<path d="M151.5 41.625H84C74.6802 41.625 67.125 49.1802 67.125 58.5V193.5C67.125 202.82 74.6802 210.375 84 210.375H151.5C160.82 210.375 168.375 202.82 168.375 193.5V58.5C168.375 49.1802 160.82 41.625 151.5 41.625Z" fill="#F2F6FF"/>
<path d="M151.5 41.625H84C81.478 41.6265 78.9889 42.1976 76.7184 43.2956V139.058C76.7184 154.989 83.0469 170.267 94.3115 181.532C105.576 192.797 120.854 199.125 136.785 199.125H167.393C168.039 197.32 168.371 195.417 168.375 193.5V58.5C168.375 54.0245 166.597 49.7322 163.432 46.5676C160.268 43.4029 155.976 41.625 151.5 41.625Z" fill="#319CFF"/>
<path d="M182.438 97.875H100.875C98.6372 97.875 96.4911 96.9861 94.9088 95.4037C93.3264 93.8214 92.4375 91.6753 92.4375 89.4375V159.75C92.4375 162.734 93.6228 165.595 95.7326 167.705C97.8423 169.815 100.704 171 103.688 171H182.438V97.875Z" fill="#F3A845"/>
<path d="M182.438 97.875H100.875V115.678C100.875 121.835 102.087 127.932 104.443 133.62C106.799 139.309 110.253 144.478 114.606 148.831C118.96 153.185 124.129 156.638 129.817 158.994C135.506 161.35 141.602 162.563 147.759 162.562H182.438V97.875Z" fill="#EECC61"/>
<path d="M182.438 97.875H100.875C98.6372 97.875 96.4911 96.9861 94.9088 95.4037C93.3264 93.8214 92.4375 91.6753 92.4375 89.4375C92.4375 87.1997 93.3264 85.0536 94.9088 83.4713C96.4911 81.8889 98.6372 81 100.875 81H182.438V97.875Z" fill="#F1D681"/>
<path d="M168.375 120.375H190.875V142.875H168.375C165.391 142.875 162.53 141.69 160.42 139.58C158.31 137.47 157.125 134.609 157.125 131.625C157.125 128.641 158.31 125.78 160.42 123.67C162.53 121.56 165.391 120.375 168.375 120.375Z" fill="#F3A845"/>
<path d="M95.25 41.625L101.679 52.875H133.821L140.25 41.625H95.25Z" fill="#C8C8C9"/>
<path d="M100.875 42.4294C100.875 44.4538 101.679 46.3953 103.111 47.8268C104.542 49.2583 106.484 50.0625 108.508 50.0625H135.429L140.25 41.625H100.875V42.4294Z" fill="#DEDEDF"/>
<path d="M190.875 117.563H185.25V81C185.25 80.2541 184.954 79.5387 184.426 79.0113C183.899 78.4838 183.183 78.1875 182.438 78.1875H171.188V58.5C171.047 53.1499 168.791 48.0738 164.915 44.3836C161.039 40.6934 155.858 38.6901 150.507 38.8125H84.9928C79.6423 38.6901 74.4614 40.6934 70.5851 44.3836C66.7088 48.0738 64.4533 53.1499 64.3125 58.5V193.5C64.4533 198.85 66.7088 203.926 70.5851 207.616C74.4614 211.307 79.6423 213.31 84.9928 213.188H150.507C155.858 213.31 161.039 211.307 164.915 207.616C168.791 203.926 171.047 198.85 171.188 193.5V173.812H182.438C183.183 173.812 183.899 173.516 184.426 172.989C184.954 172.461 185.25 171.746 185.25 171V145.688H190.875C191.621 145.688 192.336 145.391 192.864 144.864C193.391 144.336 193.688 143.621 193.688 142.875V120.375C193.688 119.629 193.391 118.914 192.864 118.386C192.336 117.859 191.621 117.563 190.875 117.563ZM179.625 95.0625H100.875C99.3832 95.0625 97.9524 94.4699 96.8975 93.415C95.8426 92.3601 95.25 90.9293 95.25 89.4375C95.25 87.9457 95.8426 86.5149 96.8975 85.46C97.9524 84.4051 99.3832 83.8125 100.875 83.8125H179.625V95.0625ZM135.401 44.4375L132.189 50.0625H103.311L100.099 44.4375H135.401ZM165.562 193.5C165.422 197.358 163.76 201.004 160.938 203.64C158.117 206.275 154.366 207.686 150.507 207.562H84.9928C81.1339 207.686 77.3833 206.275 74.5618 203.64C71.7403 201.004 70.0776 197.358 69.9375 193.5V58.5C70.0776 54.6417 71.7403 50.9959 74.5618 48.3604C77.3833 45.725 81.1339 44.3145 84.9928 44.4375H93.6188L99.2438 54.2812C99.4911 54.7096 99.847 55.0652 100.276 55.3121C100.704 55.559 101.19 55.6885 101.685 55.6875H133.821C134.315 55.6885 134.801 55.559 135.23 55.3121C135.659 55.0652 136.015 54.7096 136.262 54.2812L141.887 44.4375H150.513C154.371 44.316 158.12 45.7272 160.94 48.3625C163.76 50.9978 165.422 54.6427 165.562 58.5V78.1875H100.875C97.8913 78.1875 95.0298 79.3728 92.9201 81.4826C90.8103 83.5923 89.625 86.4538 89.625 89.4375V159.75C89.6295 163.478 91.1125 167.052 93.7487 169.689C96.385 172.325 99.9593 173.808 103.688 173.812H165.562V193.5ZM179.625 168.188H103.688C101.45 168.188 99.3036 167.299 97.7213 165.716C96.1389 164.134 95.25 161.988 95.25 159.75V99.1238C96.9525 100.136 98.8943 100.676 100.875 100.688H179.625V117.563H168.375C164.645 117.563 161.069 119.044 158.431 121.681C155.794 124.319 154.312 127.895 154.312 131.625C154.312 135.355 155.794 138.931 158.431 141.569C161.069 144.206 164.645 145.688 168.375 145.688H179.625V168.188ZM188.062 140.062H168.375C166.137 140.062 163.991 139.174 162.409 137.591C160.826 136.009 159.938 133.863 159.938 131.625C159.938 129.387 160.826 127.241 162.409 125.659C163.991 124.076 166.137 123.188 168.375 123.188H188.062V140.062Z" fill="black"/>
<path d="M165.562 128.812H171.188V134.438H165.562V128.812Z" fill="black"/>
<path d="M117.75 201.938C119.419 201.938 121.05 201.443 122.438 200.516C123.825 199.588 124.907 198.271 125.545 196.729C126.184 195.187 126.351 193.491 126.025 191.854C125.7 190.217 124.896 188.714 123.716 187.534C122.536 186.354 121.033 185.55 119.396 185.225C117.759 184.899 116.063 185.066 114.521 185.705C112.979 186.343 111.662 187.425 110.734 188.812C109.807 190.2 109.312 191.831 109.312 193.5C109.313 195.738 110.201 197.884 111.784 199.466C113.366 201.049 115.512 201.938 117.75 201.938ZM117.75 190.688C118.306 190.688 118.85 190.852 119.313 191.161C119.775 191.471 120.136 191.91 120.348 192.424C120.561 192.938 120.617 193.503 120.508 194.049C120.4 194.594 120.132 195.095 119.739 195.489C119.345 195.882 118.844 196.15 118.299 196.258C117.753 196.367 117.188 196.311 116.674 196.098C116.16 195.886 115.721 195.525 115.411 195.063C115.102 194.6 114.938 194.056 114.938 193.5C114.938 192.754 115.234 192.039 115.761 191.511C116.289 190.984 117.004 190.688 117.75 190.688Z" fill="black"/>
</svg>
