<svg width="266" height="203" viewBox="0 0 266 203" fill="none" xmlns="http://www.w3.org/2000/svg">
<path d="M89.8982 139.613L93.4005 137.968L103.468 147.213L103.653 147.126L102.966 133.475L106.468 131.83L113.889 147.629L111.143 148.919L106.045 138.065L105.898 138.134L106.608 150.992L104.556 151.956L95.1027 143.176L94.9561 143.245L100.065 154.122L97.3187 155.412L89.8982 139.613ZM122.093 137.693L118.869 130.827L121.661 129.515L127.227 141.364L124.519 142.636L123.53 140.53L123.406 140.588C123.451 141.377 123.266 142.126 122.852 142.835C122.443 143.542 121.794 144.104 120.904 144.522C120.127 144.887 119.36 145.037 118.602 144.973C117.846 144.901 117.145 144.612 116.499 144.105C115.851 143.594 115.305 142.865 114.86 141.919L111.317 134.374L114.109 133.063L117.45 140.175C117.802 140.926 118.288 141.426 118.907 141.675C119.527 141.924 120.17 141.891 120.839 141.577C121.25 141.384 121.602 141.097 121.893 140.715C122.185 140.333 122.361 139.886 122.422 139.374C122.486 138.855 122.376 138.294 122.093 137.693ZM135.369 126.9L132.954 128.373C132.761 128.15 132.521 127.967 132.235 127.826C131.954 127.681 131.632 127.61 131.268 127.611C130.905 127.613 130.507 127.715 130.075 127.918C129.494 128.19 129.064 128.546 128.787 128.984C128.514 129.419 128.475 129.837 128.668 130.235C128.825 130.582 129.083 130.803 129.441 130.899C129.805 130.991 130.32 130.966 130.987 130.822L133.211 130.305C134.446 130.02 135.459 130.012 136.251 130.28C137.047 130.547 137.647 131.103 138.051 131.949C138.396 132.697 138.487 133.458 138.323 134.232C138.162 134.998 137.776 135.719 137.164 136.395C136.553 137.072 135.753 137.642 134.766 138.106C133.316 138.787 132.006 139.032 130.836 138.84C129.664 138.644 128.737 138.04 128.056 137.03L130.655 135.488C131.03 135.965 131.482 136.246 132.011 136.33C132.54 136.414 133.126 136.305 133.769 136.003C134.433 135.692 134.901 135.305 135.174 134.844C135.452 134.381 135.497 133.949 135.309 133.548C135.149 133.208 134.886 132.989 134.52 132.892C134.159 132.791 133.678 132.81 133.078 132.948L130.857 133.473C129.61 133.77 128.582 133.766 127.773 133.462C126.962 133.152 126.357 132.564 125.956 131.698C125.608 130.97 125.509 130.244 125.659 129.521C125.811 128.79 126.179 128.109 126.761 127.478C127.346 126.839 128.112 126.297 129.058 125.853C130.447 125.201 131.678 124.983 132.753 125.2C133.833 125.415 134.705 125.981 135.369 126.9ZM142.021 134.416L136.455 122.567L139.248 121.255L144.813 133.104L142.021 134.416ZM137.069 120.226C136.627 120.433 136.178 120.466 135.721 120.322C135.262 120.174 134.935 119.891 134.739 119.475C134.541 119.053 134.533 118.621 134.714 118.178C134.892 117.73 135.203 117.402 135.645 117.194C136.093 116.984 136.543 116.954 136.997 117.105C137.454 117.249 137.781 117.531 137.979 117.953C138.175 118.369 138.183 118.802 138.004 119.25C137.828 119.69 137.517 120.015 137.069 120.226ZM152.962 129.559C151.779 130.115 150.641 130.332 149.549 130.211C148.461 130.088 147.474 129.676 146.586 128.976C145.701 128.268 144.977 127.315 144.415 126.116C143.849 124.913 143.582 123.742 143.612 122.604C143.64 121.461 143.955 120.434 144.557 119.524C145.162 118.606 146.043 117.875 147.2 117.332C148.162 116.88 149.096 116.658 150.003 116.665C150.913 116.664 151.74 116.881 152.485 117.317C153.226 117.747 153.829 118.374 154.291 119.199L151.622 120.452C151.246 119.932 150.765 119.577 150.18 119.387C149.598 119.19 148.97 119.25 148.296 119.566C147.726 119.834 147.297 120.224 147.01 120.736C146.72 121.242 146.589 121.837 146.615 122.522C146.647 123.204 146.85 123.943 147.224 124.74C147.603 125.548 148.048 126.186 148.557 126.656C149.064 127.121 149.605 127.41 150.179 127.524C150.756 127.629 151.335 127.546 151.916 127.273C152.328 127.079 152.659 126.83 152.911 126.523C153.165 126.209 153.332 125.851 153.413 125.449C153.495 125.047 153.476 124.613 153.358 124.147L156.027 122.894C156.354 123.763 156.456 124.622 156.333 125.471C156.209 126.314 155.864 127.091 155.3 127.802C154.734 128.507 153.954 129.093 152.962 129.559Z" fill="white"/>
<path d="M216.375 114.965C211.439 100.953 204.822 81.543 196.363 69.6054C156.008 87.4269 115.907 105.493 76.3673 125.13C61.3633 132.581 46.3465 143.069 30.4594 148.425C36.6391 160.118 42.2652 172.051 48.3409 183.771C50.8291 188.57 55.0283 192.975 56.8006 198.107C101.343 176.775 144.163 151.682 189.577 132.126C198.282 128.378 206.337 123.01 215.39 120.009C191.888 128.714 169.557 141.232 147.038 152.158C131.982 159.463 115.759 164.292 100.613 171.542C86.2909 178.398 73.2782 188.002 58.8596 194.545C47.3222 178.971 34.5919 163.583 24.1906 147.205C33.2344 142.723 41.7609 137.171 50.844 132.813C99.1947 109.617 147.986 87.5217 197.386 66.7139C204.545 82.1719 207.923 98.7507 214.155 114.453C205.409 99.1967 201.188 81.788 192.85 66.4007C186.232 67.8246 179.698 72.015 173.57 74.7672C157.422 82.0191 141.417 89.1436 125.627 97.156C105.767 107.233 86.1499 117.574 66.4296 127.94C52.9129 135.044 36.9804 141.135 24.9337 150.784C34.2319 166.921 43.7962 182.939 53.2778 198.952" stroke="white" stroke-miterlimit="1.5" stroke-linecap="round" stroke-linejoin="round"/>
<path d="M185.983 46.6546C186.413 40.469 187.023 34.3298 187.713 28.1699" stroke="white" stroke-width="2" stroke-miterlimit="1.5" stroke-linecap="round" stroke-linejoin="round"/>
<path d="M198.56 52.3199C201.362 45.877 205.199 40.0066 208.619 33.898" stroke="white" stroke-width="2" stroke-miterlimit="1.5" stroke-linecap="round" stroke-linejoin="round"/>
<path d="M208.266 61.7001C212.897 58.0605 218.053 54.8213 223.637 52.9305" stroke="white" stroke-width="2" stroke-miterlimit="1.5" stroke-linecap="round" stroke-linejoin="round"/>
</svg>
