<svg width="214" height="207" viewBox="0 0 214 207" fill="none" xmlns="http://www.w3.org/2000/svg">
<path d="M65.1738 1.16772C65.8552 0.876246 66.5404 0.591671 67.229 0.314087H146.808C147.496 0.591671 148.182 0.876246 148.863 1.16772H65.1738Z" fill="#3A45EC"/>
<path d="M49.1604 9.70409C49.6044 9.41632 50.0506 9.13176 50.4991 8.85046H163.538C163.986 9.13176 164.432 9.41632 164.876 9.70409H49.1604Z" fill="#3A45EC"/>
<path d="M37.7397 18.2405C38.0742 17.9539 38.4104 17.6693 38.7484 17.3868H175.288C175.626 17.6693 175.963 17.9539 176.297 18.2405H37.7397Z" fill="#3A45EC"/>
<path d="M28.8643 26.7768C29.1294 26.4908 29.396 26.2063 29.6642 25.9232H184.373C184.641 26.2063 184.907 26.4908 185.172 26.7768H28.8643Z" fill="#3A45EC"/>
<path d="M21.7382 35.3132C21.9525 35.0275 22.1683 34.743 22.3854 34.4596H191.651C191.868 34.743 192.084 35.0275 192.299 35.3132H21.7382Z" fill="#3A45EC"/>
<path d="M15.9543 43.8496C16.1283 43.5641 16.3035 43.2796 16.48 42.9959H197.557C197.733 43.2796 197.909 43.5641 198.082 43.8496H15.9543Z" fill="#3A45EC"/>
<path d="M11.2737 52.3859C11.4135 52.1007 11.5546 51.8161 11.6969 51.5323H202.34C202.482 51.8161 202.623 52.1007 202.763 52.3859H11.2737Z" fill="#3A45EC"/>
<path d="M7.54379 60.9223C7.65374 60.6372 7.76487 60.3526 7.87719 60.0687H206.16C206.272 60.3526 206.383 60.6372 206.493 60.9223H7.54379Z" fill="#3A45EC"/>
<path d="M4.66266 69.4587C4.74555 69.1736 4.82959 68.8891 4.91478 68.605H209.122C209.207 68.8891 209.291 69.1736 209.374 69.4587H4.66266Z" fill="#3A45EC"/>
<path d="M2.5601 77.995C2.61788 77.7101 2.6768 77.4255 2.73685 77.1414H211.3C211.36 77.4255 211.419 77.7101 211.477 77.995H2.5601Z" fill="#3A45EC"/>
<path d="M1.18747 86.5314C1.2215 86.2465 1.25666 85.962 1.29293 85.6778H212.744C212.78 85.962 212.815 86.2465 212.849 86.5314H1.18747Z" fill="#3A45EC"/>
<path d="M0.511619 95.0678C0.522812 94.783 0.53512 94.4984 0.548539 94.2141H213.488C213.502 94.4984 213.514 94.783 213.525 95.0678H0.511619Z" fill="#3A45EC"/>
<path d="M0.511619 103.604C0.500449 103.32 0.49039 103.035 0.481445 102.751H213.555C213.546 103.035 213.536 103.32 213.525 103.604H0.511619Z" fill="#3A45EC"/>
<path d="M1.18747 112.141C1.15352 111.856 1.12068 111.572 1.08896 111.287H212.948C212.916 111.572 212.883 111.856 212.849 112.141H1.18747Z" fill="#3A45EC"/>
<path d="M2.5601 120.677C2.50249 120.393 2.446 120.108 2.39064 119.823H211.646C211.591 120.108 211.534 120.393 211.477 120.677H2.5601Z" fill="#3A45EC"/>
<path d="M4.66266 129.213C4.58007 128.929 4.49862 128.645 4.41832 128.36H209.618C209.538 128.645 209.457 128.929 209.374 129.213H4.66266Z" fill="#3A45EC"/>
<path d="M7.54379 137.75C7.43429 137.466 7.32598 137.181 7.21885 136.896H206.818C206.711 137.181 206.602 137.466 206.493 137.75H7.54379Z" fill="#3A45EC"/>
<path d="M11.2737 146.286C11.1345 146.002 10.9966 145.718 10.8599 145.432H203.177C203.04 145.718 202.902 146.002 202.763 146.286H11.2737Z" fill="#3A45EC"/>
<path d="M15.9543 154.822C15.7815 154.539 15.6099 154.254 15.4397 153.969H198.597C198.427 154.254 198.255 154.539 198.082 154.822H15.9543Z" fill="#3A45EC"/>
<path d="M21.7382 163.359C21.5255 163.075 21.3142 162.791 21.1043 162.505H192.932C192.723 162.791 192.511 163.075 192.299 163.359H21.7382Z" fill="#3A45EC"/>
<path d="M28.8643 171.895C28.6019 171.612 28.341 171.327 28.0816 171.041H185.955C185.696 171.327 185.435 171.612 185.172 171.895H28.8643Z" fill="#3A45EC"/>
<path d="M37.7397 180.431C37.41 180.149 37.082 179.864 36.7557 179.578H177.281C176.955 179.864 176.627 180.149 176.297 180.431H37.7397Z" fill="#3A45EC"/>
<path d="M49.1604 188.968C48.7262 188.686 48.2941 188.402 47.8643 188.114H166.173C165.743 188.402 165.311 188.686 164.876 188.968H49.1604Z" fill="#3A45EC"/>
<path d="M65.1738 197.504C64.5231 197.226 63.8759 196.941 63.232 196.651H150.805C150.161 196.941 149.514 197.226 148.863 197.504H65.1738Z" fill="#3A45EC"/>
<path d="M120.565 205.187C116.129 205.75 111.608 206.041 107.018 206.041C102.429 206.041 97.9078 205.75 93.4714 205.187H120.565Z" fill="#3A45EC"/>
</svg>
