<svg width="14" height="127" viewBox="0 0 14 127" fill="none" xmlns="http://www.w3.org/2000/svg">
<path fill-rule="evenodd" clip-rule="evenodd" d="M11.8678 126.4C12.3099 126.833 13.0266 126.833 13.4687 126.4C13.9108 125.967 13.9108 125.265 13.4687 124.831L2.26252 113.852C1.82044 113.419 1.1037 113.419 0.661631 113.852C0.219559 114.285 0.21956 114.987 0.661632 115.42L11.8678 126.4ZM11.8678 113.852C12.3099 114.285 13.0266 114.285 13.4687 113.852C13.9108 113.419 13.9108 112.716 13.4687 112.283L2.26252 101.304C1.82044 100.871 1.1037 100.871 0.661631 101.304C0.219559 101.737 0.219559 102.439 0.661631 102.872L11.8678 113.852ZM13.4687 101.304C13.0266 101.737 12.3099 101.737 11.8678 101.304L0.66163 90.3243C0.219559 89.8912 0.219558 89.1889 0.66163 88.7558C1.1037 88.3227 1.82044 88.3227 2.26252 88.7558L13.4687 99.7353C13.9108 100.168 13.9108 100.871 13.4687 101.304ZM11.8678 88.7558C12.3099 89.189 13.0266 89.189 13.4687 88.7558C13.9108 88.3227 13.9108 87.6204 13.4687 87.1873L2.26251 76.2078C1.82044 75.7746 1.1037 75.7746 0.66163 76.2078C0.219558 76.6409 0.219558 77.3431 0.66163 77.7763L11.8678 88.7558ZM13.4687 76.2078C13.0266 76.6409 12.3099 76.6409 11.8678 76.2078L0.661629 65.2283C0.219558 64.7951 0.219557 64.0929 0.661629 63.6597C1.1037 63.2266 1.82044 63.2266 2.26251 63.6597L13.4687 74.6393C13.9108 75.0724 13.9108 75.7747 13.4687 76.2078ZM11.8678 63.6598C12.3099 64.0929 13.0266 64.0929 13.4687 63.6598C13.9108 63.2267 13.9108 62.5244 13.4687 62.0913L2.26251 51.1117C1.82044 50.6786 1.1037 50.6786 0.661629 51.1117C0.219557 51.5449 0.219557 52.2471 0.661629 52.6802L11.8678 63.6598ZM13.4687 51.1118C13.0266 51.5449 12.3099 51.5449 11.8678 51.1118L0.661628 40.1322C0.219557 39.6991 0.219556 38.9968 0.661628 38.5637C1.1037 38.1306 1.82044 38.1306 2.26251 38.5637L13.4687 49.5433C13.9108 49.9764 13.9108 50.6786 13.4687 51.1118ZM11.8678 38.5637C12.3099 38.9969 13.0266 38.9969 13.4687 38.5637C13.9108 38.1306 13.9108 37.4284 13.4687 36.9952L2.26251 26.0157C1.82044 25.5826 1.1037 25.5826 0.661628 26.0157C0.219556 26.4488 0.219556 27.1511 0.661628 27.5842L11.8678 38.5637ZM13.4687 26.0157C13.0266 26.4489 12.3099 26.4489 11.8678 26.0157L0.661627 15.0362C0.219555 14.603 0.219555 13.9008 0.661627 13.4677C1.1037 13.0345 1.82044 13.0345 2.26251 13.4677L13.4687 24.4472C13.9108 24.8803 13.9108 25.5826 13.4687 26.0157ZM11.8678 13.4677C12.3099 13.9008 13.0266 13.9008 13.4687 13.4677C13.9108 13.0346 13.9108 12.3323 13.4687 11.8992L2.26251 0.919647C1.82044 0.486511 1.1037 0.486511 0.661627 0.919647C0.219554 1.35278 0.219555 2.05502 0.661627 2.48816L11.8678 13.4677Z" fill="#FFC93E"/>
</svg>
