<svg width="150" height="150" viewBox="0 0 150 150" fill="none" xmlns="http://www.w3.org/2000/svg">
<g filter="url(#filter0_b_22_1768)">
<circle cx="75" cy="75" r="75" fill="white" fill-opacity="0.5"/>
</g>
<path d="M56.9147 115.416C57.6556 115.763 58.2221 116.257 58.6142 116.897C59.0044 117.541 59.1988 118.281 59.1975 119.118C59.1943 119.959 58.9723 120.85 58.5313 121.792C58.094 122.725 57.5544 123.461 56.9124 123.998C56.2704 124.535 55.5762 124.857 54.8298 124.964C54.0833 125.071 53.3357 124.949 52.587 124.598C52.0082 124.327 51.596 124.016 51.3506 123.666C51.0996 123.318 50.9422 122.981 50.8785 122.655C50.8092 122.33 50.7605 122.068 50.7324 121.866L50.6166 121.812L48.5674 126.188L47.2012 125.549L52.7526 113.693L54.0724 114.311L53.4327 115.677L53.5948 115.753C53.7711 115.638 54.0096 115.501 54.3105 115.34C54.6096 115.184 54.9761 115.09 55.4099 115.057C55.8419 115.029 56.3435 115.149 56.9147 115.416ZM56.1548 116.557C55.6068 116.3 55.0768 116.226 54.5649 116.335C54.0511 116.447 53.5766 116.712 53.1412 117.129C52.7041 117.55 52.3283 118.096 52.0138 118.768C51.703 119.432 51.5275 120.058 51.4874 120.646C51.4454 121.238 51.5485 121.761 51.7966 122.216C52.0429 122.675 52.4439 123.035 52.9996 123.295C53.5785 123.566 54.1305 123.643 54.6555 123.527C55.1749 123.412 55.6495 123.148 56.0792 122.732C56.5032 122.319 56.8616 121.8 57.1543 121.175C57.4507 120.542 57.6235 119.922 57.6727 119.314C57.7162 118.709 57.6183 118.164 57.379 117.681C57.134 117.199 56.7259 116.824 56.1548 116.557Z" fill="black"/>
<path d="M47.0703 108.962C47.5364 109.374 47.8819 109.836 48.1066 110.347C48.3285 110.862 48.403 111.386 48.3301 111.918C48.2545 112.454 48.005 112.962 47.5816 113.441C47.2091 113.862 46.8241 114.131 46.4266 114.246C46.0263 114.364 45.621 114.375 45.2106 114.28C44.8001 114.184 44.3949 114.025 43.9947 113.802C43.5885 113.58 43.1949 113.34 42.8137 113.082C42.316 112.745 41.9155 112.467 41.6123 112.251C41.3031 112.034 41.0522 111.906 40.8596 111.867C40.6638 111.825 40.4854 111.894 40.3246 112.076L40.2907 112.115C39.873 112.587 39.6777 113.069 39.7049 113.559C39.7289 114.047 40.0011 114.521 40.5215 114.981C41.0611 115.458 41.5886 115.713 42.1039 115.748C42.6193 115.783 43.0578 115.721 43.4193 115.563L44.1534 116.894C43.5667 117.172 43.0037 117.294 42.4643 117.261C41.9188 117.228 41.4124 117.093 40.945 116.856C40.4715 116.62 40.0496 116.338 39.6793 116.011C39.443 115.802 39.197 115.533 38.9413 115.205C38.6796 114.877 38.4813 114.499 38.3463 114.073C38.2082 113.644 38.1972 113.17 38.3132 112.653C38.4293 112.136 38.7456 111.585 39.2621 111.001L43.5463 106.154L44.6766 107.153L43.796 108.149L43.8535 108.2C44.0712 108.108 44.3499 108.05 44.6896 108.026C45.0293 108.002 45.404 108.058 45.8138 108.193C46.2236 108.327 46.6425 108.584 47.0703 108.962ZM46.0004 109.825C45.5534 109.43 45.099 109.185 44.6373 109.089C44.1724 108.991 43.7389 109.012 43.3369 109.151C42.9318 109.288 42.5937 109.509 42.3228 109.816L41.4083 110.85C41.507 110.835 41.659 110.876 41.8641 110.972C42.0633 111.068 42.2837 111.192 42.5255 111.343C42.7612 111.495 42.9894 111.645 43.2099 111.795C43.4244 111.944 43.5994 112.065 43.7348 112.156C44.0624 112.378 44.3921 112.558 44.7237 112.698C45.0493 112.838 45.3651 112.892 45.6711 112.861C45.9712 112.831 46.2482 112.672 46.5022 112.384C46.8493 111.992 46.9665 111.566 46.8538 111.108C46.735 110.651 46.4506 110.223 46.0004 109.825Z" fill="black"/>
<path d="M29.1067 108.732L39.7489 101.109L40.6274 102.335L29.9852 109.959L29.1067 108.732Z" fill="black"/>
<path d="M36.7356 96.0066L27.8875 100.262L27.2337 98.9026L36.0817 94.6471L36.7356 96.0066ZM26.0804 100.28C26.2078 100.545 26.2275 100.817 26.1393 101.096C26.0493 101.371 25.8776 101.569 25.6241 101.691C25.3707 101.813 25.1085 101.823 24.8375 101.722C24.5646 101.617 24.3645 101.432 24.237 101.167C24.1096 100.902 24.0909 100.632 24.1809 100.357C24.269 100.078 24.4398 99.8774 24.6933 99.7555C24.9467 99.6336 25.2099 99.6253 25.4827 99.7305C25.7537 99.8319 25.9529 100.015 26.0804 100.28Z" fill="black"/>
<path d="M33.2789 85.4513C33.4749 86.3157 33.4412 87.1208 33.1777 87.8665C32.9132 88.6081 32.4526 89.2457 31.7958 89.7791C31.1381 90.3084 30.3146 90.6852 29.3255 90.9095C28.3281 91.1357 27.4165 91.1523 26.5906 90.9594C25.7638 90.7624 25.0711 90.3864 24.5127 89.8313C23.9533 89.2722 23.5756 88.5604 23.3796 87.6959C23.1836 86.8315 23.2178 86.0285 23.4822 85.2869C23.7457 84.5411 24.2084 83.9031 24.8703 83.3729C25.5313 82.8385 26.3605 82.4582 27.3579 82.2321C28.347 82.0078 29.2529 81.9946 30.0755 82.1926C30.8973 82.3864 31.5878 82.7629 32.1472 83.3221C32.7056 83.8771 33.0829 84.5868 33.2789 85.4513ZM31.9573 85.7509C31.8084 85.0943 31.5176 84.5922 31.0849 84.2446C30.6521 83.8971 30.1384 83.6837 29.5436 83.6044C28.9489 83.5252 28.3315 83.5581 27.6915 83.7032C27.0515 83.8483 26.4782 84.0854 25.9717 84.4144C25.4651 84.7433 25.0895 85.1584 24.8448 85.6596C24.6002 86.1607 24.5523 86.7396 24.7012 87.3963C24.8501 88.0529 25.143 88.5545 25.5799 88.9011C26.0168 89.2478 26.5347 89.4602 27.1336 89.5385C27.7325 89.6168 28.3519 89.5834 28.9919 89.4383C29.6319 89.2932 30.2031 89.0566 30.7055 88.7286C31.2079 88.4006 31.5794 87.9864 31.8199 87.4862C32.0604 86.986 32.1062 86.4075 31.9573 85.7509Z" fill="black"/>
<path d="M27.7489 65.6624L25.0321 64.9281L25.9651 67.585L24.7804 67.9405L24.0756 65.2052L22.2398 67.3519L21.3321 66.5118L23.3383 64.5357L20.5753 64.0007L20.8522 62.8051L23.5691 63.5394L22.6361 60.8825L23.8207 60.527L24.5256 63.2623L26.3614 61.1155L27.2691 61.9557L25.2629 63.9317L28.0259 64.4668L27.7489 65.6624Z" fill="#FFC93E"/>
<path d="M42.2941 49.111L39.7053 52.2123L29.6556 43.8233L32.3591 40.5846C33.1728 39.6098 34.0704 38.9435 35.0517 38.5858C36.0297 38.2255 37.0476 38.1731 38.1053 38.4288C39.1598 38.6817 40.2072 39.2424 41.2475 40.1108C42.2943 40.9846 43.0399 41.9234 43.4843 42.9272C43.9254 43.9282 44.0512 44.9546 43.8615 46.0064C43.6686 47.0555 43.1461 48.0903 42.2941 49.111ZM39.6416 50.0942L41.149 48.2883C41.8426 47.4574 42.2572 46.635 42.3926 45.821C42.528 45.0071 42.4117 44.2189 42.0435 43.4563C41.6753 42.6938 41.0823 41.9712 40.2644 41.2885C39.4531 40.6113 38.6441 40.1607 37.8373 39.9369C37.0272 39.7104 36.2454 39.7293 35.4916 39.9939C34.7347 40.2557 34.0285 40.7792 33.3731 41.5643L31.751 43.5075L39.6416 50.0942Z" fill="black"/>
<path d="M49.1664 42.5762L43.3615 34.6578L44.5782 33.7659L50.383 41.6843L49.1664 42.5762ZM43.0127 32.8846C42.7755 33.0584 42.5118 33.1276 42.2216 33.092C41.9348 33.0539 41.7082 32.9215 41.5419 32.6947C41.3757 32.4678 41.3175 32.2119 41.3675 31.9269C41.4209 31.6394 41.5662 31.4088 41.8033 31.2349C42.0405 31.0611 42.3025 30.9932 42.5893 31.0313C42.8795 31.0668 43.1078 31.198 43.2741 31.4249C43.4404 31.6517 43.4968 31.9088 43.4434 32.1963C43.3934 32.4813 43.2498 32.7107 43.0127 32.8846Z" fill="black"/>
<path d="M60.3447 40.6342C59.6756 40.9229 59.0633 41.0849 58.5078 41.1204C57.9539 41.1598 57.4567 41.1098 57.016 40.9704C56.5809 40.8332 56.2019 40.6486 55.879 40.4166L56.6482 39.1659C56.8443 39.2762 57.0838 39.3956 57.3667 39.5242C57.6513 39.6567 57.9936 39.7295 58.3937 39.7425C58.7994 39.7578 59.2742 39.6481 59.8181 39.4134C60.5459 39.0995 61.0705 38.6643 61.392 38.1079C61.7136 37.5515 61.7123 36.8977 61.3882 36.1464L60.5982 34.3152L60.4808 34.3659C60.45 34.5741 60.393 34.84 60.3098 35.1636C60.2289 35.4816 60.0548 35.8097 59.7876 36.1477C59.5226 36.4802 59.0967 36.773 58.5097 37.0262C57.782 37.3402 57.0543 37.4499 56.3266 37.3554C55.6029 37.2592 54.931 36.955 54.3109 36.4428C53.6947 35.929 53.1841 35.2025 52.779 34.2634C52.3806 33.34 52.1961 32.4659 52.2255 31.641C52.2531 30.8123 52.4755 30.0852 52.8926 29.4597C53.3079 28.8304 53.8951 28.3519 54.6542 28.0245C55.2411 27.7713 55.7489 27.6682 56.1777 27.7153C56.6086 27.7568 56.9692 27.8612 57.2595 28.0283C57.5519 28.1899 57.7828 28.327 57.952 28.4396L58.0929 28.3788L57.4751 26.9468L58.8133 26.3695L62.8138 35.6428C63.148 36.4175 63.2437 37.1234 63.1009 37.7605C62.9637 38.3999 62.6486 38.9604 62.1556 39.4423C61.6683 39.9263 61.0647 40.3236 60.3447 40.6342ZM58.1608 35.7009C58.7164 35.4612 59.1311 35.1315 59.4048 34.7117C59.6785 34.292 59.8122 33.8004 59.8058 33.2369C59.7994 32.6735 59.6528 32.0592 59.3658 31.394C59.0856 30.7445 58.7405 30.2134 58.3305 29.8009C57.9205 29.3884 57.463 29.124 56.958 29.0077C56.453 28.8914 55.9188 28.9548 55.3553 29.1978C54.7684 29.451 54.3435 29.8107 54.0805 30.2769C53.8214 30.7414 53.7021 31.2662 53.7225 31.8515C53.7468 32.435 53.8907 33.032 54.154 33.6424C54.4241 34.2684 54.7607 34.7799 55.164 35.1768C55.5695 35.568 56.025 35.8171 56.5305 35.9239C57.0383 36.025 57.5817 35.9507 58.1608 35.7009Z" fill="black"/>
<path d="M66.6489 34.6922L64.872 25.0361L66.3556 24.7631L68.1325 34.4192L66.6489 34.6922ZM65.3303 23.2879C65.0411 23.3412 64.7736 23.2886 64.5278 23.1301C64.2862 22.971 64.14 22.7531 64.0891 22.4765C64.0382 22.1998 64.0973 21.9442 64.2664 21.7094C64.4397 21.4739 64.6709 21.3295 64.9601 21.2763C65.2493 21.2231 65.5147 21.276 65.7563 21.4352C66.0021 21.5936 66.1504 21.8112 66.2013 22.0878C66.2522 22.3644 66.191 22.6204 66.0177 22.856C65.8486 23.0907 65.6195 23.2347 65.3303 23.2879Z" fill="black"/>
<path d="M78.2975 24.0638L78.2864 25.3422L73.1985 25.2981L73.2096 24.0198L78.2975 24.0638ZM74.7129 21.6804L76.2213 21.6935L76.1403 31.0511C76.1366 31.4772 76.1956 31.7973 76.3173 32.0115C76.4433 32.2214 76.604 32.3634 76.7994 32.4375C76.9991 32.5075 77.2097 32.5434 77.4313 32.5453C77.5975 32.5467 77.734 32.5394 77.8406 32.5233C77.9473 32.5029 78.0327 32.4866 78.0967 32.4744L78.3918 33.8321C78.2892 33.8695 78.1461 33.9067 77.9626 33.9434C77.779 33.9844 77.5465 34.0037 77.2653 34.0013C76.8392 33.9976 76.4224 33.9024 76.0149 33.7156C75.6117 33.5289 75.2774 33.2468 75.0122 32.8695C74.7513 32.4922 74.6233 32.0181 74.6282 31.4471L74.7129 21.6804Z" fill="black"/>
<path d="M85.4177 35.3494C84.8151 35.1947 84.2974 34.9408 83.8645 34.5877C83.4327 34.2304 83.1279 33.798 82.9502 33.2905C82.7736 32.7788 82.7648 32.2134 82.9238 31.5942C83.0636 31.0494 83.2843 30.6353 83.5859 30.352C83.8884 30.0645 84.2442 29.8698 84.6531 29.768C85.062 29.6662 85.4953 29.6235 85.9531 29.6398C86.416 29.6531 86.8757 29.6875 87.3322 29.7431C87.9291 29.8172 88.4119 29.8817 88.7805 29.9368C89.1544 29.9887 89.436 29.9884 89.6255 29.9359C89.8191 29.8844 89.9461 29.741 90.0065 29.5058L90.0192 29.4562C90.176 28.8454 90.1307 28.3278 89.8833 27.9035C89.64 27.4803 89.1819 27.1823 88.5091 27.0096C87.8116 26.8305 87.2255 26.8428 86.7508 27.0465C86.2762 27.2502 85.9139 27.5048 85.6639 27.8101L84.4042 26.9588C84.8002 26.4445 85.2459 26.0794 85.7413 25.8634C86.2419 25.6444 86.7542 25.5339 87.2782 25.5321C87.8074 25.5271 88.3114 25.5861 88.7902 25.7091C89.0957 25.7875 89.437 25.9147 89.8141 26.0907C90.1965 26.2637 90.5448 26.5093 90.859 26.8275C91.1774 27.1468 91.4027 27.5632 91.5348 28.0767C91.667 28.5902 91.6361 29.2246 91.4422 29.9799L89.8336 36.2455L88.3725 35.8704L88.7031 34.5826L88.6288 34.5635C88.4768 34.7445 88.255 34.9229 87.9634 35.0988C87.6719 35.2748 87.313 35.396 86.8867 35.4626C86.4605 35.5291 85.9708 35.4914 85.4177 35.3494ZM85.9776 34.0941C86.5555 34.2424 87.0716 34.254 87.5262 34.1287C87.9848 34.0044 88.3614 33.7887 88.6558 33.4816C88.9544 33.1755 89.1545 32.8243 89.2562 32.428L89.5996 31.0907C89.5186 31.1491 89.3649 31.1823 89.1385 31.1901C88.9173 31.1949 88.6646 31.1851 88.3806 31.1605C88.1017 31.1329 87.83 31.1028 87.5657 31.0701C87.3065 31.0344 87.0958 31.0067 86.9337 30.9871C86.5412 30.9391 86.1656 30.9285 85.8068 30.9551C85.4531 30.9787 85.1471 31.0739 84.8887 31.2408C84.6355 31.4045 84.4612 31.6722 84.3658 32.0436C84.2355 32.5513 84.3247 32.9834 84.6336 33.3399C84.9476 33.6933 85.3956 33.9447 85.9776 34.0941Z" fill="black"/>
<path d="M101.517 27.3768L95.5113 39.0088L94.1709 38.3168L100.177 26.6847L101.517 27.3768Z" fill="black"/>
<path d="M112.537 45.7053L114.762 43.9815L112.08 43.1228L112.511 41.9636L115.118 43.0515L114.513 40.2923L115.731 40.0752L116.097 42.8674L118.19 40.9866L118.977 41.9287L116.752 43.6525L119.434 44.5113L119.003 45.6705L116.396 44.5825L117 47.3417L115.783 47.5588L115.417 44.7667L113.324 46.6475L112.537 45.7053Z" fill="#FFC93E"/>
<path d="M116.442 66.1164C116.292 65.5128 116.268 64.9366 116.373 64.3878C116.481 63.838 116.716 63.3641 117.078 62.9662C117.444 62.5673 117.937 62.2903 118.557 62.1353C119.103 61.9988 119.572 61.9958 119.965 62.126C120.362 62.2552 120.702 62.4753 120.986 62.7864C121.271 63.0975 121.515 63.4582 121.718 63.8686C121.927 64.282 122.115 64.7026 122.284 65.1305C122.503 65.6907 122.676 66.146 122.803 66.4963C122.936 66.8498 123.07 67.0973 123.206 67.2389C123.344 67.3847 123.53 67.4281 123.766 67.3692L123.816 67.3568C124.427 67.2038 124.861 66.9175 125.116 66.4979C125.373 66.0825 125.417 65.5378 125.248 64.8639C125.073 64.1652 124.784 63.6557 124.378 63.3353C123.973 63.0149 123.577 62.8175 123.189 62.7431L123.338 61.23C123.979 61.3333 124.512 61.5514 124.938 61.8842C125.369 62.2201 125.71 62.6181 125.961 63.078C126.218 63.541 126.406 64.0123 126.526 64.4919C126.602 64.7978 126.653 65.1585 126.677 65.574C126.707 65.9926 126.657 66.4158 126.527 66.8437C126.398 67.2757 126.139 67.672 125.75 68.0327C125.362 68.3934 124.789 68.6683 124.033 68.8575L117.757 70.4262L117.391 68.9628L118.681 68.6403L118.662 68.5659C118.431 68.5184 118.168 68.4083 117.875 68.2357C117.581 68.0631 117.304 67.8052 117.042 67.4621C116.781 67.1189 116.581 66.6704 116.442 66.1164ZM117.813 66.011C117.958 66.5898 118.193 67.0492 118.52 67.3892C118.847 67.7334 119.216 67.9618 119.627 68.0745C120.038 68.1913 120.442 68.2001 120.839 68.1009L122.178 67.766C122.089 67.7226 121.986 67.6032 121.872 67.4079C121.762 67.2157 121.65 66.9888 121.537 66.7273C121.428 66.4689 121.325 66.2157 121.228 65.9677C121.136 65.7227 121.06 65.5243 121 65.3723C120.856 65.0044 120.686 64.669 120.492 64.3662C120.303 64.0665 120.073 63.8427 119.803 63.6949C119.539 63.5502 119.221 63.5243 118.849 63.6174C118.34 63.7445 118.003 64.0287 117.836 64.47C117.675 64.9144 117.667 65.4281 117.813 66.011Z" fill="black"/>
<path d="M114.091 78.7945C114.115 78.0662 114.229 77.4432 114.433 76.9254C114.633 76.4074 114.89 75.9787 115.204 75.6392C115.513 75.3039 115.842 75.0395 116.189 74.8461L116.993 76.0745C116.81 76.205 116.6 76.3708 116.363 76.5721C116.122 76.7732 115.911 77.052 115.729 77.4085C115.542 77.7692 115.439 78.2455 115.42 78.8375C115.395 79.6297 115.565 80.2897 115.932 80.8175C116.298 81.3452 116.891 81.6223 117.708 81.6488L119.702 81.7133L119.706 81.5855C119.531 81.469 119.314 81.3042 119.057 81.0912C118.803 80.8826 118.581 80.5855 118.388 80.1998C118.2 79.8186 118.117 79.3085 118.137 78.6696C118.163 77.8774 118.373 77.1722 118.769 76.554C119.164 75.94 119.725 75.4615 120.452 75.1183C121.18 74.7794 122.054 74.6265 123.076 74.6596C124.082 74.6921 124.951 74.8972 125.685 75.2748C126.423 75.6526 126.987 76.1632 127.375 76.8068C127.768 77.4505 127.951 78.1855 127.924 79.0118C127.903 79.6507 127.781 80.1541 127.555 80.522C127.334 80.8943 127.087 81.1762 126.812 81.3677C126.541 81.5636 126.319 81.7142 126.145 81.8194L126.14 81.9727L127.699 82.0231L127.652 83.4798L117.557 83.1532C116.714 83.1259 116.035 82.9121 115.519 82.5117C114.999 82.1154 114.626 81.5917 114.399 80.9406C114.169 80.2936 114.066 79.5782 114.091 78.7945ZM119.485 78.9179C119.466 79.5227 119.587 80.0382 119.851 80.4646C120.114 80.8909 120.502 81.2211 121.015 81.4552C121.527 81.6892 122.146 81.8179 122.87 81.8413C123.577 81.8642 124.204 81.7779 124.752 81.5825C125.3 81.387 125.734 81.0855 126.054 80.6781C126.374 80.2706 126.544 79.7602 126.564 79.1469C126.585 78.508 126.44 77.9704 126.13 77.534C125.82 77.1019 125.396 76.7705 124.857 76.5399C124.319 76.3136 123.718 76.1897 123.053 76.1682C122.372 76.1461 121.766 76.2331 121.235 76.4291C120.708 76.6295 120.289 76.9357 119.977 77.3477C119.67 77.7641 119.506 78.2875 119.485 78.9179Z" fill="black"/>
<path d="M115.509 90.6578C115.797 89.7568 116.244 89.0431 116.851 88.5169C117.461 87.9961 118.181 87.674 119.013 87.5508C119.847 87.4328 120.743 87.5271 121.701 87.8336C122.658 88.14 123.447 88.5846 124.066 89.1674C124.687 89.7555 125.103 90.4297 125.311 91.19C125.523 91.9556 125.493 92.7605 125.223 93.6047C125.067 94.0917 124.832 94.5467 124.518 94.9697C124.204 95.3926 123.802 95.7404 123.312 96.0132C122.826 96.2873 122.248 96.4445 121.577 96.485C120.906 96.5255 120.135 96.4061 119.262 96.1269L118.653 95.9322L120.959 88.7239L122.201 89.1212L120.363 94.8684C120.89 95.0372 121.395 95.0823 121.876 95.0037C122.357 94.9291 122.778 94.7374 123.141 94.4284C123.502 94.1235 123.766 93.7113 123.933 93.1918C124.116 92.6195 124.132 92.0789 123.982 91.5699C123.834 91.0664 123.571 90.6309 123.192 90.2635C122.812 89.8962 122.365 89.63 121.85 89.4651L121.022 89.2002C120.316 88.9743 119.678 88.9045 119.109 88.9909C118.543 89.0827 118.062 89.3068 117.666 89.6634C117.274 90.0212 116.985 90.4903 116.799 91.0707C116.679 91.4482 116.622 91.806 116.63 92.1441C116.641 92.4877 116.719 92.8055 116.862 93.0975C117.01 93.3909 117.227 93.6503 117.512 93.876L116.679 95.1394C116.255 94.8427 115.919 94.4647 115.672 94.0054C115.43 93.5475 115.29 93.033 115.254 92.462C115.221 91.8924 115.306 91.2909 115.509 90.6578Z" fill="black"/>
<path d="M116.697 102.4L111.779 99.1295L112.614 97.8735L120.789 103.311L119.982 104.524L118.705 103.675L118.634 103.781C118.922 104.249 119.062 104.762 119.054 105.32C119.05 105.88 118.843 106.469 118.432 107.086C118.064 107.64 117.628 108.048 117.125 108.312C116.625 108.579 116.07 108.675 115.459 108.601C114.851 108.53 114.2 108.263 113.504 107.8L108.31 104.345L109.145 103.089L114.254 106.488C114.897 106.915 115.508 107.081 116.088 106.986C116.672 106.893 117.157 106.556 117.544 105.974C117.811 105.573 117.962 105.156 117.999 104.725C118.032 104.297 117.943 103.882 117.73 103.479C117.516 103.076 117.172 102.717 116.697 102.4Z" fill="black"/>
<path d="M102.238 109.769C102.938 109.172 103.682 108.822 104.47 108.721C105.258 108.62 106.036 108.744 106.803 109.092C107.57 109.439 108.272 109.986 108.909 110.731C109.556 111.49 109.988 112.278 110.204 113.096C110.42 113.92 110.417 114.711 110.194 115.467C109.971 116.229 109.522 116.898 108.848 117.473C108.323 117.921 107.766 118.228 107.179 118.393C106.592 118.558 106.014 118.581 105.446 118.46C104.878 118.34 104.363 118.074 103.9 117.663L105.047 116.683C105.425 116.949 105.877 117.084 106.402 117.09C106.927 117.101 107.443 116.891 107.948 116.459C108.396 116.077 108.688 115.626 108.826 115.105C108.964 114.59 108.946 114.041 108.775 113.459C108.603 112.884 108.276 112.314 107.794 111.75C107.302 111.173 106.782 110.748 106.236 110.475C105.686 110.205 105.143 110.094 104.607 110.142C104.068 110.193 103.572 110.413 103.118 110.8C102.82 111.054 102.593 111.337 102.439 111.649C102.284 111.96 102.206 112.285 102.203 112.623C102.201 112.961 102.28 113.297 102.441 113.63L101.294 114.609C100.982 114.113 100.804 113.579 100.758 113.007C100.712 112.442 100.81 111.877 101.051 111.312C101.291 110.754 101.687 110.24 102.238 109.769Z" fill="black"/>
<path d="M93.4644 111.519C93.6969 111.412 93.913 111.337 94.1129 111.292C94.311 111.244 94.4529 111.221 94.5386 111.224L94.7432 112.593C94.371 112.66 94.0623 112.764 93.8172 112.904C93.5721 113.044 93.3977 113.262 93.2941 113.558C93.1849 113.852 93.1507 114.263 93.1916 114.793L93.2551 115.608L100.664 123.07L99.1761 123.751L93.4555 117.765L93.3625 117.808L94.1544 126.05L92.6665 126.731L91.7738 114.767C91.7332 114.228 91.7697 113.75 91.8832 113.332C91.9949 112.911 92.1837 112.55 92.4496 112.25C92.7115 111.952 93.0498 111.709 93.4644 111.519Z" fill="black"/>
<path d="M67.5001 85C67.2791 85 67.0671 84.9122 66.9108 84.7559C66.7545 84.5996 66.6667 84.3877 66.6667 84.1666V65.8333C66.6668 65.6885 66.7045 65.5462 66.7763 65.4204C66.8481 65.2947 66.9514 65.1898 67.076 65.1161C67.2007 65.0424 67.3424 65.0025 67.4872 65.0002C67.632 64.998 67.7749 65.0335 67.9017 65.1033L84.5684 74.27C84.6991 74.3419 84.808 74.4476 84.8839 74.576C84.9598 74.7044 84.9998 74.8508 84.9998 75C84.9998 75.1491 84.9598 75.2955 84.8839 75.424C84.808 75.5524 84.6991 75.658 84.5684 75.73L67.9017 84.8966C67.7787 84.9644 67.6405 84.9999 67.5001 85Z" fill="#FFC93E"/>
<defs>
<filter id="filter0_b_22_1768" x="-50" y="-50" width="250" height="250" filterUnits="userSpaceOnUse" color-interpolation-filters="sRGB">
<feFlood flood-opacity="0" result="BackgroundImageFix"/>
<feGaussianBlur in="BackgroundImage" stdDeviation="25"/>
<feComposite in2="SourceAlpha" operator="in" result="effect1_backgroundBlur_22_1768"/>
<feBlend mode="normal" in="SourceGraphic" in2="effect1_backgroundBlur_22_1768" result="shape"/>
</filter>
</defs>
</svg>
