<svg width="63" height="62" viewBox="0 0 63 62" fill="none" xmlns="http://www.w3.org/2000/svg">
<path d="M31.5 62C48.6208 62 62.5 48.1208 62.5 31C62.5 13.8792 48.6208 0 31.5 0C14.3792 0 0.5 13.8792 0.5 31C0.5 48.1208 14.3792 62 31.5 62Z" fill="#12C64B"/>
<path d="M42.6988 42.4594C42.4532 42.879 42.0512 43.1841 41.581 43.3076C41.1107 43.4311 40.6107 43.363 40.1906 43.1182C35.368 40.3 29.7986 39.8491 25.9729 39.9477C23.4878 40.0113 21.0164 40.3372 18.5998 40.92C18.1499 40.9996 17.6865 40.9086 17.3001 40.6646C16.9138 40.4207 16.6323 40.0415 16.5107 39.601C16.3892 39.1606 16.4363 38.6906 16.6428 38.2831C16.8493 37.8755 17.2005 37.5597 17.6275 37.3972C20.2899 36.7355 23.0157 36.3623 25.758 36.2841C28.3824 36.1872 31.0095 36.3774 33.5925 36.8512C36.5663 37.3895 39.4258 38.4332 42.0471 39.9371C42.2565 40.059 42.4397 40.2212 42.586 40.4143C42.7323 40.6074 42.8389 40.8276 42.8995 41.0622C42.9601 41.2968 42.9736 41.5411 42.9391 41.7809C42.9047 42.0207 42.823 42.2514 42.6988 42.4594Z" fill="white"/>
<path d="M46.1088 35.3753C45.9176 35.7036 45.6435 35.976 45.314 36.1652C44.9845 36.3543 44.6111 36.4537 44.2312 36.4532C43.8457 36.4538 43.4672 36.3504 43.1356 36.1538C37.4253 32.8178 30.8307 32.2788 26.297 32.4197C23.3535 32.4941 20.4262 32.8803 17.5641 33.5717C17.0166 33.7005 16.4405 33.6122 15.9568 33.3251C15.4731 33.038 15.1195 32.5746 14.9704 32.0323C14.8212 31.49 14.8881 30.911 15.157 30.4169C15.4259 29.9229 15.8758 29.5523 16.4122 29.3831C19.5662 28.6026 22.7954 28.1656 26.0433 28.0797C29.1528 27.96 32.266 28.1857 35.3257 28.7526C38.8451 29.3906 42.229 30.6274 45.3303 32.4091C45.8258 32.7002 46.1859 33.1757 46.3318 33.7315C46.4777 34.2874 46.3975 34.8784 46.1088 35.3753Z" fill="white"/>
<path d="M50.5227 27.6147C50.3465 27.9173 50.1123 28.1821 49.8335 28.394C49.5547 28.6059 49.2368 28.7606 48.898 28.8493C48.5593 28.938 48.2063 28.9589 47.8595 28.9109C47.5126 28.8628 47.1786 28.7468 46.8767 28.5693C33.3001 20.6362 15.69 25.3531 15.5245 25.3989C15.1822 25.5073 14.8216 25.5455 14.4643 25.5112C14.1069 25.4769 13.7602 25.3707 13.4449 25.1992C13.1295 25.0276 12.852 24.7942 12.6291 24.5128C12.4062 24.2315 12.2423 23.908 12.1474 23.5618C12.0525 23.2155 12.0284 22.8537 12.0767 22.498C12.125 22.1423 12.2446 21.8 12.4284 21.4916C12.6121 21.1832 12.8563 20.9151 13.1462 20.7033C13.436 20.4916 13.7657 20.3405 14.1154 20.2592C17.9747 19.308 21.9254 18.7754 25.8989 18.6705C29.7116 18.5284 33.5284 18.8048 37.2808 19.4948C41.5962 20.2707 45.7471 21.7791 49.554 23.9546C49.859 24.1303 50.1261 24.3646 50.3401 24.6441C50.5541 24.9236 50.7106 25.2426 50.8006 25.5829C50.8907 25.9231 50.9125 26.2778 50.8648 26.6266C50.8171 26.9753 50.7009 27.3111 50.5227 27.6147Z" fill="white"/>
</svg>
