<svg width="295" height="292" viewBox="0 0 295 292" fill="none" xmlns="http://www.w3.org/2000/svg">
<ellipse cx="153.901" cy="140.726" rx="140.767" ry="140.726" fill="white"/>
<path d="M280.201 151.112C280.201 227.728 218.074 289.838 141.434 289.838C64.7949 289.838 2.66748 227.728 2.66748 151.112C2.66748 74.4962 64.7949 12.3859 141.434 12.3859C218.074 12.3859 280.201 74.4962 280.201 151.112Z" stroke="#BF2A89" stroke-width="4"/>
<path fill-rule="evenodd" clip-rule="evenodd" d="M155.337 87.6039C162.677 87.6039 162.678 78.1041 155.337 78.1041C148 78.1041 148 87.6039 155.337 87.6039Z" fill="#FE6F69"/>
<path fill-rule="evenodd" clip-rule="evenodd" d="M122.587 93.5579C129.926 93.5579 129.929 84.0601 122.587 84.0601C115.246 84.0601 115.247 93.5579 122.587 93.5579Z" fill="#FE6F69"/>
<path fill-rule="evenodd" clip-rule="evenodd" d="M131.906 63.1856L160.906 55.2768V50.7721L131.906 58.6809V63.1856Z" fill="#FFCB5B"/>
<path fill-rule="evenodd" clip-rule="evenodd" d="M214.478 151.454L185.479 159.361V163.867L214.478 155.959V151.454Z" fill="#FE6F69"/>
<path fill-rule="evenodd" clip-rule="evenodd" d="M208.908 178.787C201.57 178.787 201.57 188.284 208.908 188.284C216.248 188.284 216.248 178.787 208.908 178.787Z" fill="#FFCB5B"/>
<path fill-rule="evenodd" clip-rule="evenodd" d="M176.156 194.238C183.493 194.238 183.5 184.741 176.156 184.741C168.817 184.741 168.819 194.238 176.156 194.238Z" fill="#FFCB5B"/>
<path fill-rule="evenodd" clip-rule="evenodd" d="M145.921 166.839L155.845 156.913L153.291 154.36C153.245 154.318 153.2 154.273 153.157 154.226L134.336 135.402L124.412 145.328L145.922 166.839H145.921Z" fill="#FE6F69"/>
<path fill-rule="evenodd" clip-rule="evenodd" d="M140.908 136.671L154.577 150.34L158.41 146.727C151.887 144.168 147.042 138.937 144.602 132.753L140.908 136.671Z" fill="#CED07D"/>
<path fill-rule="evenodd" clip-rule="evenodd" d="M152.711 138.536C155.488 141.312 158.685 143.085 162.002 143.979C162.295 143.977 162.579 144.052 162.836 144.184C167.997 145.34 173.383 144.415 177.873 141.87L149.39 113.386C146.846 117.873 145.915 123.253 147.068 128.412C147.2 128.668 147.274 128.952 147.272 129.244C148.163 132.559 149.933 135.756 152.711 138.535V138.536Z" fill="#0E9AA7"/>
<path fill-rule="evenodd" clip-rule="evenodd" d="M151.557 110.249L181.012 139.703C181.891 138.971 182.713 138.164 183.467 137.291L153.969 107.792C153.096 108.546 152.29 109.369 151.558 110.249H151.557Z" fill="#CED07D"/>
<path fill-rule="evenodd" clip-rule="evenodd" d="M157.067 105.587L185.669 134.188C187.389 131.208 188.4 127.689 188.4 123.754C188.4 112.202 179.047 102.849 167.495 102.849C163.567 102.849 160.047 103.863 157.067 105.588V105.587ZM170.454 109.33C170.454 108.295 171.294 107.455 172.329 107.455C173.364 107.455 174.204 108.295 174.204 109.33C174.204 110.365 173.364 111.205 172.329 111.205C171.294 111.205 170.454 110.365 170.454 109.33ZM177.601 110.728C176.565 110.728 175.726 109.888 175.726 108.853C175.726 107.818 176.565 106.978 177.601 106.978C178.636 106.978 179.476 107.818 179.476 108.853C179.476 109.888 178.637 110.728 177.601 110.728ZM180.521 113.649C180.521 112.614 181.361 111.774 182.396 111.774C183.431 111.774 184.271 112.614 184.271 113.649C184.271 114.684 183.431 115.524 182.396 115.524C181.361 115.524 180.521 114.684 180.521 113.649ZM175.25 114.126C175.25 113.09 176.089 112.251 177.125 112.251C178.16 112.251 179 113.09 179 114.126C179 115.161 178.161 116.001 177.125 116.001C176.089 116.001 175.25 115.161 175.25 114.126ZM181.92 117.046C182.955 117.046 183.795 117.886 183.795 118.921C183.795 119.957 182.956 120.796 181.92 120.796C180.884 120.796 180.045 119.957 180.045 118.921C180.045 117.886 180.884 117.046 181.92 117.046ZM166.672 108.318C167.708 108.318 168.547 109.157 168.547 110.193C168.547 111.228 167.708 112.068 166.672 112.068C165.637 112.068 164.797 111.228 164.797 110.193C164.797 109.157 165.636 108.318 166.672 108.318ZM171.467 113.114C172.502 113.114 173.34 113.952 173.34 114.987C173.34 116.022 172.502 116.861 171.467 116.861C170.432 116.861 169.594 116.022 169.594 114.987C169.594 113.952 170.432 113.114 171.467 113.114ZM176.262 117.909C177.297 117.909 178.137 118.749 178.137 119.784C178.137 120.819 177.297 121.659 176.262 121.659C175.227 121.659 174.387 120.819 174.387 119.784C174.387 118.749 175.227 117.909 176.262 117.909ZM181.058 122.704C182.093 122.704 182.933 123.544 182.933 124.579C182.933 125.614 182.094 126.454 181.058 126.454C180.022 126.454 179.183 125.614 179.183 124.579C179.183 123.544 180.022 122.704 181.058 122.704Z" fill="#0E9AA7"/>
<path fill-rule="evenodd" clip-rule="evenodd" d="M138.828 165.047L126.201 152.421L103.125 176.745L112.55 186.17C112.568 186.187 112.586 186.205 112.604 186.223C112.618 186.237 112.632 186.252 112.646 186.266L114.503 188.123L138.828 165.047ZM130.435 168.037L121.408 177.064C121.054 177.414 120.576 177.613 120.08 177.613C118.708 177.613 115.857 174.164 114.186 172.493C113.453 171.76 113.453 170.573 114.186 169.841L123.213 160.814C123.917 160.112 125.162 160.112 125.865 160.814C127.531 162.478 130.984 165.338 130.984 166.71C130.984 167.208 130.787 167.685 130.435 168.037V168.037Z" fill="#FFCB5B"/>
<path fill-rule="evenodd" clip-rule="evenodd" d="M126.455 166.712L124.538 164.793L122.677 166.653L124.596 168.572L126.455 166.712Z" fill="#FE6F69"/>
<path fill-rule="evenodd" clip-rule="evenodd" d="M121.882 171.285C121.247 170.671 120.597 169.98 119.994 169.336L118.163 171.167L120.081 173.086L121.883 171.285L121.882 171.285Z" fill="#CED07D"/>
<path fill-rule="evenodd" clip-rule="evenodd" d="M108.553 187.474L103.7 182.622L100.833 185.489L105.761 190.416C106.744 189.432 107.676 188.354 108.554 187.474H108.553Z" fill="#CED07D"/>
<path fill-rule="evenodd" clip-rule="evenodd" d="M131.593 92.2454C130.558 92.2454 129.718 91.4054 129.718 90.3704V58.8103C129.718 57.9647 130.284 57.2241 131.099 57.0019L163.849 48.0712C165.038 47.7459 166.218 48.6478 166.218 49.8806V84.4173C166.218 86.8857 162.468 86.8857 162.468 84.4173V52.335L133.468 60.2438V90.3723C133.466 91.4073 132.628 92.2454 131.592 92.2454H131.593Z" fill="#333333"/>
<path fill-rule="evenodd" clip-rule="evenodd" d="M156.899 92.9158C151.762 92.9158 147.581 89.1029 147.581 84.4164C147.581 79.7288 151.761 75.916 156.899 75.916C162.036 75.916 166.218 79.7288 166.218 84.4164C166.218 89.1039 162.038 92.9158 156.899 92.9158V92.9158ZM156.899 79.666C149.561 79.666 149.561 89.1658 156.899 89.1658C164.239 89.1658 164.24 79.666 156.899 79.666Z" fill="#333333"/>
<path fill-rule="evenodd" clip-rule="evenodd" d="M124.15 98.8698C119.013 98.8698 114.832 95.057 114.832 90.3694C114.832 85.6838 119.011 81.871 124.15 81.871C129.288 81.871 133.468 85.6838 133.468 90.3694C133.467 95.057 129.288 98.8698 124.15 98.8698V98.8698ZM124.15 85.6219C116.809 85.6219 116.81 95.1198 124.15 95.1198C131.489 95.1198 131.492 85.6219 124.15 85.6219Z" fill="#333333"/>
<path fill-rule="evenodd" clip-rule="evenodd" d="M131.591 69.0788C129.429 69.0788 129 65.9663 131.099 65.3944L163.849 56.4619C166.227 55.8094 167.221 59.4291 164.836 60.0788L131.591 69.0788Z" fill="#333333"/>
<path fill-rule="evenodd" clip-rule="evenodd" d="M156.099 156.392C154.417 156.392 153.574 154.32 154.813 153.152L162.322 146.073C164.121 144.382 166.692 147.108 164.895 148.802L157.386 155.881C157.024 156.221 156.561 156.391 156.1 156.391L156.099 156.392Z" fill="#333333"/>
<path fill-rule="evenodd" clip-rule="evenodd" d="M139.856 140.148C138.234 140.148 137.36 138.188 138.493 136.985L145.572 129.476C147.266 127.682 149.993 130.252 148.301 132.048L141.222 139.557C140.852 139.95 140.355 140.148 139.856 140.148Z" fill="#333333"/>
<path fill-rule="evenodd" clip-rule="evenodd" d="M116.032 194.177C115.552 194.177 115.072 193.993 114.707 193.628L100.746 179.668C100.027 178.949 100.012 177.789 100.712 177.05L126.37 150.004C128.068 148.212 130.79 150.793 129.092 152.585L104.689 178.308L116.066 189.686L141.788 165.285C143.578 163.588 146.162 166.306 144.369 168.007L117.323 193.664C116.96 194.007 116.497 194.178 116.033 194.178L116.032 194.177Z" fill="#333333"/>
<path fill-rule="evenodd" clip-rule="evenodd" d="M169.058 149.97C147.219 149.97 136.118 123.386 151.622 107.882C167.112 92.3908 193.713 103.404 193.713 125.315C193.713 138.942 182.685 149.97 169.057 149.97H169.058ZM169.058 104.411C150.545 104.411 141.125 126.945 154.274 140.099C167.408 153.235 189.963 143.896 189.963 125.317C189.963 113.765 180.609 104.411 169.058 104.411V104.411Z" fill="#333333"/>
<path fill-rule="evenodd" clip-rule="evenodd" d="M182.421 145.643C181.942 145.643 181.461 145.459 181.095 145.093L149.281 113.277C147.533 111.532 150.189 108.88 151.934 110.626L183.749 142.44C184.937 143.628 184.075 145.643 182.422 145.643H182.421ZM187.508 140.557C187.029 140.557 186.548 140.373 186.182 140.007L154.367 108.191C152.619 106.445 155.275 103.793 157.019 105.539L188.836 137.354C190.023 138.541 189.163 140.556 187.508 140.556V140.557Z" fill="#333333"/>
<path fill-rule="evenodd" clip-rule="evenodd" d="M147.485 172.927C146.987 172.927 146.51 172.729 146.158 172.378L121.997 148.216C121.263 147.483 121.263 146.295 121.997 145.563L134.573 132.987C135.276 132.284 136.521 132.284 137.224 132.987L161.387 157.149C162.12 157.882 162.12 159.07 161.387 159.801L148.812 172.378C148.46 172.729 147.982 172.927 147.485 172.927H147.485ZM125.974 146.89L147.485 168.401L157.409 158.475L135.899 136.964L125.974 146.89Z" fill="#333333"/>
<path fill-rule="evenodd" clip-rule="evenodd" d="M107.322 196.504C106.842 196.504 106.362 196.32 105.997 195.955L98.4195 188.377C97.6863 187.644 97.6863 186.457 98.4195 185.725L103.938 180.207C105.686 178.458 108.334 181.116 106.589 182.859L102.396 187.051L107.324 191.979C110.005 189.298 112.298 185.912 114.168 187.785C114.9 188.519 114.901 189.705 114.168 190.438C112.37 192.233 108.744 196.505 107.324 196.505L107.322 196.504Z" fill="#333333"/>
<path fill-rule="evenodd" clip-rule="evenodd" d="M79.5925 207.996C74.9068 207.996 71.723 205.043 70.2202 199.717C66.3127 185.871 79.1096 167.921 91.4856 150.562C104.905 131.741 117.579 113.962 106.321 105.399C98.8169 99.6911 90.0728 99.633 80.3331 105.227C73.6721 109.052 69.2659 114.993 67.2362 122.884C66.6212 125.274 62.9893 124.342 63.6052 121.95C65.8955 113.043 70.8952 106.322 78.4665 101.975C89.4803 95.6495 99.8997 95.8014 108.592 102.415C134.325 121.988 66.3202 172.094 73.8296 198.698C74.7127 201.826 76.1443 203.591 78.2068 204.092C85.1425 205.774 97.8494 194.175 102.162 189.561C103.848 187.76 106.586 190.32 104.901 192.122C103.286 193.848 89.7578 207.997 79.5925 207.997V207.996Z" fill="#333333"/>
<path fill-rule="evenodd" clip-rule="evenodd" d="M121.643 179.176C120.271 179.176 117.42 175.726 115.749 174.056C115.016 173.323 115.016 172.136 115.749 171.404L124.776 162.376C125.479 161.675 126.724 161.675 127.428 162.376C129.093 164.04 132.547 166.901 132.547 168.273C132.547 168.771 132.349 169.247 131.998 169.6L122.971 178.627C122.617 178.977 122.139 179.176 121.643 179.176V179.176ZM119.725 172.73L121.643 174.649L128.018 168.274L126.1 166.355L119.725 172.73Z" fill="#333333"/>
<path fill-rule="evenodd" clip-rule="evenodd" d="M126.156 174.66C124.785 174.66 121.931 171.21 120.262 169.543C118.516 167.796 121.169 165.143 122.914 166.889L127.482 171.459C128.668 172.645 127.81 174.66 126.156 174.66V174.66Z" fill="#333333"/>
<path d="M173.029 118.422C174.063 118.422 174.902 117.584 174.902 116.549C174.902 115.515 174.063 114.676 173.029 114.676C171.994 114.676 171.156 115.515 171.156 116.549C171.156 117.584 171.994 118.422 173.029 118.422Z" fill="#333333"/>
<path d="M177.824 123.22C178.86 123.22 179.699 122.38 179.699 121.345C179.699 120.309 178.86 119.47 177.824 119.47C176.789 119.47 175.949 120.309 175.949 121.345C175.949 122.38 176.789 123.22 177.824 123.22Z" fill="#333333"/>
<path d="M168.233 113.629C169.269 113.629 170.108 112.789 170.108 111.754C170.108 110.718 169.269 109.879 168.233 109.879C167.198 109.879 166.358 110.718 166.358 111.754C166.358 112.789 167.198 113.629 168.233 113.629Z" fill="#333333"/>
<path d="M182.62 128.015C183.655 128.015 184.495 127.175 184.495 126.14C184.495 125.104 183.655 124.265 182.62 124.265C181.584 124.265 180.745 125.104 180.745 126.14C180.745 127.175 181.584 128.015 182.62 128.015Z" fill="#333333"/>
<path d="M173.891 112.767C174.927 112.767 175.766 111.928 175.766 110.892C175.766 109.857 174.927 109.017 173.891 109.017C172.856 109.017 172.016 109.857 172.016 110.892C172.016 111.928 172.856 112.767 173.891 112.767Z" fill="#333333"/>
<path d="M178.687 117.563C179.722 117.563 180.562 116.723 180.562 115.688C180.562 114.652 179.722 113.813 178.687 113.813C177.651 113.813 176.812 114.652 176.812 115.688C176.812 116.723 177.651 117.563 178.687 117.563Z" fill="#333333"/>
<path d="M183.482 122.358C184.517 122.358 185.357 121.519 185.357 120.483C185.357 119.448 184.517 118.608 183.482 118.608C182.446 118.608 181.607 119.448 181.607 120.483C181.607 121.519 182.446 122.358 183.482 122.358Z" fill="#333333"/>
<path d="M179.163 112.29C180.199 112.29 181.038 111.451 181.038 110.415C181.038 109.38 180.199 108.54 179.163 108.54C178.128 108.54 177.288 109.38 177.288 110.415C177.288 111.451 178.128 112.29 179.163 112.29Z" fill="#333333"/>
<path d="M183.958 117.086C184.994 117.086 185.833 116.246 185.833 115.211C185.833 114.175 184.994 113.336 183.958 113.336C182.922 113.336 182.083 114.175 182.083 115.211C182.083 116.246 182.922 117.086 183.958 117.086Z" fill="#333333"/>
<path fill-rule="evenodd" clip-rule="evenodd" d="M185.163 192.928C184.128 192.928 183.288 192.087 183.288 191.053V159.494C183.288 158.649 183.856 157.906 184.671 157.683L217.422 148.753C218.61 148.431 219.79 149.326 219.79 150.562V185.099C219.79 187.567 216.04 187.566 216.04 185.099V153.016L187.041 160.923V191.052C187.039 192.087 186.198 192.927 185.163 192.927V192.928Z" fill="#333333"/>
<path fill-rule="evenodd" clip-rule="evenodd" d="M210.471 193.6C205.334 193.6 201.153 189.786 201.153 185.1C201.153 180.414 205.333 176.6 210.471 176.6C215.608 176.6 219.789 180.414 219.789 185.1C219.789 189.785 215.609 193.6 210.471 193.6ZM210.471 180.35C203.133 180.35 203.133 189.847 210.471 189.847C217.81 189.847 217.81 180.35 210.471 180.35Z" fill="#333333"/>
<path fill-rule="evenodd" clip-rule="evenodd" d="M177.718 199.553C172.582 199.553 168.4 195.738 168.4 191.052C168.4 186.366 172.581 182.553 177.718 182.553C182.856 182.553 187.037 186.367 187.037 191.052C187.039 195.738 182.858 199.553 177.718 199.553ZM177.718 186.303C170.379 186.303 170.381 195.8 177.718 195.8C185.055 195.8 185.062 186.303 177.718 186.303Z" fill="#333333"/>
<path fill-rule="evenodd" clip-rule="evenodd" d="M185.161 169.761C182.998 169.761 182.567 166.649 184.669 166.076L217.419 157.145C219.798 156.495 220.792 160.114 218.406 160.765L185.161 169.762V169.761Z" fill="#333333"/>
</svg>
