<svg width="356" height="340" viewBox="0 0 356 340" fill="none" xmlns="http://www.w3.org/2000/svg">
<ellipse cx="167.509" cy="172.394" rx="167.009" ry="167.026" fill="white"/>
<path d="M352.5 167.445C352.5 258.034 279.07 331.471 188.491 331.471C97.9116 331.471 24.4819 258.034 24.4819 167.445C24.4819 76.8558 97.9116 3.41919 188.491 3.41919C279.07 3.41919 352.5 76.8558 352.5 167.445Z" stroke="#0F33E1" stroke-width="6"/>
<g clip-path="url(#clip0_643_299)">
<path d="M229.361 169.688C228.16 170.402 226.931 171.087 225.67 171.738C225.168 171.997 224.567 171.997 224.065 171.738C208.197 163.544 196.796 150.325 194.401 132.398C185.144 127.945 174.768 125.45 163.81 125.45C124.783 125.45 93.1455 157.088 93.1455 196.115C93.1455 205.636 95.033 214.715 98.4471 223.004L105.827 215.624C106.817 214.634 108.422 214.634 109.412 215.624L148.846 255.059C149.836 256.049 149.836 257.654 148.846 258.644L143.638 263.852C150.03 265.753 156.799 266.779 163.81 266.779C170.82 266.779 177.589 265.753 183.982 263.852L178.773 258.644C177.783 257.654 177.783 256.049 178.773 255.059L218.207 215.624C219.197 214.634 220.802 214.634 221.792 215.624L229.172 223.004C232.586 214.715 234.473 205.636 234.473 196.115C234.474 186.77 232.656 177.852 229.361 169.688Z" fill="#D8ECFE"/>
<path d="M105.827 215.624C106.817 214.634 108.422 214.634 109.412 215.624L110.442 216.655C108.47 210.154 107.405 203.259 107.405 196.115C107.405 159.495 135.261 129.382 170.94 125.807C168.595 125.572 166.216 125.45 163.81 125.45C124.783 125.45 93.1455 157.088 93.1455 196.115C93.1455 205.636 95.033 214.715 98.4471 223.004L105.827 215.624Z" fill="#C4E2FF"/>
<path d="M215.295 218.538L207.126 210.369L195.863 221.632C191.92 225.574 186.678 227.746 181.103 227.746C181.102 227.746 181.103 227.746 181.102 227.746C180.846 227.746 180.588 227.741 180.33 227.732L175.312 227.547C175.05 227.537 174.789 227.532 174.527 227.532C170.688 227.532 167.006 228.548 163.783 230.446L183.584 250.248L215.295 218.538Z" fill="#FFE5C2"/>
<path d="M194.53 239.302L183.052 227.824C182.15 227.908 181.24 227.941 180.323 227.907L175.305 227.722C171.277 227.573 167.332 228.584 163.915 230.578L183.584 250.248L194.53 239.302Z" fill="#FED2A4"/>
<path d="M192.67 272.54L178.773 258.643C177.783 257.653 177.783 256.049 178.773 255.059L218.208 215.624C219.198 214.634 220.803 214.634 221.793 215.624L235.689 229.521C236.679 230.511 236.679 232.116 235.689 233.106L196.255 272.54C195.265 273.53 193.659 273.53 192.67 272.54Z" fill="#FE646F"/>
<path d="M193.536 258.643C192.546 257.653 192.546 256.049 193.536 255.059L227.381 221.213L221.792 215.624C220.802 214.634 219.197 214.634 218.207 215.624L178.773 255.059C177.783 256.049 177.783 257.653 178.773 258.643L192.67 272.54C193.66 273.53 195.265 273.53 196.255 272.54L201.844 266.951L193.536 258.643Z" fill="#FD4755"/>
<path d="M220.012 187.36C217.064 184.209 212.119 184.147 209.092 187.173C212.057 184.208 212.057 179.4 209.092 176.435C206.127 173.469 201.319 173.469 198.353 176.435C201.319 173.469 201.318 168.661 198.353 165.696C195.388 162.73 190.58 162.73 187.614 165.695C190.579 162.73 190.579 157.922 187.614 154.956C184.649 151.991 179.841 151.991 176.875 154.956L112.81 219.022L143.652 249.864L159.642 233.873C163.781 229.735 169.456 227.506 175.306 227.722L180.324 227.907C186.173 228.124 191.849 225.895 195.988 221.756L219.691 198.053C222.609 195.135 222.831 190.374 220.012 187.36Z" fill="#D88A55"/>
<path d="M136.635 213.433L189.834 160.235C189.811 158.322 189.073 156.416 187.614 154.956C184.649 151.991 179.841 151.991 176.875 154.956L112.81 219.022L143.652 249.864L153.387 240.128L136.636 223.377C133.889 220.631 133.889 216.179 136.635 213.433Z" fill="#C57A44"/>
<path d="M166.594 165.238L166.56 165.271H160.331C155.19 165.271 151.023 161.104 151.023 155.963V154.239C151.023 153.239 151.377 152.323 151.964 151.606C149.272 150.617 146.135 151.195 143.974 153.357C141.009 156.322 141.009 161.13 143.974 164.095L161.404 181.525C164.305 184.426 169.037 184.701 172.063 181.931C175.274 178.991 175.357 174.001 172.311 170.955L166.594 165.238Z" fill="#FFE5C2"/>
<path d="M168.544 177.992L151.114 160.562C148.563 158.011 148.213 154.099 150.051 151.167C147.879 150.965 145.637 151.694 143.974 153.357C141.009 156.322 141.009 161.13 143.974 164.096L161.404 181.525C164.305 184.426 169.037 184.701 172.063 181.931C172.605 181.435 173.05 180.877 173.414 180.284C171.632 180.111 169.89 179.338 168.544 177.992Z" fill="#FED2A4"/>
<path d="M143.974 164.096C141.008 161.13 136.2 161.13 133.235 164.096C130.269 167.061 130.269 171.869 133.235 174.835L152.822 194.422C155.755 197.355 160.498 197.392 163.477 194.506C166.521 191.555 166.56 186.682 163.561 183.684L143.974 164.096Z" fill="#FFE5C2"/>
<path d="M160.184 190.727L140.597 171.139C138.096 168.639 137.713 164.832 139.429 161.921C137.22 161.681 134.928 162.403 133.235 164.096C130.269 167.061 130.269 171.869 133.235 174.835L152.822 194.422C155.755 197.355 160.498 197.392 163.477 194.506C163.978 194.02 164.39 193.478 164.729 192.904C163.068 192.723 161.456 191.998 160.184 190.727Z" fill="#FED2A4"/>
<path d="M133.235 174.835C130.27 171.869 125.462 171.869 122.496 174.835C119.531 177.8 119.531 182.608 122.496 185.574L138.578 201.656C141.51 204.588 146.253 204.626 149.232 201.739C152.277 198.788 152.315 193.915 149.316 190.917L133.235 174.835Z" fill="#FFE5C2"/>
<path d="M145.771 198.109L129.689 182.027C127.142 179.481 126.789 175.579 128.616 172.648C126.43 172.432 124.17 173.161 122.496 174.834C119.531 177.8 119.531 182.608 122.496 185.574L138.578 201.655C141.51 204.588 146.253 204.625 149.232 201.739C149.687 201.298 150.067 200.809 150.388 200.295C148.701 200.128 147.06 199.399 145.771 198.109Z" fill="#FED2A4"/>
<path d="M125.783 188.86C122.817 185.895 118.009 185.895 115.044 188.86C112.078 191.826 112.078 196.634 115.044 199.599L123.608 208.164C126.541 211.096 131.284 211.134 134.262 208.247C137.308 205.296 137.346 200.423 134.347 197.425L125.783 188.86Z" fill="#FFE5C2"/>
<path d="M130.85 204.634L122.286 196.07C119.737 193.521 119.385 189.613 121.218 186.682C119.016 186.449 116.732 187.173 115.043 188.86C112.078 191.826 112.078 196.634 115.043 199.599L123.608 208.164C126.541 211.096 131.283 211.134 134.262 208.247C134.714 207.809 135.092 207.325 135.411 206.814C133.744 206.636 132.126 205.91 130.85 204.634Z" fill="#FED2A4"/>
<path d="M168.737 150.084H155.178C152.883 150.084 151.023 151.944 151.023 154.239V155.963C151.023 161.104 155.19 165.271 160.331 165.271H166.56L176.081 155.751C175.228 152.495 172.269 150.084 168.737 150.084Z" fill="#FFE5C2"/>
<path d="M148.846 258.644L134.95 272.54C133.96 273.53 132.355 273.53 131.365 272.54L91.9305 233.106C90.9405 232.116 90.9405 230.511 91.9305 229.521L105.827 215.625C106.817 214.635 108.422 214.635 109.412 215.625L148.846 255.059C149.836 256.049 149.836 257.654 148.846 258.644Z" fill="#97D729"/>
<path d="M106.39 233.106C105.4 232.116 105.4 230.511 106.39 229.521L114.849 221.061L109.412 215.624C108.422 214.634 106.817 214.634 105.827 215.624L91.9305 229.521C90.9405 230.511 90.9405 232.116 91.9305 233.106L131.365 272.54C132.355 273.53 133.96 273.53 134.95 272.54L140.387 267.103L106.39 233.106Z" fill="#8BC727"/>
<path d="M224.868 98.5559C215.692 98.5559 207.036 107.717 199.394 105.225C198.5 104.933 197.534 105.432 197.216 106.317C195.09 112.23 193.926 118.602 193.926 125.248C193.926 146.845 206.156 162.489 224.065 171.738C224.567 171.998 225.169 171.998 225.671 171.738C243.58 162.489 255.81 146.845 255.81 125.248C255.81 118.602 254.646 112.23 252.52 106.317C252.202 105.432 251.236 104.933 250.342 105.225C242.7 107.717 234.044 98.5559 224.868 98.5559Z" fill="#FED402"/>
<path d="M217.56 148.319C211.126 145.501 206.629 139.081 206.629 131.608C206.629 128.3 207.514 125.201 209.054 122.526C209.02 121.742 208.998 120.952 208.998 120.151C208.998 114.064 209.976 108.208 211.774 102.723C207.428 104.745 203.28 106.492 199.394 105.225C198.5 104.933 197.534 105.432 197.216 106.317C195.089 112.23 193.926 118.602 193.926 125.248C193.926 146.845 206.155 162.489 224.065 171.738C224.567 171.997 225.168 171.997 225.67 171.738C229.452 169.786 232.976 167.544 236.189 165.025C228.638 160.665 222.247 155.083 217.56 148.319Z" fill="#FAC600"/>
<path d="M224.868 149.846C234.941 149.846 243.106 141.681 243.106 131.608C243.106 121.535 234.941 113.37 224.868 113.37C214.795 113.37 206.629 121.535 206.629 131.608C206.629 141.681 214.795 149.846 224.868 149.846Z" fill="#97D729"/>
<path d="M219.554 131.608C219.554 123.811 224.448 117.161 231.33 114.552C229.321 113.79 227.144 113.37 224.868 113.37C214.796 113.37 206.63 121.535 206.63 131.608C206.63 141.681 214.796 149.846 224.868 149.846C227.144 149.846 229.321 149.426 231.33 148.664C224.448 146.055 219.554 139.405 219.554 131.608Z" fill="#8BC727"/>
<path d="M258.446 125.248C258.446 118.452 257.287 111.783 255.001 105.424C254.203 103.208 251.747 101.992 249.525 102.718C246.367 103.748 242.395 101.889 238.191 99.9203C234.187 98.0447 229.648 95.9192 224.868 95.9192C220.089 95.9192 215.55 98.0447 211.545 99.92C207.341 101.888 203.371 103.748 200.212 102.718C197.989 101.993 195.532 103.208 194.736 105.424C192.449 111.782 191.29 118.452 191.29 125.248C191.29 126.241 191.323 127.224 191.373 128.2C182.859 124.732 173.555 122.814 163.81 122.814C123.392 122.814 90.5089 155.696 90.5089 196.115C90.5089 205.356 92.2358 214.2 95.3717 222.351L90.0656 227.657C88.0497 229.673 88.0497 232.954 90.0656 234.97L129.5 274.404C130.477 275.381 131.776 275.919 133.157 275.919C134.538 275.919 135.837 275.381 136.814 274.404L144.414 266.805C150.594 268.503 157.097 269.415 163.809 269.415C170.522 269.415 177.025 268.503 183.205 266.805L190.805 274.404C191.781 275.381 193.08 275.919 194.462 275.919C195.843 275.919 197.142 275.381 198.119 274.404L213.22 259.302C214.25 258.273 214.25 256.603 213.22 255.574C212.19 254.544 210.521 254.544 209.491 255.574L194.462 270.603L180.709 256.85L220 217.56L233.752 231.313L218.192 246.873C217.162 247.902 217.162 249.572 218.192 250.601C219.222 251.631 220.891 251.631 221.921 250.601L237.553 234.97C238.529 233.993 239.068 232.694 239.068 231.313C239.068 229.931 238.53 228.632 237.553 227.656L232.247 222.35C235.383 214.199 237.11 205.356 237.11 196.114C237.11 187.218 235.508 178.691 232.592 170.796C249.321 160.136 258.446 144.172 258.446 125.248ZM133.157 270.604L93.8667 231.313L107.619 217.561L146.91 256.851L133.157 270.604ZM160.331 167.908H165.535L170.447 172.82C171.412 173.785 171.928 175.069 171.897 176.435C171.868 177.799 171.294 179.061 170.282 179.987C168.356 181.75 165.21 181.604 163.268 179.661L145.839 162.232C143.906 160.299 143.906 157.154 145.838 155.221C146.566 154.494 147.465 154.045 148.405 153.867C148.399 153.991 148.386 154.113 148.386 154.239V155.963C148.386 162.549 153.744 167.908 160.331 167.908ZM153.66 155.963V154.239C153.66 153.402 154.341 152.721 155.178 152.721H168.737C170.507 152.721 172.103 153.661 172.982 155.12L165.467 162.635H160.331C156.652 162.634 153.66 159.642 153.66 155.963ZM161.697 185.548C162.644 186.494 163.159 187.753 163.149 189.092C163.138 190.43 162.603 191.681 161.642 192.613C159.709 194.485 156.589 194.461 154.687 192.558L135.1 172.97H135.099C134.163 172.034 133.647 170.789 133.647 169.465C133.647 168.141 134.163 166.896 135.1 165.96C136.036 165.024 137.28 164.509 138.605 164.509C139.929 164.509 141.174 165.024 142.11 165.96L161.697 185.548ZM147.452 192.781C148.399 193.728 148.914 194.986 148.904 196.325C148.894 197.664 148.358 198.914 147.397 199.846C145.464 201.719 142.345 201.694 140.442 199.791L127.647 186.996L124.361 183.71C123.424 182.773 122.909 181.529 122.909 180.205C122.909 178.881 123.424 177.636 124.361 176.699C125.327 175.733 126.596 175.25 127.866 175.25C129.135 175.25 130.404 175.733 131.37 176.698L131.371 176.699L147.452 192.781ZM123.915 190.722L132.484 199.291C133.429 200.237 133.944 201.495 133.934 202.833C133.923 204.171 133.388 205.422 132.427 206.353C130.494 208.226 127.375 208.202 125.473 206.299L116.908 197.735C114.976 195.802 114.976 192.657 116.908 190.724C117.874 189.758 119.144 189.275 120.413 189.275C121.681 189.276 122.949 189.758 123.915 190.722ZM128.979 213.006C131.551 213.006 134.124 212.053 136.097 210.14C137.513 208.768 138.478 207.06 138.924 205.191C140.475 206.06 142.211 206.498 143.949 206.498C146.521 206.498 149.094 205.544 151.067 203.632C152.564 202.182 153.559 200.356 153.967 198.361C155.305 198.963 156.749 199.265 158.193 199.265C160.765 199.265 163.339 198.311 165.312 196.399C167.296 194.476 168.4 191.896 168.422 189.133C168.429 188.218 168.315 187.322 168.091 186.461C170.175 186.242 172.195 185.386 173.843 183.877C175.926 181.97 177.107 179.369 177.169 176.552C177.231 173.734 176.168 171.084 174.175 169.091L170.322 165.238L178.738 156.821C180.672 154.889 183.816 154.889 185.749 156.821C187.679 158.751 187.681 161.891 185.756 163.825C185.754 163.827 185.751 163.829 185.749 163.831C184.719 164.861 184.719 166.531 185.749 167.56C186.779 168.59 188.448 168.589 189.478 167.56C191.41 165.627 194.555 165.627 196.487 167.56C198.418 169.49 198.42 172.63 196.494 174.563C196.492 174.565 196.49 174.568 196.488 174.57H196.487C195.458 175.6 195.458 177.269 196.487 178.299C197.517 179.328 199.187 179.328 200.216 178.299C201.153 177.362 202.397 176.847 203.722 176.847C205.046 176.847 206.29 177.362 207.226 178.298C209.159 180.231 209.159 183.376 207.226 185.309C206.197 186.338 206.197 188.008 207.226 189.037C208.256 190.067 209.926 190.067 210.955 189.037C211.914 188.078 213.179 187.562 214.544 187.586C215.899 187.609 217.156 188.168 218.085 189.161C219.888 191.089 219.771 194.241 217.824 196.188L198.906 215.106C197.876 216.136 197.876 217.806 198.906 218.835C199.936 219.865 201.605 219.865 202.635 218.835L207.25 214.222L211.566 218.537L183.584 246.519L168.451 231.386C170.603 230.633 172.895 230.271 175.208 230.357L180.226 230.542C184.646 230.709 189.008 229.631 192.852 227.434C194.117 226.712 194.556 225.101 193.833 223.837C193.111 222.572 191.5 222.133 190.236 222.855C187.247 224.563 183.849 225.4 180.421 225.272L175.403 225.087C168.844 224.841 162.419 227.367 157.777 232.008L143.651 246.134L116.538 219.021L123.894 211.665C125.46 212.557 127.219 213.006 128.979 213.006ZM163.81 264.142C158.64 264.142 153.608 263.551 148.766 262.452L150.711 260.508C151.687 259.531 152.226 258.232 152.226 256.851C152.226 255.469 151.688 254.17 150.711 253.194L147.38 249.863L161.507 235.737C162.152 235.092 162.844 234.501 163.571 233.964L179.855 250.247L176.909 253.194C174.893 255.21 174.893 258.491 176.909 260.507L178.853 262.452C174.011 263.551 168.979 264.142 163.81 264.142ZM231.837 196.115C231.837 203.858 230.534 211.302 228.14 218.243L223.657 213.76C222.68 212.783 221.381 212.245 220 212.245C218.619 212.245 217.32 212.783 216.343 213.76L215.295 214.808L210.979 210.493L221.555 199.917C225.49 195.982 225.662 189.541 221.937 185.559C220.024 183.513 217.43 182.361 214.633 182.314C214.4 182.31 214.167 182.314 213.935 182.326C214.076 179.535 213.083 176.697 210.957 174.57C209.025 172.638 206.455 171.573 203.723 171.573C203.546 171.573 203.371 171.578 203.196 171.587C203.337 168.796 202.344 165.957 200.218 163.831C198.089 161.703 195.251 160.711 192.457 160.853C192.6 158.06 191.607 155.22 189.478 153.092C186.083 149.697 180.876 149.194 176.941 151.579C175.053 149.042 172.045 147.447 168.737 147.447H155.178C153.723 147.447 152.377 147.911 151.27 148.694C148.052 148.08 144.596 149.007 142.11 151.492C139.983 153.619 138.991 156.458 139.132 159.249C138.957 159.24 138.782 159.235 138.605 159.235C135.872 159.235 133.303 160.299 131.371 162.231C129.439 164.163 128.375 166.733 128.375 169.465C128.375 169.642 128.38 169.818 128.388 169.993C125.598 169.851 122.76 170.843 120.633 172.97C118.7 174.903 117.636 177.472 117.636 180.205C117.636 181.598 117.915 182.949 118.442 184.195C116.513 184.571 114.671 185.505 113.18 186.996C109.191 190.985 109.191 197.475 113.18 201.464L119.909 208.193L112.81 215.293L111.277 213.76C110.3 212.783 109.001 212.245 107.62 212.245C106.239 212.245 104.94 212.783 103.964 213.76L99.4808 218.243C97.0867 211.302 95.7838 203.858 95.7838 196.115C95.7838 158.604 126.301 128.087 163.811 128.087C173.867 128.087 183.416 130.288 192.013 134.221C194.778 151.159 205.483 165.109 222.856 174.081C223.487 174.407 224.178 174.57 224.87 174.57C225.561 174.57 226.252 174.407 226.882 174.081C227.25 173.892 227.607 173.695 227.968 173.501C230.47 180.579 231.837 188.19 231.837 196.115ZM224.868 169.183C216.143 164.606 209.277 158.705 204.458 151.638C199.219 143.955 196.563 135.077 196.563 125.248C196.563 119.334 197.527 113.527 199.429 107.973C204.282 109.144 209.107 106.885 213.781 104.696C217.459 102.974 221.262 101.193 224.868 101.193C228.474 101.193 232.277 102.974 235.955 104.696C240.629 106.885 245.454 109.144 250.307 107.973C252.209 113.526 253.173 119.334 253.173 125.248C253.173 135.077 250.517 143.955 245.278 151.638C240.459 158.705 233.594 164.606 224.868 169.183Z" fill="black"/>
<path d="M243.064 128.67C244.454 128.235 245.228 126.756 244.793 125.366C242.053 116.613 234.046 110.733 224.869 110.733C213.358 110.733 203.993 120.097 203.993 131.608C203.993 143.118 213.358 152.483 224.869 152.483C233.409 152.483 241.003 147.367 244.215 139.449C244.762 138.1 244.112 136.562 242.763 136.015C241.413 135.467 239.875 136.117 239.328 137.467C236.927 143.385 231.251 147.209 224.868 147.209C216.265 147.209 209.266 140.21 209.266 131.608C209.266 123.005 216.265 116.006 224.868 116.006C231.728 116.006 237.713 120.401 239.76 126.941C240.195 128.331 241.676 129.105 243.064 128.67Z" fill="black"/>
<path d="M231.777 125.197L223.635 133.339L217.959 127.663C216.929 126.633 215.26 126.633 214.23 127.663C213.2 128.693 213.2 130.362 214.23 131.391L221.77 138.932C222.286 139.447 222.961 139.705 223.635 139.705C224.31 139.705 224.985 139.447 225.5 138.932L235.507 128.925C236.536 127.896 236.536 126.226 235.507 125.197C234.477 124.167 232.807 124.167 231.777 125.197Z" fill="black"/>
</g>
<defs>
<clipPath id="clip0_643_299">
<rect width="180" height="180" fill="white" transform="translate(83.5 95.9192)"/>
</clipPath>
</defs>
</svg>
