<svg width="332" height="313" viewBox="0 0 332 313" fill="none" xmlns="http://www.w3.org/2000/svg">
<circle cx="156.776" cy="156.919" r="156" fill="white"/>
<g clip-path="url(#clip0_643_298)">
<path fill-rule="evenodd" clip-rule="evenodd" d="M234.109 72.9805L232.776 90.1591C232.67 91.6061 231.73 92.8585 230.371 93.364C229.011 93.8695 227.481 93.5352 226.456 92.5085L222.589 88.6391L196.877 114.386C192.707 118.546 185.957 118.546 181.787 114.386L169.885 102.479C168.844 101.438 167.156 101.438 166.115 102.479L126.992 141.618C124.991 143.621 122.276 144.746 119.445 144.746C116.614 144.746 113.899 143.621 111.899 141.618L105.331 135.047C104.29 134.008 102.604 134.008 101.563 135.047L88.5413 148.047C86.4545 150.099 83.108 150.099 81.0213 148.047C80.0119 147.056 79.4434 145.701 79.4434 144.286C79.4434 142.871 80.0119 141.516 81.0213 140.524L95.9013 125.612C97.9019 123.61 100.616 122.485 103.447 122.485C106.277 122.485 108.991 123.61 110.992 125.612L119.443 134.068L160.456 93.0525C162.457 91.0503 165.171 89.9254 168.001 89.9254C170.832 89.9254 173.546 91.0503 175.547 93.0525L187.443 104.946C187.943 105.447 188.622 105.728 189.329 105.728C190.037 105.728 190.716 105.447 191.216 104.946L215.061 81.0898L211.195 77.2231C210.172 76.2009 209.84 74.676 210.345 73.3211C210.85 71.9662 212.099 71.0306 213.541 70.9271L230.741 69.5858C231.656 69.5263 232.552 69.8658 233.198 70.5166C233.844 71.1675 234.176 72.066 234.109 72.9805Z" fill="#EF314C"/>
<path fill-rule="evenodd" clip-rule="evenodd" d="M230.742 69.586L224.608 70.0607C225.612 70.6798 226.19 71.8041 226.11 72.9807L224.776 90.1594C224.751 90.3403 224.71 90.5187 224.654 90.6927L226.456 92.498C227.481 93.5247 229.011 93.8591 230.371 93.3535C231.731 92.848 232.671 91.5957 232.776 90.1487L234.11 72.9807C234.176 72.0663 233.844 71.1677 233.198 70.5169C232.553 69.866 231.657 69.5265 230.742 69.586Z" fill="#BB193B"/>
<path d="M119.443 213.586H87.4427C84.4972 213.586 82.1094 215.974 82.1094 218.919C82.1094 221.865 84.4972 224.253 87.4427 224.253H119.443C122.388 224.253 124.776 221.865 124.776 218.919C124.776 215.974 122.388 213.586 119.443 213.586Z" fill="#FFDC00"/>
<path fill-rule="evenodd" clip-rule="evenodd" d="M119.443 213.586H111.443C114.388 213.586 116.776 215.974 116.776 218.919C116.776 221.865 114.388 224.253 111.443 224.253H119.443C122.388 224.253 124.776 221.865 124.776 218.919C124.776 215.974 122.388 213.586 119.443 213.586Z" fill="#FEC108"/>
<path fill-rule="evenodd" clip-rule="evenodd" d="M178.11 208.253C178.11 205.307 175.722 202.919 172.776 202.919C175.722 202.919 178.11 200.532 178.11 197.586C178.11 194.641 175.722 192.253 172.776 192.253H140.776C137.831 192.253 135.443 194.641 135.443 197.586C135.443 200.532 137.831 202.919 140.776 202.919C137.831 202.919 135.443 205.307 135.443 208.253C135.443 211.198 137.831 213.586 140.776 213.586C137.831 213.586 135.443 215.974 135.443 218.919C135.443 221.865 137.831 224.253 140.776 224.253H172.776C175.722 224.253 178.11 221.865 178.11 218.919C178.11 215.974 175.722 213.586 172.776 213.586C175.722 213.586 178.11 211.198 178.11 208.253Z" fill="#FFDC00"/>
<path fill-rule="evenodd" clip-rule="evenodd" d="M178.11 208.253C178.11 205.307 175.722 202.919 172.776 202.919C175.722 202.919 178.11 200.532 178.11 197.586C178.11 194.641 175.722 192.253 172.776 192.253H164.776C167.722 192.253 170.11 194.641 170.11 197.586C170.11 200.532 167.722 202.919 164.776 202.919C167.722 202.919 170.11 205.307 170.11 208.253C170.11 211.198 167.722 213.586 164.776 213.586C167.722 213.586 170.11 215.974 170.11 218.919C170.11 221.865 167.722 224.253 164.776 224.253H172.776C175.722 224.253 178.11 221.865 178.11 218.919C178.11 215.974 175.722 213.586 172.776 213.586C175.722 213.586 178.11 211.198 178.11 208.253Z" fill="#FEC108"/>
<path d="M156.776 192.253C170.031 192.253 180.776 181.508 180.776 168.253C180.776 154.998 170.031 144.253 156.776 144.253C143.522 144.253 132.776 154.998 132.776 168.253C132.776 181.508 143.522 192.253 156.776 192.253Z" fill="#FFDC00"/>
<path fill-rule="evenodd" clip-rule="evenodd" d="M156.776 144.253C155.435 144.261 154.097 144.382 152.776 144.613C164.322 146.55 172.779 156.545 172.779 168.253C172.779 179.96 164.322 189.955 152.776 191.893C161.729 193.46 170.798 189.836 176.205 182.531C181.613 175.226 182.43 165.494 178.316 157.39C174.203 149.285 165.865 144.2 156.776 144.253Z" fill="#FEC108"/>
<path fill-rule="evenodd" clip-rule="evenodd" d="M231.443 186.919C231.443 183.974 229.055 181.586 226.11 181.586C229.055 181.586 231.443 179.198 231.443 176.253C231.443 173.307 229.055 170.919 226.11 170.919H194.11C191.164 170.919 188.776 173.307 188.776 176.253C188.776 179.198 191.164 181.586 194.11 181.586C191.164 181.586 188.776 183.974 188.776 186.919C188.776 189.865 191.164 192.253 194.11 192.253C191.164 192.253 188.776 194.64 188.776 197.586C188.776 200.531 191.164 202.919 194.11 202.919C191.164 202.919 188.776 205.307 188.776 208.253C188.776 211.198 191.164 213.586 194.11 213.586C191.164 213.586 188.776 215.974 188.776 218.919C188.776 221.865 191.164 224.253 194.11 224.253H226.11C229.055 224.253 231.443 221.865 231.443 218.919C231.443 215.974 229.055 213.586 226.11 213.586C229.055 213.586 231.443 211.198 231.443 208.253C231.443 205.307 229.055 202.919 226.11 202.919C229.055 202.919 231.443 200.531 231.443 197.586C231.443 194.64 229.055 192.253 226.11 192.253C229.055 192.253 231.443 189.865 231.443 186.919Z" fill="#FFDC00"/>
<path fill-rule="evenodd" clip-rule="evenodd" d="M231.443 186.919C231.443 183.974 229.055 181.586 226.109 181.586C229.055 181.586 231.443 179.198 231.443 176.253C231.443 173.307 229.055 170.919 226.109 170.919H218.109C221.055 170.919 223.443 173.307 223.443 176.253C223.443 179.198 221.055 181.586 218.109 181.586C221.055 181.586 223.443 183.974 223.443 186.919C223.443 189.865 221.055 192.253 218.109 192.253C221.055 192.253 223.443 194.64 223.443 197.586C223.443 200.531 221.055 202.919 218.109 202.919C221.055 202.919 223.443 205.307 223.443 208.253C223.443 211.198 221.055 213.586 218.109 213.586C221.055 213.586 223.443 215.974 223.443 218.919C223.443 221.865 221.055 224.253 218.109 224.253H226.109C229.055 224.253 231.443 221.865 231.443 218.919C231.443 215.974 229.055 213.586 226.109 213.586C229.055 213.586 231.443 211.198 231.443 208.253C231.443 205.307 229.055 202.919 226.109 202.919C229.055 202.919 231.443 200.531 231.443 197.586C231.443 194.64 229.055 192.253 226.109 192.253C229.055 192.253 231.443 189.865 231.443 186.919Z" fill="#FEC108"/>
<path d="M210.109 170.919C223.364 170.919 234.109 160.174 234.109 146.919C234.109 133.664 223.364 122.919 210.109 122.919C196.855 122.919 186.109 133.664 186.109 146.919C186.109 160.174 196.855 170.919 210.109 170.919Z" fill="#FFDC00"/>
<path fill-rule="evenodd" clip-rule="evenodd" d="M210.109 122.919C208.768 122.928 207.43 123.048 206.109 123.279C217.655 125.217 226.112 135.212 226.112 146.919C226.112 158.627 217.655 168.621 206.109 170.559C215.062 172.127 224.131 168.503 229.538 161.198C234.946 153.893 235.763 144.161 231.649 136.056C227.536 127.952 219.198 122.867 210.109 122.919Z" fill="#FEC108"/>
<path d="M103.443 213.586C116.698 213.586 127.443 202.841 127.443 189.586C127.443 176.331 116.698 165.586 103.443 165.586C90.188 165.586 79.4429 176.331 79.4429 189.586C79.4429 202.841 90.188 213.586 103.443 213.586Z" fill="#FFDC00"/>
<path fill-rule="evenodd" clip-rule="evenodd" d="M103.443 165.586C102.102 165.594 100.764 165.715 99.4429 165.946C110.989 167.884 119.446 177.878 119.446 189.586C119.446 201.293 110.989 211.288 99.4429 213.226C108.395 214.793 117.465 211.169 122.872 203.865C128.279 196.56 129.096 186.827 124.983 178.723C120.869 170.619 112.531 165.533 103.443 165.586Z" fill="#FEC108"/>
<path d="M84.7764 152.253C86.8985 152.256 88.9346 151.415 90.4351 149.914C90.6431 149.706 103.443 136.93 103.443 136.93L110.011 143.503C112.512 146.006 115.905 147.412 119.443 147.412C122.981 147.412 126.374 146.006 128.875 143.503L168 104.365L179.899 116.269C185.112 121.472 193.553 121.472 198.766 116.269L222.584 92.4179L224.563 94.3966C226.325 96.1569 228.951 96.73 231.287 95.8639C233.622 94.9977 235.239 92.8509 235.427 90.3673L236.76 73.1913V73.1646C236.876 71.4806 236.258 69.829 235.065 68.6349C233.872 67.4409 232.22 66.8211 230.536 66.9353L213.344 68.2686C210.862 68.4462 208.711 70.0571 207.842 72.3899C206.974 74.7228 207.547 77.3479 209.31 79.1059L211.288 81.0899L189.328 103.061L177.432 91.1566C174.932 88.6537 171.539 87.2474 168 87.2474C164.462 87.2474 161.069 88.6537 158.568 91.1566L119.443 130.298L112.88 123.719C107.669 118.514 99.2256 118.514 94.0138 123.719L79.1471 138.626C76.8623 140.906 76.1761 144.337 77.4084 147.32C78.6407 150.303 81.5489 152.25 84.7764 152.253ZM82.9098 142.386L97.7871 127.477C99.2876 125.974 101.324 125.13 103.447 125.13C105.57 125.13 107.607 125.974 109.107 127.477L117.558 135.933C118.058 136.433 118.737 136.715 119.444 136.715C120.152 136.715 120.831 136.433 121.331 135.933L162.339 94.9193C165.507 91.8926 170.494 91.8926 173.662 94.9193L185.56 106.823C187.671 108.839 190.994 108.839 193.104 106.823L216.947 82.9673C217.986 81.9262 217.986 80.2403 216.947 79.1993L213.072 75.3246C212.779 75.0527 212.687 74.627 212.84 74.2579C212.975 73.8659 213.336 73.5961 213.75 73.5779L230.931 72.2526C231.065 72.2465 231.196 72.2991 231.288 72.3966C231.394 72.4978 231.45 72.6399 231.443 72.7859L230.11 89.9593C230.081 90.3661 229.817 90.7185 229.435 90.8614C229.053 91.0042 228.623 90.9112 228.334 90.6233L224.47 86.7539C223.411 85.7533 221.755 85.7533 220.696 86.7539L194.992 112.495C191.823 115.513 186.842 115.513 183.672 112.495L171.774 100.591C170.776 99.5864 169.417 99.0227 168 99.0259C166.586 99.0243 165.23 99.5867 164.232 100.589L125.107 139.733C121.939 142.758 116.952 142.758 113.784 139.733L107.216 133.159C105.134 131.079 101.76 131.079 99.6778 133.159L86.6564 146.159C85.6116 147.182 83.9412 147.182 82.8964 146.159C82.392 145.669 82.1074 144.996 82.1074 144.293C82.1074 143.589 82.392 142.916 82.8964 142.426L82.9098 142.386Z" fill="black"/>
<path d="M183.443 168.253C183.466 155.696 174.726 144.824 162.458 142.148C150.189 139.473 137.716 145.719 132.51 157.146C127.303 168.572 130.774 182.083 140.843 189.586H140.776C137.615 189.572 134.744 191.429 133.461 194.319C132.178 197.208 132.725 200.583 134.856 202.919C132.083 205.934 132.083 210.571 134.856 213.586C132.725 215.922 132.178 219.297 133.461 222.186C134.744 225.076 137.615 226.933 140.776 226.919H172.776C175.938 226.933 178.808 225.076 180.091 222.186C181.374 219.297 180.827 215.922 178.696 213.586C181.47 210.571 181.47 205.934 178.696 202.919C180.827 200.583 181.374 197.208 180.091 194.319C178.808 191.429 175.938 189.572 172.776 189.586H172.71C179.455 184.569 183.435 176.66 183.443 168.253ZM175.443 208.253C175.443 209.725 174.249 210.919 172.776 210.919H140.776C139.303 210.919 138.11 209.725 138.11 208.253C138.11 206.78 139.303 205.586 140.776 205.586H172.776C174.249 205.586 175.443 206.78 175.443 208.253ZM172.776 221.586H140.776C139.303 221.586 138.11 220.392 138.11 218.919C138.11 217.446 139.303 216.253 140.776 216.253H172.776C174.249 216.253 175.443 217.446 175.443 218.919C175.443 220.392 174.249 221.586 172.776 221.586ZM172.776 194.919C174.249 194.919 175.443 196.113 175.443 197.586C175.443 199.059 174.249 200.253 172.776 200.253H140.776C139.303 200.253 138.11 199.059 138.11 197.586C138.11 196.113 139.303 194.919 140.776 194.919H172.776ZM135.443 168.253C135.443 156.471 144.994 146.919 156.776 146.919C168.558 146.919 178.11 156.471 178.11 168.253C178.11 180.035 168.558 189.586 156.776 189.586C145 189.573 135.456 180.029 135.443 168.253Z" fill="black"/>
<path fill-rule="evenodd" clip-rule="evenodd" d="M156.776 165.586C155.482 165.585 154.376 164.655 154.152 163.381C153.928 162.106 154.651 160.855 155.867 160.413C157.083 159.971 158.441 160.466 159.088 161.586C159.549 162.442 160.438 162.979 161.41 162.989C162.382 162.998 163.282 162.478 163.759 161.632C164.237 160.785 164.215 159.746 163.704 158.919C162.737 157.297 161.228 156.069 159.443 155.453V154.919C159.443 153.447 158.249 152.253 156.776 152.253C155.303 152.253 154.109 153.447 154.109 154.919V155.41C150.439 156.703 148.236 160.455 148.895 164.29C149.554 168.126 152.884 170.927 156.776 170.919C158.07 170.921 159.176 171.85 159.4 173.125C159.624 174.399 158.901 175.65 157.685 176.092C156.469 176.534 155.111 176.04 154.464 174.919C153.706 173.694 152.11 173.292 150.862 174.013C149.614 174.734 149.165 176.317 149.848 177.586C150.816 179.209 152.328 180.437 154.115 181.053V181.586C154.115 183.059 155.309 184.253 156.781 184.253C158.254 184.253 159.448 183.059 159.448 181.586V181.095C163.12 179.802 165.323 176.049 164.662 172.212C164.001 168.376 160.669 165.576 156.776 165.586Z" fill="black"/>
<path d="M210.109 120.252C198.622 120.24 188.42 127.594 184.801 138.496C181.182 149.399 184.961 161.393 194.176 168.252H194.109C190.948 168.238 188.077 170.096 186.794 172.985C185.511 175.875 186.059 179.25 188.189 181.586C185.416 184.601 185.416 189.238 188.189 192.252C185.416 195.267 185.416 199.904 188.189 202.919C185.416 205.934 185.416 210.571 188.189 213.586C186.059 215.922 185.511 219.297 186.794 222.186C188.077 225.076 190.948 226.933 194.109 226.919H226.109C229.271 226.933 232.142 225.076 233.425 222.186C234.708 219.297 234.16 215.922 232.029 213.586C234.803 210.571 234.803 205.934 232.029 202.919C234.803 199.904 234.803 195.267 232.029 192.252C234.803 189.238 234.803 184.601 232.029 181.586C234.16 179.25 234.708 175.875 233.425 172.985C232.142 170.096 229.271 168.238 226.109 168.252H226.04C235.258 161.395 239.04 149.4 235.421 138.496C231.802 127.592 221.598 120.237 210.109 120.252ZM228.776 186.919C228.776 188.392 227.582 189.586 226.109 189.586H194.109C192.637 189.586 191.443 188.392 191.443 186.919C191.443 185.446 192.637 184.252 194.109 184.252H226.109C227.582 184.252 228.776 185.446 228.776 186.919ZM228.776 197.586C228.776 199.059 227.582 200.252 226.109 200.252H194.109C192.637 200.252 191.443 199.059 191.443 197.586C191.443 196.113 192.637 194.919 194.109 194.919H226.109C227.582 194.919 228.776 196.113 228.776 197.586ZM228.776 208.252C228.776 209.725 227.582 210.919 226.109 210.919H194.109C192.637 210.919 191.443 209.725 191.443 208.252C191.443 206.78 192.637 205.586 194.109 205.586H226.109C227.582 205.586 228.776 206.78 228.776 208.252ZM226.109 221.586H194.109C192.637 221.586 191.443 220.392 191.443 218.919C191.443 217.446 192.637 216.252 194.109 216.252H226.109C227.582 216.252 228.776 217.446 228.776 218.919C228.776 220.392 227.582 221.586 226.109 221.586ZM226.109 173.586C227.582 173.586 228.776 174.78 228.776 176.252C228.776 177.725 227.582 178.919 226.109 178.919H194.109C192.637 178.919 191.443 177.725 191.443 176.252C191.443 174.78 192.637 173.586 194.109 173.586H226.109ZM210.109 168.252C198.327 168.252 188.776 158.701 188.776 146.919C188.776 135.137 198.327 125.586 210.109 125.586C221.891 125.586 231.443 135.137 231.443 146.919C231.43 158.696 221.886 168.239 210.109 168.252Z" fill="black"/>
<path fill-rule="evenodd" clip-rule="evenodd" d="M210.11 144.253C208.816 144.251 207.71 143.321 207.486 142.047C207.262 140.773 207.985 139.522 209.201 139.08C210.417 138.638 211.775 139.132 212.422 140.253C213.18 141.478 214.775 141.88 216.023 141.159C217.271 140.438 217.721 138.855 217.038 137.586C216.072 135.962 214.562 134.734 212.776 134.119V133.586C212.776 132.113 211.582 130.919 210.11 130.919C208.637 130.919 207.443 132.113 207.443 133.586V134.077C203.772 135.369 201.569 139.121 202.228 142.957C202.888 146.793 206.218 149.593 210.11 149.586C211.403 149.587 212.51 150.517 212.733 151.791C212.957 153.065 212.234 154.317 211.018 154.759C209.802 155.201 208.444 154.706 207.798 153.586C207.039 152.36 205.444 151.959 204.196 152.68C202.948 153.401 202.498 154.983 203.182 156.253C204.148 157.877 205.66 159.105 207.448 159.719V160.253C207.448 161.725 208.642 162.919 210.115 162.919C211.588 162.919 212.782 161.725 212.782 160.253V159.762C216.453 158.469 218.656 154.715 217.995 150.879C217.335 147.042 214.002 144.243 210.11 144.253Z" fill="black"/>
<path d="M87.5095 210.919H87.4428C83.0245 210.919 79.4428 214.501 79.4428 218.919C79.4428 223.338 83.0245 226.919 87.4428 226.919H119.443C123.861 226.919 127.443 223.338 127.443 218.919C127.443 214.501 123.861 210.919 119.443 210.919H119.376C128.592 204.052 132.372 192.052 128.754 181.143C125.137 170.233 114.936 162.869 103.443 162.869C91.9494 162.869 81.749 170.233 78.1315 181.143C74.5139 192.052 78.2932 204.052 87.5095 210.919ZM119.443 216.253C120.916 216.253 122.109 217.446 122.109 218.919C122.109 220.392 120.916 221.586 119.443 221.586H87.4428C85.9701 221.586 84.7762 220.392 84.7762 218.919C84.7762 217.446 85.9701 216.253 87.4428 216.253H119.443ZM103.443 168.253C115.225 168.253 124.776 177.804 124.776 189.586C124.776 201.368 115.225 210.919 103.443 210.919C91.6607 210.919 82.1095 201.368 82.1095 189.586C82.1227 177.809 91.6662 168.266 103.443 168.253Z" fill="black"/>
<path fill-rule="evenodd" clip-rule="evenodd" d="M103.443 192.253C104.737 192.254 105.843 193.184 106.067 194.458C106.291 195.732 105.568 196.983 104.352 197.425C103.136 197.868 101.778 197.373 101.131 196.253C100.67 195.397 99.7807 194.859 98.8089 194.85C97.837 194.84 96.937 195.36 96.4597 196.207C95.9825 197.054 96.0037 198.093 96.515 198.919C97.4831 200.543 98.9946 201.771 100.782 202.386V202.919C100.782 204.392 101.976 205.586 103.448 205.586C104.921 205.586 106.115 204.392 106.115 202.919V202.429C109.787 201.135 111.99 197.382 111.329 193.545C110.668 189.709 107.336 186.909 103.443 186.919C102.149 186.918 101.043 185.988 100.819 184.714C100.595 183.44 101.318 182.189 102.534 181.746C103.75 181.304 105.108 181.799 105.755 182.919C106.216 183.775 107.105 184.313 108.077 184.322C109.049 184.332 109.949 183.812 110.426 182.965C110.904 182.118 110.882 181.079 110.371 180.253C109.404 178.63 107.895 177.402 106.11 176.786V176.253C106.11 174.78 104.916 173.586 103.443 173.586C101.97 173.586 100.776 174.78 100.776 176.253V176.743C97.1056 178.036 94.9025 181.788 95.562 185.624C96.2215 189.459 99.5512 192.26 103.443 192.253Z" fill="black"/>
</g>
<circle cx="178.922" cy="156.069" r="149.301" stroke="#748BFF" stroke-width="6"/>
<defs>
<clipPath id="clip0_643_298">
<rect width="160" height="160" fill="white" transform="translate(76.7764 66.9192)"/>
</clipPath>
</defs>
</svg>
