<svg width="327" height="326" viewBox="0 0 327 326" fill="none" xmlns="http://www.w3.org/2000/svg">
<ellipse cx="170.433" cy="157.636" rx="156.567" ry="156.717" fill="white"/>
<path d="M310.134 169.202C310.134 254.101 241.377 322.919 156.567 322.919C71.7571 322.919 3 254.101 3 169.202C3 84.3039 71.7571 15.4851 156.567 15.4851C241.377 15.4851 310.134 84.3039 310.134 169.202Z" stroke="#D235EE" stroke-width="6"/>
<g clip-path="url(#clip0_643_296)">
<path d="M156.72 182.692C156.159 194.073 160.498 205.148 168.64 213.119C160.449 218.873 150.676 221.947 140.667 221.919C128.074 222.057 115.942 217.187 106.941 208.38C97.939 199.574 92.8044 187.552 92.6665 174.959C92.6665 153.546 107.307 127.999 127.333 120.586H154C165.653 124.906 175.467 135.332 181.653 147.546C167.258 153.471 157.555 167.148 156.72 182.692Z" fill="#FFDC00"/>
<path d="M181.653 147.546C175.466 135.332 165.653 124.906 154 120.586H146C157.653 124.906 167.466 135.332 173.653 147.546C159.258 153.471 149.555 167.148 148.72 182.692C148.159 194.073 152.498 205.148 160.64 213.119C153.618 218.052 145.41 221.025 136.858 221.732C138.12 221.828 139.381 221.919 140.666 221.919C150.676 221.947 160.449 218.873 168.64 213.119C160.498 205.148 156.159 194.073 156.72 182.692C157.555 167.148 167.258 153.471 181.653 147.546Z" fill="#FEC108"/>
<path d="M161.76 92.8258L153.227 120.586H128.107L119.573 92.8258C119.074 91.2082 119.372 89.4496 120.377 88.0871C121.382 86.7246 122.974 85.92 124.667 85.9192H130C132.293 82.3021 136.398 80.2496 140.667 80.5858C144.936 80.2496 149.041 82.3021 151.333 85.9192H156.667C158.36 85.92 159.952 86.7246 160.956 88.0871C161.961 89.4496 162.259 91.2082 161.76 92.8258Z" fill="#FFDC00"/>
<path d="M156.667 85.9192H151.333C149.041 82.3021 144.936 80.2496 140.667 80.5858C139.314 80.5872 137.968 80.7748 136.667 81.1432C139.426 81.8049 141.819 83.5187 143.333 85.9192H148.667C150.359 85.92 151.951 86.7246 152.956 88.0871C153.961 89.4496 154.259 91.2082 153.76 92.8258L145.227 120.586H153.227L161.76 92.8258C162.259 91.2082 161.961 89.4496 160.956 88.0871C159.951 86.7246 158.359 85.92 156.667 85.9192Z" fill="#FEC108"/>
<path d="M236.56 181.653C236.623 182.402 236.371 183.144 235.866 183.7C235.36 184.256 234.645 184.577 233.893 184.586H199.333C197.861 184.586 196.667 185.78 196.667 187.253V221.813C196.658 222.564 196.337 223.279 195.781 223.785C195.224 224.291 194.483 224.542 193.733 224.479C172.109 222.885 155.693 204.351 156.72 182.693C157.555 167.148 167.258 153.471 181.653 147.546C185.827 145.829 190.265 144.846 194.773 144.639C216.432 143.612 234.965 160.028 236.56 181.653Z" fill="#02A9F4"/>
<path d="M188.666 187.252V221.812C188.658 222.48 188.391 223.118 187.922 223.594C189.835 224.032 191.777 224.328 193.733 224.479C194.482 224.542 195.224 224.291 195.781 223.785C196.337 223.279 196.658 222.564 196.666 221.812V187.252C196.666 185.78 197.86 184.586 199.333 184.586H191.333C189.86 184.586 188.666 185.78 188.666 187.252Z" fill="#0377BC"/>
<path d="M194.773 144.639C194.04 144.674 193.32 144.762 192.597 144.834C211.941 146.733 227.116 162.269 228.56 181.653C228.623 182.402 228.371 183.144 227.865 183.7C227.36 184.256 226.645 184.577 225.893 184.586H233.893C234.645 184.577 235.36 184.256 235.865 183.7C236.371 183.144 236.623 182.402 236.56 181.653C234.965 160.028 216.432 143.612 194.773 144.639Z" fill="#0377BC"/>
<path d="M247.333 198.186C245.872 218.021 230.101 233.791 210.266 235.253C209.517 235.316 208.775 235.064 208.219 234.558C207.662 234.052 207.341 233.338 207.333 232.586V197.919C207.333 196.446 208.527 195.253 210 195.253H244.666C245.418 195.261 246.133 195.582 246.639 196.138C247.144 196.695 247.396 197.437 247.333 198.186Z" fill="#EF314C"/>
<path d="M244.666 195.253H236.666C237.418 195.261 238.133 195.582 238.639 196.138C239.145 196.695 239.396 197.437 239.333 198.186C238.023 215.816 225.326 230.51 208.072 234.362C208.63 234.976 209.438 235.304 210.266 235.253C230.101 233.791 245.872 218.021 247.333 198.186C247.396 197.437 247.145 196.695 246.639 196.138C246.133 195.582 245.418 195.261 244.666 195.253Z" fill="#BB193B"/>
<path d="M90 174.959C90.3208 202.64 112.985 224.839 140.667 224.586C150.458 224.609 160.049 221.809 168.291 216.522C175.307 222.754 184.188 226.487 193.549 227.141C193.68 227.141 193.816 227.154 193.941 227.154C195.312 227.156 196.633 226.638 197.637 225.706C198.717 224.701 199.332 223.293 199.333 221.818V187.253H233.899C235.374 187.25 236.783 186.636 237.789 185.557C238.811 184.45 239.329 182.97 239.219 181.469C237.629 158.346 217.794 140.767 194.648 141.967C190.63 142.153 186.66 142.919 182.861 144.239C178.446 135.94 172.189 128.761 164.571 123.253H167.333C168.806 123.253 170 122.059 170 120.586C170 119.113 168.806 117.919 167.333 117.919H156.827L164.309 93.6045C165.055 91.1787 164.606 88.5428 163.099 86.501C161.591 84.4591 159.205 83.2537 156.667 83.2525H152.736C149.773 79.6784 145.304 77.7034 140.667 77.9192C136.029 77.7034 131.56 79.6784 128.597 83.2525H124.667C122.128 83.2529 119.741 84.458 118.233 86.4999C116.724 88.5418 116.275 91.1783 117.021 93.6045L124.507 117.919H114C112.527 117.919 111.333 119.113 111.333 120.586C111.333 122.059 112.527 123.253 114 123.253H116.76C100.366 135.458 90.4969 154.526 90 174.959H90ZM233.899 181.919H199.333C196.388 181.919 194 184.307 194 187.253L193.936 221.821C174.242 220.38 159.076 203.852 159.33 184.107C159.583 164.362 175.169 148.23 194.893 147.295C195.499 147.266 196.096 147.253 196.696 147.253C216.308 147.167 232.603 162.351 233.901 181.919H233.899ZM122.123 92.0365C121.874 91.2285 122.023 90.3505 122.525 89.6701C123.027 88.9897 123.821 88.5874 124.667 88.5859H128.192L132.853 100.245C133.401 101.613 134.954 102.278 136.323 101.73C137.691 101.182 138.356 99.6287 137.808 98.2605L133.008 86.2765C134.985 84.1808 137.791 83.0727 140.667 83.2525C143.539 83.0744 146.342 84.1813 148.317 86.2739L143.517 98.2739C142.969 99.6421 143.634 101.195 145.003 101.743C146.371 102.291 147.924 101.626 148.472 100.258L153.139 88.5859H156.667C157.513 88.5866 158.308 88.9885 158.81 89.669C159.312 90.3496 159.462 91.2281 159.213 92.0365L151.248 117.919H130.085L122.123 92.0365ZM127.867 123.253H153.44C162.939 126.906 171.72 135.253 177.931 146.349C166.018 152.167 157.487 163.192 154.844 176.183C152.202 189.175 155.749 202.657 164.443 212.666C157.271 217 149.046 219.279 140.667 219.253C115.929 219.509 95.651 199.696 95.3333 174.959C95.3333 155.919 108.4 130.719 127.867 123.253Z" fill="black"/>
<path d="M140.667 181.919C137.721 181.919 135.333 179.531 135.333 176.586C135.333 175.113 134.139 173.919 132.667 173.919C131.194 173.919 130 175.113 130 176.586C130.018 181.435 133.305 185.662 138 186.874V189.919C138 191.392 139.194 192.586 140.667 192.586C142.139 192.586 143.333 191.392 143.333 189.919V186.874C148.529 185.537 151.917 180.543 151.24 175.221C150.563 169.899 146.031 165.913 140.667 165.919C137.721 165.919 135.333 163.531 135.333 160.586C135.333 157.64 137.721 155.253 140.667 155.253C143.612 155.253 146 157.64 146 160.586C146 162.059 147.194 163.253 148.667 163.253C150.139 163.253 151.333 162.059 151.333 160.586C151.315 155.737 148.028 151.51 143.333 150.298V147.253C143.333 145.78 142.139 144.586 140.667 144.586C139.194 144.586 138 145.78 138 147.253V150.298C132.805 151.635 129.416 156.629 130.093 161.951C130.77 167.273 135.302 171.259 140.667 171.253C143.612 171.253 146 173.64 146 176.586C146 179.531 143.612 181.919 140.667 181.919Z" fill="black"/>
<path d="M204.667 197.919V232.586C204.661 234.062 205.275 235.473 206.36 236.474C207.372 237.405 208.699 237.922 210.075 237.919C210.208 237.919 210.341 237.919 210.472 237.906C231.581 236.272 248.351 219.5 249.984 198.391C250.094 196.881 249.574 195.392 248.547 194.279C247.548 193.196 246.14 192.582 244.667 192.586H210C207.054 192.586 204.667 194.974 204.667 197.919ZM244.667 197.999C243.231 216.504 228.508 231.193 210 232.586V197.919H244.64C244.661 197.942 244.671 197.973 244.667 198.005V197.999Z" fill="black"/>
<path d="M188.667 160.586C190.139 160.586 191.333 159.392 191.333 157.919C191.333 156.446 190.139 155.253 188.667 155.253C187.194 155.253 186 156.446 186 157.919C186 159.392 187.194 160.586 188.667 160.586Z" fill="black"/>
<path d="M202 173.919C203.473 173.919 204.667 172.725 204.667 171.253C204.667 169.78 203.473 168.586 202 168.586C200.527 168.586 199.333 169.78 199.333 171.253C199.333 172.725 200.527 173.919 202 173.919Z" fill="black"/>
<path d="M188.667 173.919C189.374 173.919 190.052 173.638 190.552 173.138L203.885 159.805C204.896 158.758 204.881 157.095 203.853 156.066C202.824 155.038 201.161 155.023 200.115 156.034L186.781 169.367C186.019 170.13 185.791 171.277 186.204 172.273C186.616 173.269 187.588 173.919 188.667 173.919Z" fill="black"/>
</g>
<defs>
<clipPath id="clip0_643_296">
<rect width="160" height="160" fill="white" transform="translate(90 77.9192)"/>
</clipPath>
</defs>
</svg>
