<svg width="83" height="82" viewBox="0 0 83 82" fill="none" xmlns="http://www.w3.org/2000/svg">
<path opacity="0.74" fill-rule="evenodd" clip-rule="evenodd" d="M77.4369 25.8341C75.4649 21.163 72.6755 17.0012 69.0661 13.4079C65.4879 9.81504 61.3328 7.03025 56.6926 5.05398C51.8714 3.01783 46.7767 2 41.4995 2C36.1923 2 31.1581 3.01783 26.3365 5.05398C21.6662 7.03025 17.5116 9.81455 13.9329 13.4079C10.3241 17.0012 7.53412 21.163 5.56257 25.8341C3.53088 30.655 2.5 35.7149 2.5 41.0148C2.5 46.2851 3.53088 51.3455 5.56257 56.166C7.53412 60.837 10.3241 64.9988 13.9329 68.5921C17.5116 72.185 21.6662 74.9698 26.3365 76.946C31.1581 78.9822 36.1923 80 41.4995 80C46.7767 80 51.8714 78.9817 56.6926 76.946C61.3328 74.9693 65.4879 72.185 69.0661 68.5921C72.675 64.9988 75.4649 60.8365 77.4369 56.166C79.4686 51.3455 80.5 46.2851 80.5 41.0148C80.5 35.7149 79.4691 30.655 77.4369 25.8341ZM58.2096 36.1043C59.9987 36.1043 61.5758 36.7332 62.8798 38.0207C64.1538 39.3082 64.7903 40.8654 64.7903 42.6616C64.7903 44.4577 64.1538 46.0154 62.8798 47.2727C61.5758 48.5607 59.9987 49.2193 58.2096 49.2193C56.4204 49.2193 54.8739 48.5602 53.5999 47.2727C52.2959 46.0154 51.6585 44.4582 51.6585 42.6616C51.6585 40.8649 52.2959 39.3078 53.5999 38.0207C54.8744 36.7328 56.4209 36.1043 58.2096 36.1043ZM10.9615 35.2661C12.5387 33.6491 14.4185 32.8708 16.6932 32.9009C18.5125 32.8708 20.1808 33.4398 21.6362 34.5774C23.0615 35.6852 24.0016 37.1227 24.4867 38.859H21.1811C20.7566 38.0207 20.1502 37.3018 19.392 36.7926C18.543 36.2538 17.6635 35.9841 16.6932 35.9841C15.298 35.9841 14.1153 36.4933 13.1451 37.4512C12.1442 38.4394 11.6591 39.6071 11.6892 40.9847C11.6586 42.3617 12.1442 43.5295 13.1451 44.5176C14.1153 45.4761 15.2985 45.9852 16.6932 45.9852C17.6635 45.9852 18.543 45.7155 19.392 45.2064C20.1508 44.6729 20.7652 43.9635 21.1811 43.1406H24.4867C24.0016 44.8769 23.0615 46.2846 21.6362 47.4222C20.1803 48.53 18.5125 49.0694 16.6932 49.0694C14.4185 49.0694 12.5387 48.2906 10.9615 46.7334C9.35431 45.1465 8.5655 43.2004 8.5655 40.9847C8.5655 38.7392 9.35382 36.8525 10.9615 35.2661ZM32.2507 37.7214C33.0996 36.6135 34.5855 36.0445 36.7084 36.0746C38.0736 36.0445 39.2864 36.3141 40.3779 36.8832C41.4088 37.422 41.9551 38.47 41.9551 39.9673V49.1297H38.8013V47.8417C37.831 48.6804 36.4659 49.0996 34.7374 49.1297C33.6759 49.0996 32.7964 48.8002 32.1594 48.2613C31.4313 47.6023 31.0679 46.7047 31.098 45.5963C31.0679 44.009 31.6438 42.9016 32.8265 42.2128C33.5241 41.8234 34.4337 41.5537 35.5558 41.4043L37.9819 41.0148C38.467 40.8055 38.7096 40.4765 38.7096 40.0569C38.679 39.5477 38.5277 39.1885 38.1638 39.0089C37.8 38.7991 37.2843 38.6793 36.6167 38.7095C35.8284 38.6793 35.2822 38.8891 34.9489 39.3082C34.7364 39.5477 34.5545 39.907 34.4938 40.4463H31.3401C31.4318 39.3078 31.7044 38.4097 32.2507 37.7214ZM26.094 32.9004H29.2477V49.1292H26.094V32.9004ZM47.0804 38.2899C47.7169 37.4215 48.4746 36.8525 49.3241 36.5234L50.5374 36.1939L51.3558 36.134L51.3863 39.3078L50.4156 39.2479C49.8092 39.2479 49.2334 39.4275 48.6871 39.7867C48.202 40.1163 47.8071 40.5057 47.5951 40.9847C47.3224 41.4335 47.2012 42.1519 47.2012 43.1702V49.1288H44.0775V36.6724L47.0799 36.7026V38.2899H47.0804ZM72.9481 29.0676L65.3365 36.5828L63.3354 34.6066L70.947 27.0914L72.9481 29.0676ZM59.9987 25.5347V33.5892H57.1782V25.5347H59.9987ZM66.7317 42.482V39.6972H75.0715V42.482H66.7317Z" fill="#CC2229"/>
<path fill-rule="evenodd" clip-rule="evenodd" d="M62.8801 38.0208C61.5761 36.7328 59.9989 36.1044 58.2098 36.1044C56.4207 36.1044 54.8741 36.7333 53.6002 38.0208C52.2962 39.3083 51.6587 40.8654 51.6587 42.6616C51.6587 44.4578 52.2962 46.0154 53.6002 47.2727C54.8741 48.5607 56.4207 49.2193 58.2098 49.2193C59.9989 49.2193 61.5761 48.5602 62.8801 47.2727C64.154 46.0154 64.7905 44.4583 64.7905 42.6616C64.7905 40.8649 64.154 39.3078 62.8801 38.0208ZM60.6665 45.0867C59.9989 45.7755 59.1805 46.105 58.2103 46.105C57.2706 46.105 56.4512 45.7755 55.7847 45.0867C55.1172 44.3979 54.7533 43.5894 54.7533 42.6616C54.7533 41.6735 55.1172 40.8654 55.7847 40.2064C56.4512 39.5176 57.2706 39.188 58.2103 39.2182C59.181 39.188 59.9994 39.5176 60.6975 40.2064C61.334 40.8654 61.6683 41.6735 61.6978 42.6616C61.6678 43.5894 61.3335 44.3979 60.6665 45.0867Z" fill="white"/>
<path fill-rule="evenodd" clip-rule="evenodd" d="M58.2094 46.105C59.1802 46.105 59.9986 45.7754 60.6656 45.0867C61.3326 44.3979 61.6669 43.5894 61.697 42.6616C61.6669 41.6735 61.3331 40.8654 60.6656 40.2063C59.9981 39.5176 59.1797 39.188 58.2094 39.2182C57.2697 39.188 56.4504 39.5176 55.7838 40.2063C55.1163 40.8654 54.7524 41.6735 54.7524 42.6616C54.7524 43.5894 55.1163 44.3979 55.7838 45.0867C56.4504 45.7754 57.2697 46.105 58.2094 46.105Z" fill="#CC2229"/>
<path fill-rule="evenodd" clip-rule="evenodd" d="M16.6932 32.9005C14.4184 32.8703 12.5386 33.6491 10.9615 35.2657C9.35425 36.8525 8.56543 38.7387 8.56543 40.9847C8.56543 43.2004 9.35425 45.1465 10.9615 46.7334C12.5386 48.2906 14.4184 49.0694 16.6932 49.0694C18.5124 49.0694 20.1807 48.5305 21.6361 47.4222C23.0614 46.2846 24.0016 44.8769 24.4867 43.1406H21.181C20.7649 43.9634 20.1506 44.6728 19.3919 45.2064C18.543 45.7156 17.6634 45.9852 16.6932 45.9852C15.298 45.9852 14.1152 45.4761 13.145 44.5176C12.1442 43.5295 11.6591 42.3617 11.6891 40.9847C11.6586 39.6071 12.1442 38.4394 13.145 37.4512C14.1152 36.4933 15.2985 35.9841 16.6932 35.9841C17.6634 35.9841 18.543 36.2538 19.3919 36.7926C20.1502 37.3018 20.7571 38.0203 21.181 38.859H24.4867C24.0016 37.1222 23.0614 35.6853 21.6361 34.5774C20.1802 33.4393 18.5124 32.8708 16.6932 32.9005ZM36.7084 36.0742C34.5855 36.044 33.0996 36.613 32.2506 37.7209C31.7048 38.4097 31.4317 39.3078 31.3405 40.4458H34.4943C34.5549 39.907 34.7368 39.5473 34.9493 39.3078C35.2826 38.8887 35.8289 38.6789 36.6172 38.709C37.2847 38.6789 37.7999 38.7991 38.1642 39.0084C38.5281 39.188 38.6794 39.5473 38.71 40.0564C38.71 40.4755 38.4674 40.8051 37.9823 41.0144L35.5562 41.4038C34.4341 41.5537 33.5245 41.8229 32.8269 42.2123C31.6442 42.9011 31.0684 44.0085 31.0984 45.5958C31.0684 46.7037 31.4322 47.6018 32.1599 48.2609C32.7968 48.7997 33.6759 49.0996 34.7378 49.1293C36.4663 49.0991 37.831 48.68 38.8017 47.8413V49.1293H41.9555V39.9669C41.9555 38.4696 41.4097 37.4215 40.3783 36.8827C39.2863 36.3137 38.073 36.0445 36.7084 36.0742ZM38.043 43.1109L38.6494 42.7813V44.0387C38.6494 45.1168 38.3462 45.8655 37.7698 46.2846C37.1634 46.7037 36.5265 46.913 35.7983 46.913C35.3432 46.913 34.9794 46.7933 34.6762 46.5543C34.373 46.2846 34.2211 45.8952 34.2211 45.3266C34.2211 44.6977 34.4637 44.2485 34.9794 43.9189C35.2826 43.7398 35.7983 43.5894 36.4653 43.5003L38.043 43.1109Z" fill="white"/>
<path fill-rule="evenodd" clip-rule="evenodd" d="M38.6494 42.7814L38.043 43.1109L36.4659 43.5003C35.7988 43.5899 35.2831 43.7398 34.9799 43.9189C34.4642 44.2485 34.2217 44.6978 34.2217 45.3267C34.2217 45.8957 34.3735 46.2851 34.6767 46.5543C34.9799 46.7933 35.3438 46.913 35.7988 46.913C36.5265 46.913 37.1635 46.7037 37.7704 46.2846C38.3467 45.8655 38.6499 45.1169 38.6499 44.0387V42.7814H38.6494Z" fill="#CC2229"/>
<path fill-rule="evenodd" clip-rule="evenodd" d="M29.248 32.9004H26.0938V49.1292H29.248V32.9004ZM49.3239 36.5234C48.4744 36.8525 47.7167 37.4215 47.0802 38.2899V36.703L44.0778 36.6729V49.1292H47.2015V43.1707C47.2015 42.1524 47.3227 41.4339 47.5954 40.9851C47.8074 40.5062 48.2018 40.1167 48.6874 39.7872C49.2332 39.428 49.809 39.2483 50.4159 39.2483L51.3866 39.3082L51.3561 36.1345L50.5377 36.1944L49.3239 36.5234ZM65.3363 36.5833L72.9479 29.0676L70.9468 27.0918L63.3352 34.607L65.3363 36.5833ZM59.9985 33.5892V25.5347H57.1785V33.5892H59.9985ZM66.7315 39.6971V42.4819H75.0713V39.6971H66.7315Z" fill="white"/>
</svg>
