<svg width="83" height="82" viewBox="0 0 83 82" fill="none" xmlns="http://www.w3.org/2000/svg">
<g clip-path="url(#clip0_256_405)">
<path d="M53.6852 37.7064C53.1864 38.0389 52.4382 38.2884 51.5238 38.2884C50.1105 38.2884 48.7804 38.1221 47.4503 37.7064C47.1178 37.6232 46.8684 37.5401 46.7022 37.5401C46.4528 37.5401 46.3696 37.7064 46.3696 38.0389V38.8703C46.3696 39.1198 46.4528 39.286 46.5359 39.4523C46.619 39.5355 46.7853 39.7017 47.0347 39.7849C48.3648 40.3669 49.8611 40.6163 51.5238 40.6163C53.2695 40.6163 54.5996 40.2006 55.6803 39.3692C56.761 38.5378 57.2598 37.457 57.2598 36.0436C57.2598 35.0459 57.0104 34.2977 56.5116 33.6326C56.0128 33.0506 55.1815 32.4686 54.0177 32.0529L51.69 31.1384C50.7756 30.8058 50.1105 30.4733 49.8611 30.1407C49.5286 29.8081 49.3623 29.4756 49.3623 28.8936C49.3623 27.6465 50.2768 26.9814 52.1888 26.9814C53.2695 26.9814 54.3502 27.1477 55.3478 27.4802C55.6803 27.5634 55.9297 27.6465 56.0128 27.6465C56.2622 27.6465 56.4285 27.4802 56.4285 27.1477V26.3163C56.4285 26.0669 56.3454 25.9006 56.2622 25.7343C56.1791 25.568 56.0128 25.4849 55.7634 25.4017C54.5165 24.9861 53.2695 24.7366 52.0225 24.7366C50.4431 24.7366 49.113 25.1523 48.1154 25.9006C47.1178 26.6488 46.619 27.7297 46.619 28.9767C46.619 30.889 47.6997 32.3023 49.8611 33.1337L52.3551 34.0483C53.1864 34.3808 53.6852 34.6302 54.0177 34.9628C54.3502 35.2953 54.4333 35.6279 54.4333 36.1267C54.4333 36.7919 54.184 37.3738 53.6852 37.7064Z" fill="url(#paint0_linear_256_405)"/>
<path d="M40.6336 25.7343V36.7919C39.2203 37.7064 37.8071 38.2052 36.3939 38.2052C35.4794 38.2052 34.8144 37.9558 34.3987 37.457C33.9831 36.9581 33.8168 36.2099 33.8168 35.1291V25.7343C33.8168 25.3186 33.6506 25.1523 33.2349 25.1523H31.4891C31.0735 25.1523 30.9072 25.3186 30.9072 25.7343V36.0436C30.9072 37.457 31.2398 38.6209 31.9879 39.3692C32.7361 40.1174 33.8168 40.5331 35.23 40.5331C37.1421 40.5331 39.0541 39.868 40.883 38.5378L41.0492 39.5355C41.0492 39.7849 41.1324 39.868 41.2986 39.9512C41.3817 40.0343 41.548 40.0343 41.7974 40.0343H43.0444C43.46 40.0343 43.6263 39.868 43.6263 39.4523V25.7343C43.6263 25.3186 43.46 25.1523 43.0444 25.1523H41.2986C40.7998 25.1523 40.6336 25.4018 40.6336 25.7343Z" fill="url(#paint1_linear_256_405)"/>
<path d="M24.8388 40.1174H26.5845C27.0002 40.1174 27.1665 39.9512 27.1665 39.5355V29.143C27.1665 27.7297 26.8339 26.6488 26.0858 25.9006C25.3376 25.1523 24.34 24.7366 22.9268 24.7366C21.0148 24.7366 19.0196 25.4017 17.1076 26.8151C16.4426 25.4017 15.1956 24.7366 13.3667 24.7366C11.5378 24.7366 9.70893 25.4017 7.88005 26.6488L7.71378 25.7343C7.71378 25.4849 7.63065 25.4017 7.46439 25.3186C7.38126 25.2355 7.215 25.2355 7.04873 25.2355H5.71864C5.30298 25.2355 5.13672 25.4017 5.13672 25.8174V39.6186C5.13672 40.0343 5.30298 40.2006 5.71864 40.2006H7.46439C7.88005 40.2006 8.04631 40.0343 8.04631 39.6186V28.3948C9.45954 27.5634 10.8728 27.0645 12.3691 27.0645C13.2004 27.0645 13.7824 27.314 14.1149 27.8128C14.4474 28.3116 14.6968 28.9767 14.6968 29.9744V39.5355C14.6968 39.9512 14.8631 40.1174 15.2787 40.1174H17.0245C17.4401 40.1174 17.6064 39.9512 17.6064 39.5355V29.3093V28.8105C17.6064 28.6442 17.6064 28.4779 17.6064 28.3948C19.1027 27.4802 20.516 27.0645 21.9292 27.0645C22.7605 27.0645 23.3424 27.314 23.675 27.8128C24.0075 28.3116 24.2569 28.9767 24.2569 29.9744V39.5355C24.2569 39.9512 24.4231 40.1174 24.8388 40.1174Z" fill="url(#paint2_linear_256_405)"/>
<path d="M70.1451 51.175C61.0838 54.9994 51.1912 56.9116 42.2131 56.9116C28.9121 56.9116 16.0268 53.2535 5.63538 47.1843C5.46912 47.1011 5.30286 47.018 5.13659 47.018C4.55468 47.018 4.22215 47.6831 4.80407 48.2651C14.4473 56.9947 27.2495 62.2325 41.3818 62.2325C51.5238 62.2325 63.2453 59.0732 71.309 53.0872C72.7222 52.0895 71.5584 50.593 70.1451 51.175Z" fill="url(#paint3_linear_256_405)"/>
<path d="M69.8958 28.4779C70.644 27.6465 71.8078 27.2308 73.4705 27.2308C74.3018 27.2308 75.1331 27.3139 75.8813 27.5634C76.1307 27.6465 76.2138 27.6465 76.38 27.6465C76.6294 27.6465 76.7957 27.4802 76.7957 27.0645V26.2331C76.7957 25.9837 76.7126 25.7343 76.6294 25.6512C76.5463 25.568 76.38 25.4017 76.2138 25.3186C75.1331 25.0692 74.0524 24.8198 73.0548 24.8198C70.7271 24.8198 68.9814 25.4849 67.6513 26.8982C66.4043 28.2285 65.7393 30.2238 65.7393 32.718C65.7393 35.2122 66.3212 37.1244 67.5681 38.4546C68.8151 39.7849 70.5609 40.45 72.8885 40.45C74.1355 40.45 75.2993 40.2837 76.2138 39.868C76.4632 39.7849 76.6294 39.7017 76.7126 39.5354C76.7957 39.4523 76.7957 39.2029 76.7957 38.9535V38.1221C76.7957 37.7064 76.6294 37.5401 76.38 37.5401C76.2969 37.5401 76.1307 37.5401 75.9644 37.6232C75.0499 37.8727 74.1355 38.0389 73.3042 38.0389C71.7247 38.0389 70.5609 37.6232 69.8127 36.7918C69.0645 35.9605 68.732 34.6302 68.732 32.8843V32.4686C68.8151 30.6395 69.1476 29.3093 69.8958 28.4779Z" fill="url(#paint4_linear_256_405)"/>
<path d="M73.6367 58.9901C77.9596 55.3319 79.1234 47.7662 78.2089 46.6023C77.7933 46.1035 75.7981 45.6046 73.3042 45.6046C70.644 45.6046 67.485 46.1866 65.0742 47.8494C64.3261 48.3482 64.4923 49.0133 65.2405 48.9302C67.8176 48.5976 73.6367 47.9325 74.7174 49.2628C75.715 50.593 73.5536 56.0802 72.556 58.4912C72.3066 59.2395 72.8886 59.4889 73.6367 58.9901Z" fill="url(#paint5_linear_256_405)"/>
<path d="M62.0816 25.1523H60.3358C59.9202 25.1523 59.7539 25.3186 59.7539 25.7343V39.5355C59.7539 39.9512 59.9202 40.1174 60.3358 40.1174H62.0816C62.4972 40.1174 62.6635 39.9512 62.6635 39.5355V25.7343C62.6635 25.4018 62.4972 25.1523 62.0816 25.1523Z" fill="url(#paint6_linear_256_405)"/>
<path d="M62.58 19.4988C62.2475 19.1663 61.7487 19 61.1668 19C60.5849 19 60.1692 19.1663 59.8367 19.4988C59.5042 19.8314 59.3379 20.2471 59.3379 20.7459C59.3379 21.2448 59.5042 21.7436 59.8367 21.993C60.1692 22.3256 60.5849 22.4919 61.1668 22.4919C61.7487 22.4919 62.1644 22.3256 62.4969 21.993C62.8294 21.6605 62.9957 21.2448 62.9957 20.7459C62.9957 20.2471 62.9125 19.7483 62.58 19.4988Z" fill="url(#paint7_linear_256_405)"/>
</g>
<defs>
<linearGradient id="paint0_linear_256_405" x1="20.4605" y1="63.9694" x2="67.6736" y2="16.7611" gradientUnits="userSpaceOnUse">
<stop stop-color="#0C6CB3"/>
<stop offset="0.2911" stop-color="#1E84C4"/>
<stop offset="0.8873" stop-color="#4CC0EF"/>
<stop offset="1" stop-color="#4CC0EF"/>
</linearGradient>
<linearGradient id="paint1_linear_256_405" x1="13.1683" y1="56.6766" x2="60.3814" y2="9.4682" gradientUnits="userSpaceOnUse">
<stop stop-color="#0C6CB3"/>
<stop offset="0.2911" stop-color="#1E84C4"/>
<stop offset="0.8873" stop-color="#4CC0EF"/>
<stop offset="1" stop-color="#4CC0EF"/>
</linearGradient>
<linearGradient id="paint2_linear_256_405" x1="2.63946" y1="46.1465" x2="49.8526" y2="-1.06188" gradientUnits="userSpaceOnUse">
<stop stop-color="#0C6CB3"/>
<stop offset="0.2911" stop-color="#1E84C4"/>
<stop offset="0.8873" stop-color="#4CC0EF"/>
<stop offset="1" stop-color="#4CC0EF"/>
</linearGradient>
<linearGradient id="paint3_linear_256_405" x1="22.3372" y1="65.8464" x2="69.5503" y2="18.638" gradientUnits="userSpaceOnUse">
<stop stop-color="#0C6CB3"/>
<stop offset="0.2911" stop-color="#1E84C4"/>
<stop offset="0.8873" stop-color="#4CC0EF"/>
<stop offset="1" stop-color="#4CC0EF"/>
</linearGradient>
<linearGradient id="paint4_linear_256_405" x1="30.9457" y1="74.4556" x2="78.1588" y2="27.2472" gradientUnits="userSpaceOnUse">
<stop stop-color="#0C6CB3"/>
<stop offset="0.2911" stop-color="#1E84C4"/>
<stop offset="0.8873" stop-color="#4CC0EF"/>
<stop offset="1" stop-color="#4CC0EF"/>
</linearGradient>
<linearGradient id="paint5_linear_256_405" x1="39.6146" y1="83.1253" x2="86.8277" y2="35.917" gradientUnits="userSpaceOnUse">
<stop stop-color="#0C6CB3"/>
<stop offset="0.2911" stop-color="#1E84C4"/>
<stop offset="0.8873" stop-color="#4CC0EF"/>
<stop offset="1" stop-color="#4CC0EF"/>
</linearGradient>
<linearGradient id="paint6_linear_256_405" x1="25.1658" y1="68.675" x2="72.3789" y2="21.4667" gradientUnits="userSpaceOnUse">
<stop stop-color="#0C6CB3"/>
<stop offset="0.2911" stop-color="#1E84C4"/>
<stop offset="0.8873" stop-color="#4CC0EF"/>
<stop offset="1" stop-color="#4CC0EF"/>
</linearGradient>
<linearGradient id="paint7_linear_256_405" x1="19.2189" y1="62.728" x2="66.4321" y2="15.5196" gradientUnits="userSpaceOnUse">
<stop stop-color="#0C6CB3"/>
<stop offset="0.2911" stop-color="#1E84C4"/>
<stop offset="0.8873" stop-color="#4CC0EF"/>
<stop offset="1" stop-color="#4CC0EF"/>
</linearGradient>
<clipPath id="clip0_256_405">
<rect width="74" height="43.2325" fill="white" transform="translate(4.5 19)"/>
</clipPath>
</defs>
</svg>
