<svg width="83" height="82" viewBox="0 0 83 82" fill="none" xmlns="http://www.w3.org/2000/svg">
<path d="M24.6555 14C13.5212 14 4.5 23.0171 4.5 34.1462C4.5 41.2072 8.97312 46.2976 13.6466 51.0084L31.9202 68.2779C32.8777 69.1828 34.453 68.5037 34.453 67.1865V53.7321C34.453 49.8393 37.6062 46.6824 41.4993 46.676C45.3921 46.6824 48.547 49.8393 48.547 53.7321V67.1865C48.547 68.5037 50.1223 69.1828 51.0798 68.2779L69.3521 51.0084C74.0257 46.2976 78.5 41.207 78.5 34.1462C78.5 23.0176 69.4805 14.0008 58.3459 14H58.3445C51.3578 14.0005 45.1154 17.7002 41.5007 23.104C37.8856 17.7001 31.6434 14 24.6555 14H24.6555ZM19.8374 20.1481C20.2861 20.1631 20.7181 20.3944 20.9738 20.803C21.384 21.4543 21.1866 22.3172 20.5329 22.7272C17.403 24.6884 14.9526 29.285 14.9526 33.191V33.2591C14.9526 38.0706 17.6879 42.9332 23.0824 47.7105C23.6614 48.223 23.714 49.1054 23.2034 49.682C22.9271 49.9938 22.542 50.1505 22.1575 50.1505C21.8277 50.1505 21.4975 50.0365 21.2311 49.8015C15.2135 44.469 12.1611 38.9042 12.1611 33.2591V33.191C12.1611 28.3404 15.1235 22.8239 19.0488 20.3609C19.2938 20.2078 19.569 20.1389 19.8374 20.1481ZM63.1626 20.1481C63.4318 20.1389 63.7062 20.2078 63.9512 20.3609C67.8772 22.8239 70.8389 28.3404 70.8389 33.191V33.2591C70.8389 38.9042 67.7872 44.469 61.7689 49.8015C61.5033 50.0365 61.1723 50.1505 60.8425 50.1505C60.4587 50.1505 60.0729 49.9938 59.7966 49.682C59.2846 49.1054 59.3379 48.223 59.9162 47.7105C65.3107 42.9332 68.046 38.0706 68.046 33.2591V33.191C68.046 29.285 65.5949 24.687 62.4657 22.7258C61.812 22.3158 61.616 21.4543 62.0262 20.803C62.2819 20.3944 62.7146 20.1631 63.1626 20.1481ZM30.0133 23.7172C30.5559 23.6716 31.0967 23.9471 31.3666 24.4582C31.7255 25.1409 31.4647 25.9841 30.781 26.3435C27.983 27.815 26.2413 30.6867 26.2342 33.8417C26.242 37.2743 28.4179 40.792 31.6504 42.6023C32.324 42.9775 32.5632 43.8288 32.1872 44.5015C31.9316 44.9578 31.4573 45.2162 30.9688 45.2162C30.7359 45.2162 30.5017 45.1592 30.2859 45.0382C26.206 42.7546 23.4591 38.2682 23.4413 33.864V33.8222C23.4576 29.6336 25.7674 25.8248 29.4805 23.8729C29.6515 23.7832 29.8324 23.7328 30.0133 23.7172V23.7172ZM52.9867 23.7172C53.1676 23.7328 53.3493 23.7832 53.5195 23.8729C57.2326 25.8248 59.5416 29.6336 59.5587 33.8222V33.864C59.5409 38.2682 56.794 42.7546 52.7141 45.0382C52.4983 45.1592 52.2641 45.2162 52.0312 45.2162C51.5427 45.2162 51.0677 44.9578 50.8114 44.5015C50.4354 43.8288 50.676 42.9775 51.3497 42.6023C54.5828 40.7921 56.7559 37.2743 56.7644 33.8417C56.7573 30.6867 55.0177 27.815 52.219 26.3436C51.536 25.9841 51.2724 25.1409 51.632 24.4582C51.9012 23.9471 52.4448 23.6716 52.9867 23.7172ZM41.4993 28.8184C44.8457 28.8205 47.5581 31.5325 47.5581 34.8775C47.5581 38.2226 44.8457 40.9345 41.4993 40.9367C38.1537 40.9345 35.4419 38.2226 35.4419 34.8775C35.4419 31.5325 38.1537 28.8205 41.4993 28.8184Z" fill="#C6002B"/>
</svg>
