<svg width="83" height="82" viewBox="0 0 83 82" fill="none" xmlns="http://www.w3.org/2000/svg">
<path d="M4.54775 39.452C4.54775 39.452 6.26597 39.1679 6.96979 39.9145C7.6769 40.6611 7.2143 42.2038 6.27589 42.2269C5.33747 42.2567 4.46844 42.4318 3.85385 41.7678C3.69456 41.5863 3.58402 41.3674 3.53263 41.1315C3.48124 40.8957 3.49068 40.6506 3.56006 40.4194C3.62945 40.1882 3.75649 39.9784 3.92927 39.8097C4.10204 39.6411 4.31487 39.5191 4.54775 39.4553M23.1707 49.9934C23.0055 50.0066 22.8303 49.9306 22.6519 49.8018C21.4227 48.0707 20.9766 42.1477 20.4116 41.7942C19.8268 41.4275 17.7087 45.0745 13.4891 44.6847C11.728 44.5195 9.93373 43.3633 8.87636 42.5639C8.97549 41.2194 8.99201 38.0745 11.6189 39.0953C13.2116 39.7196 15.9475 41.4242 18.3464 38.3619C20.9998 34.9759 22.4603 35.9603 23.3392 36.697C24.2148 37.4303 23.6333 41.259 24.9418 40.1887C26.2503 39.1184 31.5338 32.4752 31.5338 32.4752C31.5338 32.4752 35.6245 28.3062 36.2523 32.6899C36.8802 37.0736 39.5434 41.9296 40.2505 41.7909C40.961 41.6521 49.1886 24.7517 50.3683 23.6583C51.5479 22.5681 55.513 22.7135 55.3247 25.5082C55.1363 28.3062 54.7299 45.6956 54.7299 45.6956C54.7299 45.6956 54.2673 50.5979 55.0273 47.9782C55.3412 46.8914 55.6782 45.9136 56.1012 44.7706C58.13 38.1967 61.5896 26.9716 63.3144 21.1873L64.3156 17.7021C64.4024 17.345 64.506 16.9923 64.6262 16.645C64.7683 16.1495 64.8675 15.8291 64.8972 15.7432C64.9732 15.5252 65.1913 15.36 65.492 15.2411C65.7993 15.0462 66.1264 15.0362 66.4965 15.0263C67.4547 14.9404 68.6839 15.066 69.7908 15.3831C70.1541 15.4005 70.5038 15.5259 70.7953 15.7432L70.8416 15.7762L70.8647 15.7894C70.9811 15.8768 71.0855 15.9789 71.1753 16.0934L71.1886 16.1066C71.2414 16.1726 71.2976 16.2552 71.3538 16.3444C71.9684 17.2595 72.3484 18.9475 71.9684 21.9438C71.02 29.4162 70.2832 44.7904 70.2832 44.7904C70.2832 44.7904 70.1411 45.5271 71.6644 42.2897C71.7172 42.1774 71.7866 42.0783 71.8461 41.9759C71.9564 41.8998 72.0545 41.8073 72.1369 41.7017C73.0786 40.5686 75.6097 39.9013 77.3643 39.9178C78.1044 40.007 78.7256 40.1953 79.0957 40.4299C79.7896 41.4969 79.3799 45.428 79.3799 45.428C77.9194 45.5667 75.1339 46.3596 74.1492 46.5049C73.1579 46.6536 71.6611 53.1316 69.5794 52.4676C67.4944 51.8069 62.8485 48.8603 62.8485 48.4572C62.8485 48.1038 63.212 43.7994 63.3111 42.6927L63.3277 42.4714L63.331 42.4285C63.397 41.5563 63.3409 41.1731 62.9411 42.0453C62.5974 42.7951 61.1006 47.6017 59.4319 52.8343C59.2568 53.2902 56.1045 62.933 55.6882 64.109C55.1925 65.47 54.7795 66.5139 54.4953 67.0557C54.0591 67.6503 53.471 68.0269 52.6482 67.7758C50.5996 67.1482 48.009 64.2907 47.9859 63.5804C47.9363 59.5833 48.1775 38.0679 47.216 39.8617C46.2313 41.6984 38.572 54.4563 38.572 54.4563C38.4431 54.4761 38.3506 54.4728 38.2349 54.4827C37.693 54.4233 36.8537 54.2449 36.6224 53.7229C36.6092 53.6899 36.5894 53.6602 36.5795 53.6305C36.5647 53.5866 36.5503 53.5425 36.5365 53.4983C36.4341 53.1481 36.3911 52.7682 36.2986 52.4544C35.9583 51.2883 35.4065 49.6135 34.8315 47.9089C33.9526 45.0018 33.0439 42.0287 32.8919 41.7017C32.6011 41.0608 32.1749 41.3317 31.7916 41.7017C30.0833 43.1684 26.4518 49.6366 23.1707 49.9934Z" fill="#FFA200"/>
</svg>
