<svg width="83" height="82" viewBox="0 0 83 82" fill="none" xmlns="http://www.w3.org/2000/svg">
<g clip-path="url(#clip0_257_435)">
<path d="M66.1973 44.1178V42.4546H80.5V45.7809H66.1973V44.1178ZM66.1973 38.7958V37.1327H80.5V40.4589H66.1973V38.7958ZM66.1973 33.4738V31.8107H80.5V35.1369H66.1973V33.4738ZM66.1973 27.9856V26.3225H80.5V29.815H66.1973V27.9856ZM66.1973 22.8299V21.0005H80.5V24.6593H66.1973V22.8299Z" fill="#B1E3FA"/>
<path d="M34.2656 44.1178V42.4546H48.5684V45.7809H34.2656V44.1178ZM34.2656 38.7958V37.1327H48.5684V40.4589H34.2656V38.7958ZM34.2656 33.4738V31.8107H48.5684V35.1369H34.2656V33.4738ZM34.2656 27.9856V26.3224H48.5684V29.815H34.2656V27.9856Z" fill="#F7BACF"/>
<path d="M50.2314 44.1178V42.4547H64.5342V45.7809H50.2314V44.1178ZM50.2314 38.7958V37.1327H64.5342V40.4589H50.2314V38.7958Z" fill="#E7EE9F"/>
<path d="M18.4658 60.0836V58.4205H32.436V61.7468H18.4658V60.0836ZM18.4658 54.5954V52.9323H32.436V56.2585H18.4658V54.5954ZM18.4658 49.2734V47.6103H32.436V50.9365H18.4658V49.2734Z" fill="#FEEA3A"/>
<path d="M2.5 44.1178V42.4547H16.4701V45.7809H2.5V44.1178ZM2.5 38.7958V37.1327H16.4701V40.4589H2.5V38.7958Z" fill="#FE9D7F"/>
<path d="M66.3638 60.0836V58.4205H80.3339V61.7468H66.3638V60.0836ZM66.3638 54.5954V52.9323H80.3339V56.2585H66.3638V54.5954ZM66.3638 49.2734V47.6103H80.3339V50.9365H66.3638V49.2734Z" fill="#4EC2F6"/>
<path d="M50.3975 60.0836V58.4205H64.3676V61.7468H50.3975V60.0836ZM50.3975 54.5954V52.9323H64.3676V56.2585H50.3975V54.5954ZM50.3975 49.2734V47.6103H64.3676V50.9365H50.3975V49.2734Z" fill="#CCDB38"/>
<path d="M34.4316 60.0836V58.4205H48.4018V61.7468H34.4316V60.0836ZM34.4316 54.5954V52.9323H48.4018V56.2585H34.4316V54.5954ZM34.4316 49.2734V47.6103H48.4018V50.9365H34.4316V49.2734Z" fill="#FE3F80"/>
<path d="M2.5 60.0836V58.4205H16.4701V61.7468H2.5V60.0836ZM2.5 54.5954V52.9323H16.4701V56.2585H2.5V54.5954ZM2.5 49.2734V47.6103H16.4701V50.9365H2.5V49.2734Z" fill="#FE3D02"/>
</g>
<defs>
<clipPath id="clip0_257_435">
<rect width="78" height="40.7472" fill="white" transform="translate(2.5 21)"/>
</clipPath>
</defs>
</svg>
