<svg width="83" height="82" viewBox="0 0 83 82" fill="none" xmlns="http://www.w3.org/2000/svg">
<g clip-path="url(#clip0_337_740)">
<path d="M25.7287 72.7737C21.9226 72.6006 19.855 71.9672 18.4798 71.4308C16.6576 70.7213 15.3585 69.8767 13.9909 68.511C12.6233 67.1453 11.7768 65.8462 11.0711 64.024C10.5347 62.6488 9.90134 60.5812 9.72825 56.7751C9.53804 52.6608 9.5 51.4264 9.5 41.0029C9.5 30.5793 9.54185 29.3468 9.72635 25.2287C9.89944 21.4226 10.5366 19.3588 11.0692 17.9798C11.7787 16.1576 12.6252 14.8585 13.989 13.489C15.3547 12.1233 16.6538 11.2749 18.4779 10.5692C19.8531 10.0328 21.9207 9.39944 25.7268 9.22635C29.843 9.03804 31.0793 9 41.4991 9C51.9226 9 53.1551 9.04185 57.2732 9.22635C61.0793 9.39944 63.1431 10.0366 64.5221 10.5692C66.3443 11.2749 67.6434 12.1233 69.011 13.489C70.3787 14.8547 71.2213 16.1557 71.9308 17.9779C72.4672 19.3531 73.1006 21.4207 73.2737 25.2268C73.462 29.3449 73.5 30.5774 73.5 41.0009C73.5 51.4207 73.462 52.657 73.2737 56.7751C73.1006 60.5812 72.4634 62.6488 71.9308 64.024C71.2213 65.8462 70.3767 67.1453 69.011 68.511C67.6453 69.8767 66.3443 70.7213 64.5221 71.4308C63.1469 71.9672 61.0793 72.6006 57.2732 72.7737C53.1589 72.962 51.9226 73 41.4991 73C31.0793 73 29.843 72.9639 25.7287 72.7737Z" fill="url(#paint0_radial_337_740)"/>
<path d="M25.7287 72.7737C21.9226 72.6006 19.855 71.9672 18.4798 71.4308C16.6576 70.7213 15.3585 69.8767 13.9909 68.511C12.6233 67.1453 11.7768 65.8462 11.0711 64.024C10.5347 62.6488 9.90134 60.5812 9.72825 56.7751C9.53804 52.6608 9.5 51.4264 9.5 41.0029C9.5 30.5793 9.54185 29.3468 9.72635 25.2287C9.89944 21.4226 10.5366 19.3588 11.0692 17.9798C11.7787 16.1576 12.6252 14.8585 13.989 13.489C15.3547 12.1233 16.6538 11.2749 18.4779 10.5692C19.8531 10.0328 21.9207 9.39944 25.7268 9.22635C29.843 9.03804 31.0793 9 41.4991 9C51.9226 9 53.1551 9.04185 57.2732 9.22635C61.0793 9.39944 63.1431 10.0366 64.5221 10.5692C66.3443 11.2749 67.6434 12.1233 69.011 13.489C70.3787 14.8547 71.2213 16.1557 71.9308 17.9779C72.4672 19.3531 73.1006 21.4207 73.2737 25.2268C73.462 29.3449 73.5 30.5774 73.5 41.0009C73.5 51.4207 73.462 52.657 73.2737 56.7751C73.1006 60.5812 72.4634 62.6488 71.9308 64.024C71.2213 65.8462 70.3767 67.1453 69.011 68.511C67.6453 69.8767 66.3443 70.7213 64.5221 71.4308C63.1469 71.9672 61.0793 72.6006 57.2732 72.7737C53.1589 72.962 51.9226 73 41.4991 73C31.0793 73 29.843 72.9639 25.7287 72.7737Z" fill="url(#paint1_radial_337_740)"/>
<path d="M33.6426 41.1364C33.6426 36.7594 37.1899 33.2103 41.5668 33.2103C45.9437 33.2103 49.4929 36.7594 49.4929 41.1364C49.4929 45.5133 45.9437 49.0624 41.5668 49.0624C37.1899 49.0624 33.6426 45.5133 33.6426 41.1364ZM29.358 41.1364C29.358 47.8793 34.8238 53.3452 41.5668 53.3452C48.3097 53.3452 53.7756 47.8793 53.7756 41.1364C53.7756 34.3934 48.3097 28.9275 41.5668 28.9275C34.8238 28.9275 29.3582 34.393 29.3582 41.1364M51.406 28.4435C51.4058 29.0078 51.5729 29.5595 51.8862 30.0288C52.1995 30.4981 52.645 30.864 53.1662 31.0801C53.6875 31.2963 54.2611 31.353 54.8146 31.2432C55.3681 31.1333 55.8766 30.8618 56.2758 30.4629C56.675 30.064 56.9469 29.5558 57.0572 29.0023C57.1676 28.4489 57.1113 27.8752 56.8955 27.3538C56.6798 26.8324 56.3143 26.3866 55.8452 26.0729C55.3761 25.7592 54.8246 25.5917 54.2603 25.5915H54.2591C53.5027 25.5918 52.7774 25.8924 52.2424 26.4271C51.7075 26.9619 51.4066 27.6871 51.406 28.4435ZM31.9612 60.4899C29.6431 60.3843 28.3831 59.9982 27.5458 59.672C26.4358 59.2398 25.6437 58.7251 24.811 57.8935C23.9783 57.0619 23.4628 56.2706 23.0325 55.1606C22.7061 54.3236 22.32 53.0633 22.2146 50.7452C22.0994 48.239 22.0763 47.4862 22.0763 41.1368C22.0763 34.7874 22.1013 34.0366 22.2146 31.5283C22.3202 29.2102 22.7092 27.9523 23.0325 27.1129C23.4647 26.0029 23.9794 25.2108 24.811 24.3781C25.6426 23.5454 26.4339 23.0299 27.5458 22.5996C28.3828 22.2732 29.6431 21.8871 31.9612 21.7817C34.4674 21.6665 35.2202 21.6435 41.5668 21.6435C47.9133 21.6435 48.667 21.668 51.1753 21.7821C53.4934 21.8877 54.7512 22.2767 55.5906 22.6C56.7007 23.0303 57.4927 23.5469 58.3254 24.3785C59.1582 25.2101 59.6718 26.0033 60.1039 27.1133C60.4303 27.9502 60.8164 29.2106 60.9218 31.5287C61.0371 34.037 61.0601 34.7877 61.0601 41.1371C61.0601 47.4865 61.0371 48.2373 60.9218 50.7456C60.8162 53.0637 60.4282 54.3236 60.1039 55.1609C59.6718 56.271 59.157 57.063 58.3254 57.8939C57.4938 58.7247 56.7007 59.2402 55.5906 59.6724C54.7537 59.9988 53.4934 60.3849 51.1753 60.4903C48.6691 60.6055 47.9162 60.6285 41.5668 60.6285C35.2174 60.6285 34.4666 60.6055 31.9612 60.4903M31.7643 17.5041C29.2332 17.6194 27.5036 18.0207 25.9931 18.6085C24.4298 19.2154 23.1046 20.0297 21.7813 21.3509C20.458 22.6721 19.6458 23.9975 19.0389 25.5627C18.4511 27.0741 18.0498 28.8028 17.9345 31.3339C17.8173 33.869 17.7905 34.6795 17.7905 41.1364C17.7905 47.5932 17.8173 48.4037 17.9345 50.9389C18.0498 53.4702 18.4511 55.1986 19.0389 56.71C19.6458 58.2734 20.4582 59.6012 21.7813 60.9218C23.1044 62.2425 24.4279 63.0556 25.9931 63.6643C27.5065 64.252 29.2332 64.6534 31.7643 64.7687C34.3008 64.8839 35.1099 64.9126 41.5668 64.9126C48.0237 64.9126 48.8342 64.8858 51.3693 64.7687C53.9006 64.6534 55.629 64.252 57.1404 63.6643C58.7038 63.0556 60.029 62.243 61.3523 60.9218C62.6756 59.6006 63.486 58.2734 64.0947 56.71C64.6825 55.1986 65.0857 53.47 65.1991 50.9389C65.3143 48.4018 65.3412 47.5932 65.3412 41.1364C65.3412 34.6795 65.3143 33.869 65.1991 31.3339C65.0838 28.8026 64.6825 27.0732 64.0947 25.5627C63.486 23.9994 62.6735 22.6742 61.3523 21.3509C60.0311 20.0276 58.7038 19.2154 57.1423 18.6085C55.629 18.0207 53.9004 17.6175 51.3712 17.5041C48.8357 17.3883 48.0256 17.3601 41.5696 17.3601C35.1137 17.3601 34.3017 17.3869 31.7653 17.5041" fill="white"/>
</g>
<defs>
<radialGradient id="paint0_radial_337_740" cx="0" cy="0" r="1" gradientUnits="userSpaceOnUse" gradientTransform="translate(13.642 71.598) scale(81.2562)">
<stop offset="0.09" stop-color="#FA8F21"/>
<stop offset="0.78" stop-color="#D82D7E"/>
</radialGradient>
<radialGradient id="paint1_radial_337_740" cx="0" cy="0" r="1" gradientUnits="userSpaceOnUse" gradientTransform="translate(53.8306 69.5429) scale(71.5063)">
<stop offset="0.64" stop-color="#8C3AAA" stop-opacity="0"/>
<stop offset="1" stop-color="#8C3AAA"/>
</radialGradient>
<clipPath id="clip0_337_740">
<rect width="64" height="64" fill="white" transform="translate(9.5 9)"/>
</clipPath>
</defs>
</svg>
