<svg width="73" height="82" viewBox="0 0 73 82" fill="none" xmlns="http://www.w3.org/2000/svg">
<path d="M24.0797 35.5307V33.0228C23.2091 32.8849 22.3298 32.8094 21.4485 32.7968C12.916 32.7786 5.36204 38.3079 2.79974 46.4465C0.237434 54.585 3.26193 63.4445 10.2655 68.3175C7.69728 65.5689 5.97948 62.1358 5.31946 58.4324C4.65945 54.729 5.08542 50.9138 6.54597 47.4472C8.00651 43.9806 10.4392 41.0108 13.5504 38.8963C16.6616 36.7818 20.3183 35.613 24.0791 35.531L24.0797 35.5307Z" fill="#25F4EE"/>
<path d="M24.5527 63.9392C29.3233 63.9326 33.2446 60.1744 33.4535 55.4084V12.8781H41.2232C41.0647 11.9894 40.989 11.0879 40.9972 10.1852L30.3698 10.1852V52.6745C30.193 57.4647 26.2624 61.259 21.469 61.2667C20.0366 61.2546 18.6276 60.9023 17.3579 60.239C18.1808 61.3791 19.2614 62.3085 20.5118 62.9515C21.7621 63.5945 23.1467 63.933 24.5527 63.9392ZM55.7358 27.3082V24.9442C52.8763 24.9454 50.0801 24.1016 47.6985 22.5188C49.7863 24.9459 52.6076 26.6271 55.7358 27.3082Z" fill="#25F4EE"/>
<path d="M47.6981 22.5189C45.3519 19.8474 44.0586 16.413 44.0597 12.8574H41.2228C41.5892 14.8232 42.3524 16.6938 43.4657 18.3549C44.579 20.016 46.0191 21.4328 47.6981 22.5189ZM21.4481 43.4243C19.4585 43.4344 17.5293 44.1094 15.9673 45.3419C14.4053 46.5744 13.3001 48.2938 12.8276 50.2265C12.355 52.1593 12.5421 54.1946 13.3591 56.0088C14.1761 57.823 15.5762 59.312 17.3367 60.2391C16.3742 58.9101 15.7978 57.3408 15.6711 55.7047C15.5445 54.0686 15.8727 52.4294 16.6193 50.9681C17.366 49.5068 18.502 48.2804 19.902 47.4243C21.302 46.5682 22.9113 46.1157 24.5523 46.117C25.4444 46.1287 26.3303 46.2675 27.1832 46.5294V35.7158C26.3122 35.5852 25.433 35.5165 24.5523 35.5103H24.0793V43.7325C23.2219 43.5026 22.3355 43.3987 21.4481 43.4243Z" fill="#FE2C55"/>
<path d="M55.7354 27.3082V35.5308C50.4416 35.5205 45.2853 33.8448 40.9968 30.7411V52.3455C40.9741 63.1258 32.2284 71.8532 21.4481 71.8532C17.4444 71.8604 13.5371 70.6251 10.2651 68.3176C12.9332 71.1873 16.4036 73.187 20.2244 74.0563C24.0451 74.9256 28.0391 74.6241 31.6861 73.1911C35.333 71.7582 38.4639 69.2602 40.671 66.0224C42.878 62.7847 44.0589 58.9574 44.0597 55.039V33.4958C48.3627 36.579 53.5253 38.2328 58.8188 38.2237V27.6364C57.7825 27.6333 56.7492 27.5233 55.7354 27.3082Z" fill="#FE2C55"/>
<path d="M40.9969 52.3456V30.7412C45.2985 33.8272 50.462 35.4812 55.756 35.469V27.2468C52.6285 26.5863 49.8004 24.9269 47.6983 22.5189C46.0192 21.4328 44.5791 20.016 43.4658 18.3549C42.3525 16.6938 41.5893 14.8232 41.2229 12.8574H33.4532V55.409C33.3775 57.2612 32.7268 59.0439 31.5914 60.5092C30.456 61.9745 28.8923 63.0498 27.1177 63.5855C25.343 64.1213 23.4456 64.0909 21.689 63.4986C19.9324 62.9063 18.404 61.7816 17.3161 60.2806C15.5553 59.3537 14.1549 57.8647 13.3376 56.0503C12.5204 54.236 12.3332 52.2005 12.8058 50.2676C13.2784 48.3346 14.3837 46.6152 15.9459 45.3826C17.5082 44.1501 19.4376 43.4752 21.4275 43.4653C22.3199 43.4733 23.2064 43.6118 24.0587 43.8766V35.654C20.2776 35.7181 16.5969 36.881 13.4653 39.0008C10.3337 41.1206 7.88657 44.1058 6.42221 47.5924C4.95786 51.0789 4.53958 54.9162 5.21838 58.6364C5.89717 62.3566 7.64372 65.7989 10.2451 68.5436C13.5491 70.775 17.462 71.931 21.4483 71.8533C32.2285 71.8533 40.9742 63.1258 40.9969 52.3456Z" fill="black"/>
</svg>
