<svg width="83" height="82" viewBox="0 0 83 82" fill="none" xmlns="http://www.w3.org/2000/svg">
<rect width="82" height="82" transform="translate(0.5)" fill="white"/>
<path d="M24.1863 9H58.8136C66.9498 9 73.5 15.5501 73.5 23.6863V58.3136C73.5 66.4498 66.9499 73 58.8136 73H24.1863C16.0501 73 9.5 66.4499 9.5 58.3137V23.6863C9.5 15.5501 16.0501 9 24.1863 9Z" fill="url(#paint0_linear_256_369)"/>
<path d="M41.4424 12.8679C26.2575 12.8679 13.9482 25.1771 13.9482 40.362C13.9482 55.5471 26.2575 67.8563 41.4424 67.8563C56.6275 67.8563 68.9367 55.5472 68.9367 40.362C68.9367 25.1771 56.6275 12.8679 41.4424 12.8679ZM41.4424 15.9024C54.9496 15.9024 65.9023 26.8551 65.9023 40.3622C65.9023 53.8694 54.9496 64.822 41.4424 64.822C27.9353 64.822 17.0056 53.8694 17.0056 40.3622C17.0056 26.8551 27.9353 15.9024 41.4424 15.9024Z" fill="white"/>
<path d="M52.8999 22.0225L33.8337 27.1781H33.8116V34.9335H33.8337V48.8001C32.9996 48.2981 31.977 48.0001 30.8783 48.0001C28.0481 48.0001 25.7676 49.9657 25.7676 52.3777C25.7676 54.7905 28.0488 56.7333 30.8783 56.7333C33.7078 56.7333 36.1127 54.7885 36.0118 52.3778L35.9599 51.1405L35.834 34.3774L50.9004 30.3105V45.6215C50.0207 45.0149 48.8978 44.6437 47.6783 44.6437C44.8481 44.6437 42.5668 46.6093 42.5668 49.0213C42.5668 51.4341 44.8481 53.3769 47.6783 53.3769C50.5085 53.3769 52.8871 51.4341 52.8871 49.0213C52.8871 48.9986 52.8879 48.9773 52.8871 48.9545L52.9007 29.7765V22.0225H52.8999Z" fill="white"/>
<defs>
<linearGradient id="paint0_linear_256_369" x1="41.4686" y1="72.7426" x2="41.5309" y2="9.77216" gradientUnits="userSpaceOnUse">
<stop stop-color="#BB5BFD"/>
<stop offset="1" stop-color="#EB82D6"/>
</linearGradient>
</defs>
</svg>
