<svg width="83" height="82" viewBox="0 0 83 82" fill="none" xmlns="http://www.w3.org/2000/svg">
<rect width="82" height="82" transform="translate(0.5)" fill="white"/>
<path d="M41.5 72C58.6208 72 72.5 58.1208 72.5 41C72.5 23.8792 58.6208 10 41.5 10C24.3792 10 10.5 23.8792 10.5 41C10.5 58.1208 24.3792 72 41.5 72Z" fill="#12C64B"/>
<path d="M52.6985 52.4594C52.453 52.879 52.051 53.1841 51.5807 53.3076C51.1105 53.4311 50.6104 53.363 50.1904 53.1182C45.3677 50.3 39.7983 49.8491 35.9726 49.9477C33.4876 50.0113 31.0162 50.3372 28.5996 50.92C28.1497 50.9996 27.6862 50.9086 27.2999 50.6646C26.9135 50.4207 26.632 50.0415 26.5105 49.601C26.3889 49.1606 26.436 48.6906 26.6426 48.2831C26.8491 47.8755 27.2002 47.5597 27.6273 47.3972C30.2896 46.7355 33.0155 46.3623 35.7577 46.2841C38.3821 46.1872 41.0092 46.3774 43.5923 46.8512C46.566 47.3895 49.4256 48.4332 52.0468 49.9371C52.2563 50.059 52.4394 50.2212 52.5858 50.4143C52.7321 50.6074 52.8386 50.8276 52.8992 51.0622C52.9598 51.2968 52.9733 51.5411 52.9389 51.7809C52.9044 52.0207 52.8227 52.2514 52.6985 52.4594Z" fill="white"/>
<path d="M56.1083 45.3752C55.9171 45.7035 55.643 45.9759 55.3135 46.165C54.984 46.3542 54.6106 46.4535 54.2307 46.4531C53.8452 46.4537 53.4667 46.3503 53.1351 46.1537C47.4248 42.8177 40.8302 42.2787 36.2965 42.4196C33.353 42.494 30.4257 42.8802 27.5636 43.5715C27.0162 43.7004 26.44 43.612 25.9563 43.325C25.4726 43.0379 25.1191 42.5745 24.9699 42.0322C24.8208 41.4899 24.8876 40.9108 25.1565 40.4168C25.4254 39.9228 25.8753 39.5522 26.4117 39.383C29.5657 38.6025 32.7949 38.1655 36.0429 38.0796C39.1523 37.9599 42.2655 38.1856 45.3252 38.7524C48.8446 39.3905 52.2285 40.6272 55.3298 42.409C55.8253 42.7001 56.1854 43.1755 56.3313 43.7314C56.4772 44.2873 56.397 44.8783 56.1083 45.3752Z" fill="white"/>
<path d="M60.5225 37.6146C60.3463 37.9172 60.1121 38.182 59.8333 38.3939C59.5544 38.6058 59.2365 38.7605 58.8978 38.8492C58.559 38.9379 58.2061 38.9588 57.8592 38.9108C57.5123 38.8627 57.1784 38.7467 56.8765 38.5692C43.2999 30.636 25.6898 35.353 25.5242 35.3988C25.182 35.5072 24.8214 35.5454 24.464 35.511C24.1067 35.4767 23.76 35.3706 23.4446 35.1991C23.1293 35.0275 22.8518 34.7941 22.6289 34.5127C22.4059 34.2313 22.2421 33.9079 22.1471 33.5616C22.0522 33.2154 22.0282 32.8536 22.0765 32.4979C22.1248 32.1422 22.2444 31.7998 22.4281 31.4915C22.6119 31.1831 22.856 30.915 23.1459 30.7032C23.4358 30.4915 23.7655 30.3404 24.1151 30.2591C27.9745 29.3079 31.9251 28.7752 35.8986 28.6704C39.7113 28.5283 43.5281 28.8047 47.2806 29.4947C51.596 30.2706 55.7469 31.779 59.5538 33.9545C59.8587 34.1302 60.1259 34.3645 60.3399 34.644C60.5538 34.9234 60.7103 35.2425 60.8004 35.5828C60.8905 35.923 60.9123 36.2777 60.8646 36.6264C60.8169 36.9752 60.7006 37.311 60.5225 37.6146Z" fill="white"/>
</svg>
