<svg width="83" height="82" viewBox="0 0 83 82" fill="none" xmlns="http://www.w3.org/2000/svg">
<path d="M26.8947 34.5947H4.5L8.39474 27H30.7895L26.8947 34.5947Z" fill="#1772F9"/>
<path d="M52.5999 34.5947H67.7894L63.8946 27H48.8999L52.5999 34.5947Z" fill="#1772F9"/>
<path d="M57.8577 45.3052H73.2419L69.1525 37.5157H54.1577L57.8577 45.3052Z" fill="#1772F9"/>
<path d="M63.3104 55.8211H78.4998L74.6051 48.2263H59.6104L63.3104 55.8211Z" fill="#1772F9"/>
<path d="M16.1841 55.821H5.27881L14.6262 37.5157H25.7262L16.1841 55.821Z" fill="#1772F9"/>
<path d="M30.2055 55.8211H19.1055L33.9055 27L39.9423 37.5158L30.2055 55.8211Z" fill="#1772F9"/>
<path d="M49.484 55.8211H60.7787L45.9787 27L39.9419 37.5158L49.484 55.8211Z" fill="#1772F9"/>
</svg>
