<svg width="83" height="82" viewBox="0 0 83 82" fill="none" xmlns="http://www.w3.org/2000/svg">
<rect x="0.5" width="82" height="82" fill="white"/>
<g clip-path="url(#clip0_256_410)">
<path d="M34.5398 22H34.5827C34.9102 22.3756 35.2803 22.7083 35.6291 23.0679L38.001 25.4397V25.4827C36.8527 26.6257 35.7096 27.7794 34.5612 28.9224C33.4075 27.7741 32.2591 26.6203 31.1054 25.4719C31.1645 25.3593 31.2771 25.2841 31.363 25.1929C32.4201 24.125 33.4934 23.0732 34.5398 22ZM41.4622 22H41.5051C41.5374 22.0483 41.5695 22.0912 41.6125 22.1342C42.7233 23.2342 43.8181 24.3504 44.9395 25.4451C44.9127 25.5095 44.8537 25.5524 44.8054 25.6007C43.6947 26.7062 42.5891 27.817 41.4783 28.9224C40.3192 27.7794 39.1816 26.615 38.0171 25.4773C39.144 24.3021 40.3299 23.1698 41.4622 22ZM48.3846 22H48.4276C48.6422 22.2576 48.8944 22.4776 49.1252 22.7191C49.9945 23.5884 50.8586 24.4524 51.7278 25.3217C51.7708 25.37 51.8406 25.4129 51.8566 25.4827C50.6921 26.615 49.5652 27.7902 48.3954 28.9224L45.0951 25.6222C45.0415 25.5632 44.9717 25.5202 44.9449 25.4451C45.5298 24.8763 46.0986 24.2914 46.6782 23.7172C47.247 23.143 47.8266 22.5849 48.3846 22ZM38.0654 32.33C39.1977 31.1977 40.3353 30.0654 41.4676 28.9278L41.5158 28.9493C42.6534 30.0923 43.791 31.2353 44.9394 32.3675C44.902 32.4534 44.8215 32.5017 44.7623 32.5715C43.936 33.3925 43.1095 34.2243 42.2831 35.0453C42.0148 35.3029 41.7572 35.5926 41.4837 35.8341C41.0919 35.48 40.7324 35.0829 40.3513 34.7179C39.5787 33.9452 38.8113 33.1725 38.0332 32.4051C38.0439 32.3836 38.0547 32.3514 38.0654 32.33ZM2.51416 47.2159H12.8388C12.8441 48.0422 12.8441 48.8687 12.8388 49.6897H9.11998V59.4562C9.11461 59.6172 9.13071 59.7782 9.09852 59.9392H6.22759C6.23832 56.5209 6.23295 53.108 6.23295 49.6897H2.51416V47.2159ZM21.4516 47.2159C22.4175 47.2159 23.3834 47.2159 24.3493 47.2213C24.344 51.4606 24.3601 55.6999 24.3386 59.9392H21.4569C21.4408 58.8123 21.4516 57.6854 21.4462 56.5585C21.4516 53.4461 21.4462 50.3337 21.4516 47.2159ZM72.5434 47.2159C73.5093 47.2159 74.4752 47.2159 75.4411 47.2213V57.3849C77.1208 57.3955 78.8058 57.3902 80.4854 57.3902V59.9392H72.5487C72.5326 55.6999 72.5487 51.4606 72.5434 47.2159ZM45.3044 51.482C45.0147 50.4838 44.4512 49.577 43.6677 48.8955C42.632 47.9779 41.2798 47.4788 39.9221 47.3017C39.1547 47.1891 38.3766 47.2213 37.604 47.2159H34.175C34.1106 47.2159 34.0408 47.2213 33.9764 47.232C33.9925 51.4337 33.9764 55.6355 33.9872 59.8371C33.9818 59.864 33.9764 59.9123 33.9711 59.9391H38.9294C39.3749 59.8586 39.831 59.864 40.2709 59.7674C41.7735 59.4937 43.217 58.7478 44.199 57.5619C44.9234 56.7033 45.3688 55.6245 45.5137 54.5138C45.6425 53.4997 45.5888 52.4587 45.3044 51.482ZM42.0364 55.7052C41.6769 56.2794 41.1456 56.7356 40.5285 57.0146C39.9704 57.2722 39.3533 57.3902 38.7414 57.4063C38.0975 57.4118 37.4535 57.4063 36.8096 57.4118C36.7774 56.698 36.8042 55.9843 36.7935 55.2707C36.7935 53.4086 36.7935 51.5519 36.799 49.6898H38.7898C39.7879 49.7113 40.8022 50.0547 41.5266 50.7631C42.1759 51.3909 42.5408 52.2763 42.5998 53.1725C42.6589 54.0471 42.4979 54.954 42.0364 55.7052ZM63.614 56.9449C62.4012 53.9988 61.1938 51.0474 59.9704 48.1067C59.8576 47.8115 59.7396 47.511 59.6055 47.2266C58.6073 47.2105 57.6093 47.2105 56.6111 47.2266C54.9046 51.3318 53.1981 55.4369 51.4918 59.5367C51.4381 59.6709 51.3737 59.7997 51.3469 59.9392H54.4325C54.7384 59.0913 55.0657 58.2542 55.3716 57.4063C57.121 57.3795 58.8757 57.401 60.6305 57.3956C60.7217 57.3688 60.7485 57.4655 60.77 57.5298C61.0651 58.3347 61.3658 59.1343 61.6554 59.9392H64.8377C64.4511 58.9304 64.0218 57.943 63.614 56.9449ZM56.1871 55.1472C56.171 55.0344 56.2408 54.9379 56.273 54.8359C56.8579 53.3066 57.459 51.7772 58.0385 50.2478C58.0492 50.2423 58.0707 50.2371 58.0814 50.2371C58.6878 51.8469 59.3049 53.4513 59.9167 55.0612C59.9167 55.0827 59.922 55.1256 59.922 55.1472C58.6771 55.1364 57.4321 55.1364 56.1871 55.1472Z" fill="black" stroke="black" stroke-width="0.161675"/>
</g>
<defs>
<clipPath id="clip0_256_410">
<rect width="78" height="37.9392" fill="white" transform="translate(2.5 22)"/>
</clipPath>
</defs>
</svg>
