<svg width="83" height="82" viewBox="0 0 83 82" fill="none" xmlns="http://www.w3.org/2000/svg">
<path d="M3.5 41.0004C3.5 62.0268 20.6 79 41.5 79C62.5267 79 79.5 61.9002 79.5 41.0004C79.5 19.9739 62.4 3.0007 41.5 3.0007C20.6 2.87404 3.5 19.9739 3.5 41.0004Z" fill="url(#paint0_linear_257_467)"/>
<path d="M34.9129 55.567C30.9229 55.567 26.9962 54.237 23.8929 51.6403C20.1562 48.4104 17.9396 44.0404 17.6229 39.2905C17.3696 34.6672 18.8896 30.2339 22.0562 26.7506C25.6029 22.8873 31.8729 16.8073 32.1896 16.554C33.8996 14.9074 36.6229 14.9707 38.2696 16.6807C39.9162 18.3907 39.8529 21.114 38.1429 22.7606C38.0796 22.824 31.7462 28.8406 28.4529 32.5139C26.8696 34.2238 26.1096 36.4405 26.2362 38.7205C26.3629 41.1271 27.5662 43.4071 29.5296 45.1171C32.1262 47.3971 37.2562 47.8404 40.4862 44.9904C42.3862 43.2804 44.7295 40.7471 44.7295 40.7471C46.3129 38.9738 49.0362 38.9105 50.8095 40.4938C52.5829 42.0771 52.6462 44.8004 51.0629 46.5737C50.9362 46.7004 48.4662 49.4237 46.1862 51.387C43.1462 54.1737 39.0296 55.567 34.9129 55.567ZM60.8795 55.2503C57.3329 59.1136 50.9995 65.1936 50.7462 65.4469C49.9229 66.2069 48.8462 66.6502 47.7696 66.6502C46.6296 66.6502 45.4896 66.2069 44.6662 65.3202C43.0196 63.6102 43.0829 60.8869 44.7929 59.2403C44.8562 59.1769 51.1896 53.1603 54.4829 49.487C56.0662 47.7771 56.8262 45.5604 56.6996 43.2804C56.5729 40.8738 55.3696 38.5938 53.4062 36.8838C50.8096 34.6672 45.6796 34.1605 42.4496 37.0105C40.5496 38.7205 38.2062 41.2538 38.2062 41.2538C36.6229 43.0271 33.8996 43.0904 32.1262 41.5071C30.3529 39.9238 30.2896 37.2005 31.8729 35.4272C31.9996 35.3005 34.4696 32.5772 36.7496 30.6139C42.8296 25.1673 52.8995 25.0406 59.0429 30.3605C62.7795 33.5905 64.9962 37.9605 65.3129 42.7104C65.6295 47.3971 64.0462 51.8303 60.8795 55.2503Z" fill="white"/>
<defs>
<linearGradient id="paint0_linear_257_467" x1="41.5036" y1="79.0025" x2="41.5036" y2="-39.8932" gradientUnits="userSpaceOnUse">
<stop stop-color="#2255FF"/>
<stop offset="1" stop-color="#00AAFF"/>
</linearGradient>
</defs>
</svg>
