<svg width="83" height="82" viewBox="0 0 83 82" fill="none" xmlns="http://www.w3.org/2000/svg">
<path d="M42.8293 61.3835L30.5196 61.1587C26.534 61.0804 22.5385 61.2367 18.631 60.4253C12.6869 59.2129 12.2658 53.2684 11.8251 48.2821C11.218 41.2719 11.453 34.1345 12.5988 27.1829C13.2456 23.2823 15.7912 20.9548 19.7278 20.7015C33.0168 19.7823 46.3941 19.8912 59.6535 20.3201C61.0539 20.3594 62.4639 20.5742 63.8447 20.8188C70.6608 22.0117 70.8271 28.7481 71.2689 34.419C71.7095 40.1484 71.5235 45.9071 70.6813 51.5975C70.0056 56.3089 68.7128 60.2599 63.2571 60.6414C56.4215 61.1401 49.7427 61.5416 42.8879 61.4138C42.8882 61.3835 42.8488 61.3835 42.8293 61.3835ZM35.5924 49.4554C40.7436 46.5025 45.7965 43.5988 50.9183 40.6657C45.7575 37.7128 40.7141 34.8091 35.5924 31.876V49.4554Z" fill="#FF0000"/>
</svg>
