<svg width="83" height="82" viewBox="0 0 83 82" fill="none" xmlns="http://www.w3.org/2000/svg">
<g clip-path="url(#clip0_257_447)">
<path d="M54.9503 37.8962C56.6667 37.8962 58.0736 39.3031 58.0736 41.0196C58.0736 42.7361 56.6667 44.143 54.9503 44.143C53.2338 44.143 51.8269 42.7361 51.8269 41.0196C51.8269 39.275 53.2338 37.8962 54.9503 37.8962ZM54.9503 35.8139C52.0801 35.8139 49.7446 38.1494 49.7446 41.0196C49.7446 43.8898 52.0801 46.2253 54.9503 46.2253C57.8204 46.2253 60.1559 43.8898 60.1559 41.0196C60.1559 38.1213 57.8204 35.8139 54.9503 35.8139Z" fill="#00A0EE"/>
<path d="M22.6472 36.1234V36.9676C21.7468 36.236 20.5931 35.7858 19.355 35.7858C16.4849 35.7858 14.1494 38.1213 14.1494 40.9915C14.1494 43.8616 16.4849 46.1971 19.355 46.1971C20.5931 46.1971 21.7468 45.7469 22.6472 45.0153V45.8595H24.5607V36.1234H22.6472ZM19.4676 44.2556C17.6667 44.2556 16.2317 42.7923 16.2317 41.0196C16.2317 39.2187 17.6949 37.7836 19.4676 37.7836C21.2685 37.7836 22.7035 39.2468 22.7035 41.0196C22.7035 42.7923 21.2403 44.2556 19.4676 44.2556Z" fill="#00A0EE"/>
<path d="M75.6883 36.1234V36.9676C74.7878 36.236 73.6342 35.7858 72.3961 35.7858C69.5259 35.7858 67.1904 38.1213 67.1904 40.9915C67.1904 43.8616 69.5259 46.1971 72.3961 46.1971C73.6342 46.1971 74.7878 45.7469 75.6883 45.0153V45.8595H77.6017V36.1234H75.6883ZM72.5367 44.2556C70.7359 44.2556 69.3008 42.7923 69.3008 41.0196C69.3008 39.2187 70.764 37.7836 72.5367 37.7836C74.3376 37.7836 75.7727 39.2468 75.7727 41.0196C75.7727 42.7923 74.3095 44.2556 72.5367 44.2556Z" fill="#00A0EE"/>
<path d="M63.5886 36.7425C62.4631 37.4459 61.5063 38.7122 61.5063 40.9633V45.8876H63.5886V40.9633C63.5886 37.7273 66.9371 37.8962 66.9371 37.8962V35.8139C66.9089 35.8139 65.1081 35.7576 63.5886 36.7425Z" fill="#00A0EE"/>
<path d="M34.4652 36.855C33.5929 36.2078 32.5237 35.8139 31.3419 35.8139C30.16 35.8139 29.0908 36.2078 28.2185 36.855C26.9522 37.8118 26.1362 39.3313 26.1362 41.0196V45.9158H28.2185V45.1841V41.0196C28.2185 39.3031 29.6254 37.8962 31.3419 37.8962C33.0583 37.8962 34.4652 39.3031 34.4652 41.0196V45.1841V45.9158H36.5475V41.0196C36.5475 39.3031 35.7315 37.7836 34.4652 36.855Z" fill="#00A0EE"/>
<path d="M47.3808 33C46.8462 33 46.4241 33.4221 46.4241 33.9567V36.9676C45.5237 36.236 44.37 35.7857 43.1319 35.7857C40.2618 35.7857 37.9263 38.1213 37.9263 40.9914C37.9263 43.8616 40.2618 46.1971 43.1319 46.1971C44.37 46.1971 45.5237 45.7469 46.4241 45.0153V45.8595H48.3375V33.9567V33H47.3808ZM43.2445 44.2555C41.4436 44.2555 40.0085 42.7923 40.0085 41.0196C40.0085 39.2187 41.4717 37.7836 43.2445 37.7836C45.0453 37.7836 46.4804 39.2468 46.4804 41.0196C46.5085 42.7923 45.0453 44.2555 43.2445 44.2555Z" fill="#00A0EE"/>
<path d="M7.70563 35.8139C6.46753 35.8139 5.31385 36.2641 4.41342 36.9957V36.1516H2.5V48.0824V49.0392H3.45671C3.99134 49.0392 4.41342 48.6171 4.41342 48.0824V45.0434C5.31385 45.7751 6.46753 46.2253 7.70563 46.2253C10.6039 46.2253 12.9113 43.8898 12.9113 41.0196C12.9113 38.1213 10.6039 35.8139 7.70563 35.8139ZM7.59307 44.2556C5.79221 44.2556 4.35714 42.7923 4.35714 41.0196C4.35714 39.2187 5.82035 37.7836 7.59307 37.7836C9.3658 37.7836 10.829 39.2468 10.829 41.0196C10.829 42.7923 9.39394 44.2556 7.59307 44.2556Z" fill="#00A0EE"/>
<path d="M79.5431 36.1234C79.0085 36.1234 78.5864 35.7013 78.5864 35.1667C78.5864 34.632 79.0085 34.21 79.5431 34.21C80.0778 34.21 80.4999 34.632 80.4999 35.1667C80.4999 35.7013 80.0778 36.1234 79.5431 36.1234ZM79.5431 34.3225C79.0648 34.3225 78.699 34.6883 78.699 35.1667C78.699 35.6169 79.0648 36.0108 79.5431 36.0108C80.0215 36.0108 80.3873 35.6169 80.3873 35.1667C80.3873 34.6883 79.9934 34.3225 79.5431 34.3225ZM79.7964 35.7295L79.515 35.3074H79.318V35.7295H79.1773V34.632H79.6276C79.8245 34.632 79.9652 34.7727 79.9652 34.9697C79.9652 35.223 79.7401 35.3074 79.6838 35.3074L79.9652 35.7576H79.7964V35.7295ZM79.6276 34.7446H79.318V35.1667H79.6276C79.712 35.1667 79.8245 35.0823 79.8245 34.9697C79.8245 34.829 79.712 34.7446 79.6276 34.7446Z" fill="#00A0EE"/>
</g>
<defs>
<clipPath id="clip0_257_447">
<rect width="78" height="16.0391" fill="white" transform="translate(2.5 33)"/>
</clipPath>
</defs>
</svg>
