<svg width="146" height="136" viewBox="0 0 146 136" fill="none" xmlns="http://www.w3.org/2000/svg">
<path opacity="0.1" d="M133.494 78.5978C141.61 78.5978 145.667 82.6564 145.667 90.7736V123.784C145.667 131.901 141.61 135.959 133.494 135.959H102.113C93.9977 135.959 89.9399 131.901 89.9399 123.784V90.7736C89.9399 71.8334 91.9237 55.3284 95.8914 41.2586C100.039 27.0084 108.065 14.562 119.968 3.91939C123.936 0.492118 127.272 0.0411611 129.977 2.56652L142.151 13.9306C144.856 16.456 144.225 19.5225 140.257 23.1301C134.125 28.5416 129.075 36.3883 125.108 46.6701C121.32 56.7715 119.427 67.4141 119.427 78.5978H133.494ZM44.2216 78.5978C52.3373 78.5978 56.3951 82.6564 56.3951 90.7736V123.784C56.3951 131.901 52.3373 135.959 44.2216 135.959H12.841C4.72532 135.959 0.66748 131.901 0.66748 123.784V90.7736C0.66748 71.8334 2.65131 55.3284 6.61897 41.2586C10.767 27.0084 18.7925 14.562 30.6955 3.91939C34.6631 0.492118 37.9996 0.0411611 40.7048 2.56652L52.8783 13.9306C55.5835 16.456 54.9523 19.5225 50.9846 23.1301C44.8528 28.5416 39.8031 36.3883 35.8354 46.6701C32.0481 56.7715 30.1544 67.4141 30.1544 78.5978H44.2216Z" fill="white"/>
</svg>
