<svg width="48" height="48" viewBox="0 0 48 48" fill="none" xmlns="http://www.w3.org/2000/svg">
<path d="M33.3508 9.66553L38.3344 14.6468L33.3508 9.66553ZM36.5556 5.27725L23.0801 18.7527C22.3839 19.448 21.909 20.3338 21.7154 21.2986L20.4707 27.5292L26.7014 26.2822C27.6661 26.0892 28.5508 25.6163 29.2473 24.9198L42.7227 11.4444C43.1276 11.0394 43.4488 10.5587 43.668 10.0296C43.8872 9.50055 43.9999 8.93348 43.9999 8.36081C43.9999 7.78814 43.8872 7.22108 43.668 6.692C43.4488 6.16292 43.1276 5.68219 42.7227 5.27725C42.3178 4.87231 41.837 4.5511 41.3079 4.33195C40.7789 4.1128 40.2118 4 39.6391 4C39.0665 4 38.4994 4.1128 37.9703 4.33195C37.4412 4.5511 36.9605 4.87231 36.5556 5.27725V5.27725Z" stroke="#FFC93E" stroke-width="2.5" stroke-linecap="round" stroke-linejoin="round"/>
<path d="M39.2945 32.2351V39.294C39.2945 40.5421 38.7987 41.7391 37.9161 42.6216C37.0336 43.5041 35.8366 43.9999 34.5885 43.9999H8.70593C7.45784 43.9999 6.26087 43.5041 5.37833 42.6216C4.4958 41.7391 4 40.5421 4 39.294V13.4114C4 12.1633 4.4958 10.9663 5.37833 10.0838C6.26087 9.20125 7.45784 8.70544 8.70593 8.70544H15.7648" stroke="#FFC93E" stroke-width="2.5" stroke-linecap="round" stroke-linejoin="round"/>
</svg>
