<svg width="476" height="381" viewBox="0 0 476 381" fill="none" xmlns="http://www.w3.org/2000/svg">
<rect width="476" height="381" rx="30" fill="white"/>
<circle cx="290.5" cy="313.5" r="2.5" fill="#FF5A5A"/>
<circle cx="298.5" cy="313.5" r="2.5" fill="#F8DF61"/>
<circle cx="306.5" cy="313.5" r="2.5" fill="#6194F8"/>
<circle cx="290.5" cy="272.5" r="2.5" fill="#FF5A5A"/>
<circle cx="298.5" cy="272.5" r="2.5" fill="#F8DF61"/>
<circle cx="306.5" cy="272.5" r="2.5" fill="#6194F8"/>
<path fill-rule="evenodd" clip-rule="evenodd" d="M160.473 228.012C163.819 234.001 170.221 238.051 177.568 238.051C188.376 238.051 197.137 229.29 197.137 218.482C197.137 207.675 188.376 198.914 177.568 198.914C166.761 198.914 158 207.675 158 218.482C158 221.942 158.898 225.192 160.473 228.012Z" fill="#EEF7FE"/>
<path fill-rule="evenodd" clip-rule="evenodd" d="M281.473 228.012C284.819 234.001 291.221 238.051 298.568 238.051C309.376 238.051 318.137 229.29 318.137 218.482C318.137 207.675 309.376 198.914 298.568 198.914C287.761 198.914 279 207.675 279 218.482C279 221.942 279.898 225.192 281.473 228.012Z" fill="#1D3ADB"/>
<path d="M57.938 182H50.9895C50.9992 181.157 51.2027 180.42 51.6 179.79C51.9973 179.161 52.54 178.613 53.2281 178.148C53.5576 177.906 53.9016 177.673 54.2602 177.45C54.6188 177.217 54.9483 176.97 55.2487 176.709C55.5491 176.447 55.7962 176.166 55.9901 175.866C56.1839 175.555 56.2856 175.202 56.2953 174.804C56.2953 174.62 56.2711 174.426 56.2226 174.223C56.1839 174.01 56.1015 173.816 55.9755 173.641C55.8495 173.457 55.6751 173.307 55.4522 173.191C55.2293 173.065 54.9386 173.002 54.58 173.002C54.2505 173.002 53.9743 173.07 53.7514 173.205C53.5382 173.331 53.3638 173.511 53.2281 173.743C53.1021 173.966 53.0052 174.233 52.9374 174.543C52.8792 174.853 52.8453 175.187 52.8356 175.546H51.1784C51.1784 174.984 51.2511 174.465 51.3965 173.99C51.5515 173.506 51.7793 173.089 52.0797 172.74C52.3801 172.391 52.7435 172.12 53.17 171.926C53.6061 171.723 54.11 171.621 54.6818 171.621C55.302 171.621 55.8205 171.723 56.2372 171.926C56.6539 172.13 56.9882 172.386 57.2402 172.697C57.5019 173.007 57.686 173.346 57.7926 173.714C57.8992 174.073 57.9525 174.417 57.9525 174.746C57.9525 175.153 57.8895 175.522 57.7635 175.851C57.6375 176.181 57.4679 176.486 57.2547 176.767C57.0415 177.038 56.7993 177.29 56.5279 177.523C56.2566 177.755 55.9755 177.973 55.6848 178.177C55.3941 178.38 55.1033 178.574 54.8126 178.758C54.5219 178.942 54.2505 179.127 53.9985 179.311C53.7563 179.495 53.5431 179.689 53.3589 179.892C53.1748 180.086 53.0488 180.294 52.981 180.517H57.938V182ZM59.0088 171.824H65.9718V173.205C65.4388 173.806 64.9542 174.431 64.5181 175.081C64.0821 175.72 63.6993 176.403 63.3698 177.13C63.05 177.847 62.7883 178.608 62.5848 179.412C62.3813 180.217 62.2456 181.079 62.1778 182H60.3607C60.4188 181.196 60.5545 180.401 60.7677 179.616C60.9906 178.831 61.2716 178.07 61.6108 177.334C61.9597 176.597 62.3619 175.89 62.8174 175.211C63.2728 174.533 63.7622 173.898 64.2856 173.307H59.0088V171.824Z" fill="#22215B" fill-opacity="0.3"/>
<path d="M61.1742 219.802H62.4098V221.067H61.1742V223H59.8223V221.067H54.6327V219.802L58.2814 212.824H59.735L56.0864 219.802H59.8223V216.924H61.1742V219.802Z" fill="#22215B"/>
<path d="M53.522 254.755L56.1967 253.824H57.3597V264H56.0223V255.278L53.8564 255.918L53.522 254.755ZM58.7035 254.755L61.3782 253.824H62.5412V264H61.2038V255.278L59.0379 255.918L58.7035 254.755Z" fill="#22215B"/>
<path d="M52.0811 295.755L54.7559 294.824H55.9188V305H54.5814V296.278L52.4155 296.918L52.0811 295.755ZM62.99 299.738C64.0464 300.28 64.5745 301.104 64.5745 302.209C64.5745 303.139 64.2499 303.871 63.6006 304.404C62.9416 304.927 62.1033 305.189 61.0858 305.189C60.0682 305.189 59.2348 304.927 58.5855 304.404C57.9362 303.871 57.6115 303.139 57.6115 302.209C57.6115 301.104 58.1397 300.28 59.196 299.738C58.3626 299.214 57.9458 298.473 57.9458 297.514C57.9458 296.593 58.2511 295.886 58.8617 295.391C59.4819 294.887 60.2232 294.635 61.0858 294.635C61.9676 294.635 62.709 294.887 63.3099 295.391C63.9301 295.886 64.2402 296.593 64.2402 297.514C64.2402 298.473 63.8235 299.214 62.99 299.738ZM61.0858 295.929C60.5527 295.929 60.1166 296.07 59.7775 296.351C59.448 296.632 59.2832 297.029 59.2832 297.543C59.2832 298.047 59.4528 298.444 59.792 298.735C60.1312 299.025 60.5624 299.171 61.0858 299.171C61.6091 299.171 62.0403 299.025 62.3795 298.735C62.7187 298.444 62.8883 298.047 62.8883 297.543C62.8883 297.029 62.7235 296.632 62.394 296.351C62.0645 296.07 61.6285 295.929 61.0858 295.929ZM61.0858 303.895C61.7447 303.895 62.2681 303.74 62.6557 303.43C63.0433 303.12 63.2372 302.684 63.2372 302.122C63.2372 301.569 63.0433 301.138 62.6557 300.828C62.2681 300.518 61.7447 300.363 61.0858 300.363C60.4365 300.363 59.918 300.518 59.5303 300.828C59.1427 301.138 58.9489 301.569 58.9489 302.122C58.9489 302.684 59.1427 303.12 59.5303 303.43C59.918 303.74 60.4365 303.895 61.0858 303.895Z" fill="#22215B"/>
<path d="M57.8713 344H51.3008V342.895L54.8913 339.232C55.8507 338.273 56.3304 337.449 56.3304 336.761C56.3304 336.199 56.156 335.758 55.8071 335.438C55.4679 335.108 55.0415 334.944 54.5279 334.944C53.5685 334.944 52.8707 335.399 52.4346 336.31L51.3008 335.641C51.6109 334.992 52.047 334.498 52.609 334.159C53.1711 333.81 53.8059 333.635 54.5133 333.635C55.3758 333.635 56.1172 333.916 56.7374 334.479C57.3674 335.05 57.6823 335.806 57.6823 336.746C57.6823 337.773 57.0766 338.893 55.8652 340.104L53.2632 342.692H57.8713V344ZM60.7718 337.793H62.2545C63.2139 337.793 64.0231 338.079 64.6821 338.651C65.3508 339.222 65.6852 340.002 65.6852 340.991C65.6852 341.989 65.346 342.769 64.6676 343.331C63.9795 343.903 63.1558 344.189 62.1964 344.189C61.4017 344.189 60.6991 344 60.0886 343.622C59.4877 343.234 59.071 342.697 58.8384 342.008L59.9868 341.354C60.1225 341.839 60.3842 342.212 60.7718 342.474C61.1594 342.735 61.6343 342.866 62.1964 342.866C62.8457 342.866 63.3642 342.701 63.7518 342.372C64.1491 342.033 64.3478 341.572 64.3478 340.991C64.3478 340.409 64.1491 339.949 63.7518 339.61C63.3642 339.271 62.8554 339.101 62.2255 339.101H59.3472L59.7252 333.824H65.2927V335.089H60.9462L60.7718 337.793Z" fill="#22215B"/>
<path d="M115.978 344H109.407V342.895L112.998 339.232C113.957 338.273 114.437 337.449 114.437 336.761C114.437 336.199 114.262 335.758 113.914 335.438C113.574 335.108 113.148 334.944 112.634 334.944C111.675 334.944 110.977 335.399 110.541 336.31L109.407 335.641C109.717 334.992 110.153 334.498 110.716 334.159C111.278 333.81 111.912 333.635 112.62 333.635C113.482 333.635 114.224 333.916 114.844 334.479C115.474 335.05 115.789 335.806 115.789 336.746C115.789 337.773 115.183 338.893 113.972 340.104L111.37 342.692H115.978V344ZM120.205 337.342C121.222 337.342 122.06 337.662 122.719 338.302C123.378 338.932 123.708 339.75 123.708 340.758C123.708 341.766 123.378 342.59 122.719 343.23C122.06 343.869 121.222 344.189 120.205 344.189C119.168 344.189 118.324 343.869 117.675 343.23C117.026 342.59 116.701 341.766 116.701 340.758C116.701 339.964 116.905 339.285 117.312 338.723L120.582 333.824H122.123L119.725 337.371C120.016 337.352 120.175 337.342 120.205 337.342ZM120.205 338.636C119.555 338.636 119.032 338.83 118.635 339.217C118.237 339.605 118.039 340.119 118.039 340.758C118.039 341.398 118.237 341.916 118.635 342.314C119.042 342.701 119.565 342.895 120.205 342.895C120.844 342.895 121.363 342.701 121.76 342.314C122.167 341.916 122.37 341.398 122.37 340.758C122.37 340.119 122.167 339.605 121.76 339.217C121.363 338.83 120.844 338.636 120.205 338.636Z" fill="#22215B"/>
<path d="M110.202 295.755L112.877 294.824H114.039V305H112.702V296.278L110.536 296.918L110.202 295.755ZM122.593 298.052C122.593 298.846 122.385 299.529 121.968 300.101H121.983L118.698 305H117.171L119.584 301.439C119.294 301.458 119.129 301.468 119.09 301.468C118.063 301.468 117.22 301.153 116.561 300.523C115.911 299.883 115.587 299.059 115.587 298.052C115.587 297.034 115.911 296.215 116.561 295.595C117.21 294.955 118.053 294.635 119.09 294.635C120.108 294.635 120.946 294.955 121.605 295.595C122.264 296.225 122.593 297.044 122.593 298.052ZM119.09 295.929C118.451 295.929 117.927 296.123 117.52 296.511C117.123 296.898 116.924 297.412 116.924 298.052C116.924 298.691 117.123 299.21 117.52 299.607C117.927 299.995 118.451 300.188 119.09 300.188C119.73 300.188 120.248 299.995 120.646 299.607C121.053 299.21 121.256 298.691 121.256 298.052C121.256 297.412 121.057 296.898 120.66 296.511C120.263 296.123 119.739 295.929 119.09 295.929Z" fill="#22215B"/>
<path d="M110.28 254.755L112.955 253.824H114.118V264H112.78V255.278L110.614 255.918L110.28 254.755ZM122.352 264H115.781V262.895L119.372 259.232C120.331 258.273 120.811 257.449 120.811 256.761C120.811 256.199 120.636 255.758 120.288 255.438C119.948 255.108 119.522 254.944 119.008 254.944C118.049 254.944 117.351 255.399 116.915 256.31L115.781 255.641C116.091 254.992 116.527 254.498 117.089 254.159C117.652 253.81 118.286 253.635 118.994 253.635C119.856 253.635 120.598 253.916 121.218 254.479C121.848 255.05 122.163 255.806 122.163 256.746C122.163 257.773 121.557 258.893 120.346 260.104L117.744 262.692H122.352V264Z" fill="#22215B"/>
<path d="M114.996 216.793H116.478C117.438 216.793 118.247 217.079 118.906 217.651C119.575 218.222 119.909 219.002 119.909 219.991C119.909 220.989 119.57 221.769 118.891 222.331C118.203 222.903 117.38 223.189 116.42 223.189C115.626 223.189 114.923 223 114.312 222.622C113.712 222.234 113.295 221.697 113.062 221.008L114.211 220.354C114.346 220.839 114.608 221.212 114.996 221.474C115.383 221.735 115.858 221.866 116.42 221.866C117.07 221.866 117.588 221.701 117.976 221.372C118.373 221.033 118.572 220.572 118.572 219.991C118.572 219.409 118.373 218.949 117.976 218.61C117.588 218.271 117.079 218.101 116.449 218.101H113.571L113.949 212.824H119.517V214.089H115.17L114.996 216.793Z" fill="#22215B"/>
<path d="M115.938 182H108.989C108.999 181.157 109.203 180.42 109.6 179.79C109.997 179.161 110.54 178.613 111.228 178.148C111.558 177.906 111.902 177.673 112.26 177.45C112.619 177.217 112.948 176.97 113.249 176.709C113.549 176.447 113.796 176.166 113.99 175.866C114.184 175.555 114.286 175.202 114.295 174.804C114.295 174.62 114.271 174.426 114.223 174.223C114.184 174.01 114.102 173.816 113.976 173.641C113.85 173.457 113.675 173.307 113.452 173.191C113.229 173.065 112.939 173.002 112.58 173.002C112.251 173.002 111.974 173.07 111.751 173.205C111.538 173.331 111.364 173.511 111.228 173.743C111.102 173.966 111.005 174.233 110.937 174.543C110.879 174.853 110.845 175.187 110.836 175.546H109.178C109.178 174.984 109.251 174.465 109.396 173.99C109.552 173.506 109.779 173.089 110.08 172.74C110.38 172.391 110.744 172.12 111.17 171.926C111.606 171.723 112.11 171.621 112.682 171.621C113.302 171.621 113.82 171.723 114.237 171.926C114.654 172.13 114.988 172.386 115.24 172.697C115.502 173.007 115.686 173.346 115.793 173.714C115.899 174.073 115.952 174.417 115.952 174.746C115.952 175.153 115.89 175.522 115.764 175.851C115.638 176.181 115.468 176.486 115.255 176.767C115.042 177.038 114.799 177.29 114.528 177.523C114.257 177.755 113.976 177.973 113.685 178.177C113.394 178.38 113.103 178.574 112.813 178.758C112.522 178.942 112.251 179.127 111.999 179.311C111.756 179.495 111.543 179.689 111.359 179.892C111.175 180.086 111.049 180.294 110.981 180.517H115.938V182ZM120.541 172.929C120.095 172.929 119.717 173.065 119.407 173.336C119.097 173.598 118.942 173.981 118.942 174.485C118.942 174.969 119.092 175.342 119.393 175.604C119.693 175.856 120.076 175.982 120.541 175.982C121.006 175.982 121.389 175.856 121.69 175.604C121.99 175.342 122.14 174.969 122.14 174.485C122.14 173.981 121.985 173.598 121.675 173.336C121.365 173.065 120.987 172.929 120.541 172.929ZM120.541 182.204C120.028 182.204 119.548 182.131 119.102 181.985C118.666 181.84 118.288 181.632 117.968 181.36C117.648 181.079 117.396 180.74 117.212 180.343C117.038 179.945 116.951 179.5 116.951 179.005C116.951 178.366 117.115 177.828 117.445 177.392C117.784 176.956 118.24 176.665 118.811 176.52V176.491C118.346 176.316 117.988 176.05 117.736 175.691C117.493 175.323 117.372 174.892 117.372 174.397C117.372 173.525 117.644 172.847 118.186 172.362C118.739 171.868 119.524 171.621 120.541 171.621C121.559 171.621 122.339 171.868 122.882 172.362C123.434 172.847 123.71 173.525 123.71 174.397C123.71 174.892 123.584 175.323 123.332 175.691C123.09 176.05 122.736 176.316 122.271 176.491V176.52C122.843 176.665 123.293 176.956 123.623 177.392C123.962 177.828 124.132 178.366 124.132 179.005C124.132 179.5 124.04 179.945 123.856 180.343C123.681 180.74 123.434 181.079 123.114 181.36C122.794 181.632 122.412 181.84 121.966 181.985C121.53 182.131 121.055 182.204 120.541 182.204ZM120.541 180.895C121.094 180.895 121.554 180.73 121.922 180.401C122.29 180.071 122.475 179.606 122.475 179.005C122.475 178.443 122.29 178.007 121.922 177.697C121.554 177.377 121.094 177.217 120.541 177.217C119.989 177.217 119.528 177.377 119.16 177.697C118.792 178.007 118.608 178.443 118.608 179.005C118.608 179.606 118.792 180.071 119.16 180.401C119.528 180.73 119.989 180.895 120.541 180.895Z" fill="#22215B" fill-opacity="0.3"/>
<path d="M177.34 344H170.769V342.895L174.36 339.232C175.319 338.273 175.799 337.449 175.799 336.761C175.799 336.199 175.624 335.758 175.276 335.438C174.936 335.108 174.51 334.944 173.996 334.944C173.037 334.944 172.339 335.399 171.903 336.31L170.769 335.641C171.079 334.992 171.515 334.498 172.078 334.159C172.64 333.81 173.274 333.635 173.982 333.635C174.844 333.635 175.586 333.916 176.206 334.479C176.836 335.05 177.151 335.806 177.151 336.746C177.151 337.773 176.545 338.893 175.334 340.104L172.732 342.692H177.34V344ZM177.889 335.104V333.824H184.242V335.031L180.535 344H179.125L182.803 335.104H177.889Z" fill="#22215B"/>
<path d="M176.254 305H169.683V303.895L173.274 300.232C174.233 299.273 174.713 298.449 174.713 297.761C174.713 297.199 174.538 296.758 174.19 296.438C173.85 296.108 173.424 295.944 172.91 295.944C171.951 295.944 171.253 296.399 170.817 297.31L169.683 296.641C169.993 295.992 170.429 295.498 170.992 295.159C171.554 294.81 172.188 294.635 172.896 294.635C173.758 294.635 174.5 294.916 175.12 295.479C175.75 296.05 176.065 296.806 176.065 297.746C176.065 298.773 175.459 299.893 174.248 301.104L171.646 303.692H176.254V305ZM184.156 303.75C183.477 304.709 182.513 305.189 181.263 305.189C180.013 305.189 179.048 304.709 178.37 303.75C177.682 302.781 177.338 301.502 177.338 299.912C177.338 298.323 177.682 297.044 178.37 296.075C179.048 295.115 180.013 294.635 181.263 294.635C182.513 294.635 183.477 295.115 184.156 296.075C184.844 297.044 185.188 298.323 185.188 299.912C185.188 301.502 184.844 302.781 184.156 303.75ZM178.69 299.912C178.69 301.172 178.913 302.146 179.358 302.834C179.804 303.522 180.439 303.866 181.263 303.866C182.087 303.866 182.721 303.522 183.167 302.834C183.623 302.146 183.85 301.172 183.85 299.912C183.85 298.652 183.623 297.678 183.167 296.99C182.721 296.293 182.087 295.944 181.263 295.944C180.439 295.944 179.804 296.288 179.358 296.976C178.913 297.664 178.69 298.643 178.69 299.912Z" fill="#22215B"/>
<path d="M171.223 253.755L173.898 252.824H175.061V263H173.723L173.723 254.278L171.557 254.918L171.223 253.755ZM183.004 254.016L180.795 256.996C181.589 257.142 182.229 257.481 182.713 258.014C183.198 258.547 183.44 259.206 183.44 259.991C183.44 260.989 183.101 261.769 182.423 262.331C181.735 262.903 180.911 263.189 179.952 263.189C179.157 263.189 178.464 263.01 177.873 262.651C177.282 262.293 176.86 261.784 176.608 261.125L177.742 260.456C178.042 261.396 178.779 261.866 179.952 261.866C180.591 261.866 181.105 261.701 181.492 261.372C181.89 261.033 182.088 260.572 182.088 259.991C182.088 259.409 181.89 258.949 181.492 258.61C181.105 258.271 180.591 258.101 179.952 258.101H179.603L179.065 257.273L181.42 254.089H176.899V252.824H183.004V254.016Z" fill="#22215B"/>
<path d="M177.499 216.342C178.517 216.342 179.355 216.662 180.014 217.302C180.673 217.932 181.003 218.75 181.003 219.758C181.003 220.766 180.673 221.59 180.014 222.23C179.355 222.869 178.517 223.189 177.499 223.189C176.472 223.189 175.629 222.869 174.97 222.23C174.321 221.59 173.996 220.766 173.996 219.758C173.996 218.973 174.2 218.295 174.607 217.723L177.877 212.824H179.418L177.02 216.371C177.233 216.352 177.393 216.342 177.499 216.342ZM175.929 221.314C176.336 221.701 176.86 221.895 177.499 221.895C178.139 221.895 178.657 221.701 179.055 221.314C179.462 220.916 179.665 220.398 179.665 219.758C179.665 219.119 179.462 218.605 179.055 218.217C178.657 217.83 178.139 217.636 177.499 217.636C176.85 217.636 176.327 217.83 175.929 218.217C175.532 218.605 175.333 219.119 175.333 219.758C175.333 220.398 175.532 220.916 175.929 221.314Z" fill="#22215B"/>
<path d="M176.938 182H169.989C169.999 181.157 170.203 180.42 170.6 179.79C170.997 179.161 171.54 178.613 172.228 178.148C172.558 177.906 172.902 177.673 173.26 177.45C173.619 177.217 173.948 176.97 174.249 176.709C174.549 176.447 174.796 176.166 174.99 175.866C175.184 175.555 175.286 175.202 175.295 174.804C175.295 174.62 175.271 174.426 175.223 174.223C175.184 174.01 175.102 173.816 174.976 173.641C174.85 173.457 174.675 173.307 174.452 173.191C174.229 173.065 173.939 173.002 173.58 173.002C173.251 173.002 172.974 173.07 172.751 173.205C172.538 173.331 172.364 173.511 172.228 173.743C172.102 173.966 172.005 174.233 171.937 174.543C171.879 174.853 171.845 175.187 171.836 175.546H170.178C170.178 174.984 170.251 174.465 170.396 173.99C170.552 173.506 170.779 173.089 171.08 172.74C171.38 172.391 171.744 172.12 172.17 171.926C172.606 171.723 173.11 171.621 173.682 171.621C174.302 171.621 174.82 171.723 175.237 171.926C175.654 172.13 175.988 172.386 176.24 172.697C176.502 173.007 176.686 173.346 176.793 173.714C176.899 174.073 176.952 174.417 176.952 174.746C176.952 175.153 176.89 175.522 176.764 175.851C176.638 176.181 176.468 176.486 176.255 176.767C176.042 177.038 175.799 177.29 175.528 177.523C175.257 177.755 174.976 177.973 174.685 178.177C174.394 178.38 174.103 178.574 173.813 178.758C173.522 178.942 173.251 179.127 172.999 179.311C172.756 179.495 172.543 179.689 172.359 179.892C172.175 180.086 172.049 180.294 171.981 180.517H176.938V182ZM179.84 179.427C179.879 179.844 180.025 180.183 180.276 180.445C180.538 180.697 180.887 180.823 181.323 180.823C181.769 180.823 182.123 180.706 182.384 180.474C182.656 180.231 182.864 179.936 183.009 179.587C183.155 179.228 183.252 178.85 183.3 178.453C183.358 178.046 183.402 177.673 183.431 177.334L183.402 177.305C183.179 177.702 182.874 178.007 182.486 178.22C182.098 178.424 181.672 178.526 181.207 178.526C180.722 178.526 180.281 178.443 179.884 178.279C179.496 178.114 179.162 177.886 178.881 177.595C178.6 177.295 178.382 176.936 178.227 176.52C178.072 176.093 177.994 175.618 177.994 175.095C177.994 174.601 178.072 174.145 178.227 173.729C178.382 173.302 178.61 172.934 178.91 172.624C179.21 172.304 179.579 172.057 180.015 171.883C180.451 171.708 180.945 171.621 181.498 171.621C182.215 171.621 182.806 171.761 183.271 172.042C183.736 172.314 184.1 172.692 184.361 173.176C184.633 173.651 184.822 174.213 184.928 174.863C185.035 175.512 185.088 176.205 185.088 176.941C185.088 177.552 185.02 178.167 184.885 178.787C184.759 179.408 184.545 179.975 184.245 180.488C183.945 180.992 183.547 181.404 183.053 181.724C182.568 182.044 181.968 182.204 181.25 182.204C180.843 182.204 180.461 182.136 180.102 182C179.743 181.864 179.424 181.675 179.143 181.433C178.871 181.191 178.648 180.9 178.474 180.561C178.3 180.222 178.203 179.844 178.183 179.427H179.84ZM181.425 173.002C181.124 173.002 180.863 173.06 180.64 173.176C180.417 173.283 180.233 173.433 180.088 173.627C179.942 173.821 179.831 174.044 179.753 174.296C179.685 174.548 179.651 174.809 179.651 175.081C179.651 175.362 179.685 175.633 179.753 175.895C179.831 176.147 179.942 176.369 180.088 176.563C180.233 176.757 180.417 176.917 180.64 177.043C180.863 177.159 181.124 177.217 181.425 177.217C181.735 177.217 182.006 177.159 182.239 177.043C182.472 176.927 182.66 176.772 182.806 176.578C182.961 176.374 183.077 176.147 183.155 175.895C183.232 175.633 183.271 175.362 183.271 175.081C183.271 174.809 183.232 174.548 183.155 174.296C183.077 174.044 182.961 173.826 182.806 173.641C182.66 173.448 182.472 173.293 182.239 173.176C182.006 173.06 181.735 173.002 181.425 173.002Z" fill="#22215B" fill-opacity="0.3"/>
<path d="M236.765 344H230.194V342.895L233.785 339.232C234.744 338.273 235.224 337.449 235.224 336.761C235.224 336.199 235.05 335.758 234.701 335.438C234.361 335.108 233.935 334.944 233.421 334.944C232.462 334.944 231.764 335.399 231.328 336.31L230.194 335.641C230.504 334.992 230.94 334.498 231.503 334.159C232.065 333.81 232.699 333.635 233.407 333.635C234.269 333.635 235.011 333.916 235.631 334.479C236.261 335.05 236.576 335.806 236.576 336.746C236.576 337.773 235.97 338.893 234.759 340.104L232.157 342.692H236.765V344ZM243.197 338.738C244.253 339.28 244.781 340.104 244.781 341.209C244.781 342.139 244.457 342.871 243.807 343.404C243.148 343.927 242.31 344.189 241.292 344.189C240.275 344.189 239.441 343.927 238.792 343.404C238.143 342.871 237.818 342.139 237.818 341.209C237.818 340.104 238.346 339.28 239.403 338.738C238.569 338.214 238.153 337.473 238.153 336.514C238.153 335.593 238.458 334.886 239.068 334.391C239.689 333.887 240.43 333.635 241.292 333.635C242.174 333.635 242.916 333.887 243.517 334.391C244.137 334.886 244.447 335.593 244.447 336.514C244.447 337.473 244.03 338.214 243.197 338.738ZM241.292 334.929C240.759 334.929 240.323 335.07 239.984 335.351C239.655 335.632 239.49 336.029 239.49 336.543C239.49 337.047 239.659 337.444 239.999 337.735C240.338 338.025 240.769 338.171 241.292 338.171C241.816 338.171 242.247 338.025 242.586 337.735C242.925 337.444 243.095 337.047 243.095 336.543C243.095 336.029 242.93 335.632 242.601 335.351C242.271 335.07 241.835 334.929 241.292 334.929ZM241.292 342.895C241.951 342.895 242.475 342.74 242.862 342.43C243.25 342.12 243.444 341.684 243.444 341.122C243.444 340.569 243.25 340.138 242.862 339.828C242.475 339.518 241.951 339.363 241.292 339.363C240.643 339.363 240.125 339.518 239.737 339.828C239.349 340.138 239.156 340.569 239.156 341.122C239.156 341.684 239.349 342.12 239.737 342.43C240.125 342.74 240.643 342.895 241.292 342.895Z" fill="#22215B"/>
<path d="M238.206 305H231.635V303.895L235.226 300.232C236.185 299.273 236.665 298.449 236.665 297.761C236.665 297.199 236.49 296.758 236.142 296.438C235.802 296.108 235.376 295.944 234.862 295.944C233.903 295.944 233.205 296.399 232.769 297.31L231.635 296.641C231.945 295.992 232.381 295.498 232.943 295.159C233.506 294.81 234.14 294.635 234.848 294.635C235.71 294.635 236.452 294.916 237.072 295.479C237.702 296.05 238.017 296.806 238.017 297.746C238.017 298.773 237.411 299.893 236.2 301.104L233.598 303.692H238.206V305ZM238.91 295.755L241.585 294.824H242.748V305H241.41V296.278L239.245 296.918L238.91 295.755Z" fill="#22215B"/>
<path d="M230.897 253.755L233.571 252.824H234.734V263H233.397L233.397 254.278L231.231 254.918L230.897 253.755ZM242.765 259.802H244.001V261.067H242.765V263H241.413V261.067H236.223V259.802L239.872 252.824H241.326L237.677 259.802H241.413V256.924H242.765V259.802Z" fill="#22215B"/>
<path d="M234.198 214.104V212.824H240.551V214.031L236.844 223H235.434L239.112 214.104H234.198Z" fill="#22215B"/>
<path d="M232.737 176.04C233.008 176.05 233.28 176.03 233.551 175.982C233.822 175.933 234.065 175.851 234.278 175.735C234.491 175.609 234.661 175.439 234.787 175.226C234.922 175.013 234.99 174.751 234.99 174.441C234.99 174.005 234.84 173.656 234.539 173.394C234.249 173.133 233.871 173.002 233.406 173.002C233.115 173.002 232.863 173.06 232.65 173.176C232.436 173.293 232.257 173.452 232.112 173.656C231.976 173.85 231.874 174.073 231.807 174.325C231.739 174.567 231.71 174.819 231.719 175.081H230.062C230.082 174.586 230.174 174.131 230.338 173.714C230.503 173.288 230.726 172.919 231.007 172.609C231.298 172.299 231.647 172.057 232.054 171.883C232.461 171.708 232.921 171.621 233.435 171.621C233.832 171.621 234.22 171.679 234.598 171.795C234.985 171.912 235.329 172.081 235.63 172.304C235.94 172.527 236.187 172.813 236.371 173.162C236.555 173.501 236.647 173.893 236.647 174.339C236.647 174.853 236.531 175.303 236.298 175.691C236.066 176.069 235.702 176.345 235.208 176.52V176.549C235.79 176.665 236.24 176.956 236.56 177.421C236.89 177.876 237.054 178.434 237.054 179.093C237.054 179.577 236.957 180.013 236.764 180.401C236.57 180.779 236.308 181.104 235.979 181.375C235.649 181.637 235.266 181.84 234.83 181.985C234.394 182.131 233.934 182.204 233.449 182.204C232.858 182.204 232.34 182.121 231.894 181.956C231.458 181.782 231.089 181.54 230.789 181.23C230.498 180.919 230.275 180.546 230.12 180.11C229.965 179.674 229.883 179.19 229.873 178.657H231.53C231.511 179.277 231.661 179.795 231.981 180.212C232.31 180.619 232.8 180.823 233.449 180.823C234.002 180.823 234.462 180.667 234.83 180.357C235.208 180.038 235.397 179.587 235.397 179.005C235.397 178.608 235.32 178.293 235.164 178.061C235.009 177.828 234.806 177.654 234.554 177.537C234.302 177.411 234.016 177.334 233.696 177.305C233.386 177.276 233.066 177.266 232.737 177.276V176.04ZM241.541 171.621C242.268 171.621 242.859 171.79 243.315 172.13C243.78 172.459 244.138 172.886 244.39 173.409C244.652 173.923 244.826 174.489 244.914 175.11C245.011 175.73 245.059 176.331 245.059 176.912C245.059 177.494 245.011 178.095 244.914 178.715C244.826 179.335 244.652 179.907 244.39 180.43C244.138 180.944 243.78 181.37 243.315 181.709C242.859 182.039 242.268 182.204 241.541 182.204C240.814 182.204 240.218 182.039 239.753 181.709C239.298 181.37 238.939 180.944 238.677 180.43C238.425 179.907 238.251 179.335 238.154 178.715C238.067 178.095 238.023 177.494 238.023 176.912C238.023 176.331 238.067 175.73 238.154 175.11C238.251 174.489 238.425 173.923 238.677 173.409C238.939 172.886 239.298 172.459 239.753 172.13C240.218 171.79 240.814 171.621 241.541 171.621ZM241.541 180.823C241.9 180.823 242.2 180.721 242.442 180.517C242.685 180.304 242.874 180.023 243.009 179.674C243.155 179.316 243.256 178.899 243.315 178.424C243.373 177.949 243.402 177.445 243.402 176.912C243.402 176.379 243.373 175.88 243.315 175.415C243.256 174.94 243.155 174.523 243.009 174.165C242.874 173.806 242.685 173.525 242.442 173.322C242.2 173.108 241.9 173.002 241.541 173.002C241.173 173.002 240.868 173.108 240.625 173.322C240.393 173.525 240.204 173.806 240.058 174.165C239.923 174.523 239.826 174.94 239.768 175.415C239.71 175.88 239.68 176.379 239.68 176.912C239.68 177.445 239.71 177.949 239.768 178.424C239.826 178.899 239.923 179.316 240.058 179.674C240.204 180.023 240.393 180.304 240.625 180.517C240.868 180.721 241.173 180.823 241.541 180.823Z" fill="#22215B" fill-opacity="0.3"/>
<path d="M297.871 344H291.301V342.895L294.891 339.232C295.851 338.273 296.33 337.449 296.33 336.761C296.33 336.199 296.156 335.758 295.807 335.438C295.468 335.108 295.042 334.944 294.528 334.944C293.568 334.944 292.871 335.399 292.435 336.31L291.301 335.641C291.611 334.992 292.047 334.498 292.609 334.159C293.171 333.81 293.806 333.635 294.513 333.635C295.376 333.635 296.117 333.916 296.737 334.479C297.367 335.05 297.682 335.806 297.682 336.746C297.682 337.773 297.077 338.893 295.865 340.104L293.263 342.692H297.871V344ZM305.814 337.052C305.814 337.846 305.606 338.529 305.189 339.101H305.204L301.918 344H300.392L302.805 340.439C302.514 340.458 302.35 340.468 302.311 340.468C301.284 340.468 300.441 340.153 299.782 339.523C299.132 338.883 298.808 338.059 298.808 337.052C298.808 336.034 299.132 335.215 299.782 334.595C300.431 333.955 301.274 333.635 302.311 333.635C303.329 333.635 304.167 333.955 304.826 334.595C305.485 335.225 305.814 336.044 305.814 337.052ZM302.311 334.929C301.671 334.929 301.148 335.123 300.741 335.511C300.344 335.898 300.145 336.412 300.145 337.052C300.145 337.691 300.344 338.21 300.741 338.607C301.148 338.995 301.671 339.188 302.311 339.188C302.951 339.188 303.469 338.995 303.866 338.607C304.273 338.21 304.477 337.691 304.477 337.052C304.477 336.412 304.278 335.898 303.881 335.511C303.484 335.123 302.96 334.929 302.311 334.929Z" fill="#22215B"/>
<path d="M297.928 305H291.358V303.895L294.948 300.232C295.907 299.273 296.387 298.449 296.387 297.761C296.387 297.199 296.213 296.758 295.864 296.438C295.525 296.108 295.098 295.944 294.585 295.944C293.625 295.944 292.927 296.399 292.491 297.31L291.358 296.641C291.668 295.992 292.104 295.498 292.666 295.159C293.228 294.81 293.863 294.635 294.57 294.635C295.433 294.635 296.174 294.916 296.794 295.479C297.424 296.05 297.739 296.806 297.739 297.746C297.739 298.773 297.133 299.893 295.922 301.104L293.32 303.692H297.928V305ZM305.594 305H299.023V303.895L302.614 300.232C303.573 299.273 304.053 298.449 304.053 297.761C304.053 297.199 303.879 296.758 303.53 296.438C303.19 296.108 302.764 295.944 302.25 295.944C301.291 295.944 300.593 296.399 300.157 297.31L299.023 296.641C299.333 295.992 299.77 295.498 300.332 295.159C300.894 294.81 301.528 294.635 302.236 294.635C303.098 294.635 303.84 294.916 304.46 295.479C305.09 296.05 305.405 296.806 305.405 297.746C305.405 298.773 304.799 299.893 303.588 301.104L300.986 303.692H305.594V305Z" fill="#22215B"/>
<path d="M292.166 253.755L294.841 252.824H296.004L296.004 263H294.667V254.278L292.501 254.918L292.166 253.755ZM299.586 256.793H301.069C302.029 256.793 302.838 257.079 303.497 257.651C304.165 258.222 304.5 259.002 304.5 259.991C304.5 260.989 304.161 261.769 303.482 262.331C302.794 262.903 301.97 263.189 301.011 263.189C300.216 263.189 299.514 263 298.903 262.622C298.302 262.234 297.886 261.697 297.653 261.008L298.801 260.354C298.937 260.839 299.199 261.212 299.586 261.474C299.974 261.735 300.449 261.866 301.011 261.866C301.66 261.866 302.179 261.701 302.566 261.372C302.964 261.033 303.162 260.572 303.162 259.991C303.162 259.409 302.964 258.949 302.566 258.61C302.179 258.271 301.67 258.101 301.04 258.101H298.162L298.54 252.824H304.107V254.089H299.761L299.586 256.793Z" fill="#22215B"/>
<path d="M300.399 217.738C300.894 217.99 301.281 218.329 301.562 218.755C301.843 219.182 301.984 219.666 301.984 220.209C301.984 221.139 301.659 221.871 301.01 222.404C300.361 222.927 299.522 223.189 298.495 223.189C297.477 223.189 296.644 222.927 295.995 222.404C295.345 221.871 295.021 221.139 295.021 220.209C295.021 219.666 295.161 219.182 295.442 218.755C295.723 218.329 296.111 217.99 296.605 217.738C295.772 217.214 295.355 216.473 295.355 215.514C295.355 214.593 295.66 213.886 296.271 213.391C296.891 212.887 297.632 212.635 298.495 212.635C299.367 212.635 300.109 212.887 300.719 213.391C301.339 213.886 301.649 214.593 301.649 215.514C301.649 216.473 301.233 217.214 300.399 217.738ZM298.495 213.929C297.981 213.929 297.55 214.065 297.201 214.336C296.862 214.608 296.692 215.01 296.692 215.543C296.692 216.056 296.867 216.459 297.216 216.749C297.565 217.03 297.991 217.171 298.495 217.171C298.999 217.171 299.425 217.03 299.774 216.749C300.123 216.459 300.298 216.056 300.298 215.543C300.298 215.01 300.128 214.608 299.789 214.336C299.45 214.065 299.018 213.929 298.495 213.929ZM298.495 221.895C299.144 221.895 299.663 221.745 300.05 221.445C300.448 221.134 300.646 220.694 300.646 220.122C300.646 219.56 300.448 219.128 300.05 218.828C299.663 218.518 299.144 218.363 298.495 218.363C297.855 218.363 297.337 218.518 296.94 218.828C296.552 219.128 296.358 219.56 296.358 220.122C296.358 220.694 296.552 221.134 296.94 221.445C297.337 221.745 297.855 221.895 298.495 221.895Z" fill="#DCDBFF"/>
<path d="M294.96 173.511C295.308 173.511 295.648 173.482 295.977 173.423C296.307 173.365 296.602 173.268 296.864 173.133C297.135 172.997 297.363 172.823 297.547 172.609C297.741 172.396 297.867 172.134 297.925 171.824H299.277V182H297.46V174.819H294.96V173.511Z" fill="#22215B" fill-opacity="0.3"/>
<path d="M357.835 335.016L355.626 337.996C356.42 338.142 357.06 338.481 357.545 339.014C358.029 339.547 358.271 340.206 358.271 340.991C358.271 341.989 357.932 342.769 357.254 343.331C356.566 343.903 355.742 344.189 354.783 344.189C353.988 344.189 353.295 344.01 352.704 343.651C352.113 343.293 351.691 342.784 351.439 342.125L352.573 341.456C352.873 342.396 353.61 342.866 354.783 342.866C355.422 342.866 355.936 342.701 356.323 342.372C356.721 342.033 356.919 341.572 356.919 340.991C356.919 340.409 356.721 339.949 356.323 339.61C355.936 339.271 355.422 339.101 354.783 339.101H354.434L353.896 338.273L356.251 335.089H351.73V333.824H357.835V335.016ZM366.283 342.75C365.605 343.709 364.641 344.189 363.391 344.189C362.14 344.189 361.176 343.709 360.498 342.75C359.81 341.781 359.466 340.502 359.466 338.912C359.466 337.323 359.81 336.044 360.498 335.075C361.176 334.115 362.14 333.635 363.391 333.635C364.641 333.635 365.605 334.115 366.283 335.075C366.971 336.044 367.315 337.323 367.315 338.912C367.315 340.502 366.971 341.781 366.283 342.75ZM360.818 338.912C360.818 340.172 361.04 341.146 361.486 341.834C361.932 342.522 362.567 342.866 363.391 342.866C364.214 342.866 364.849 342.522 365.295 341.834C365.75 341.146 365.978 340.172 365.978 338.912C365.978 337.652 365.75 336.678 365.295 335.99C364.849 335.293 364.214 334.944 363.391 334.944C362.567 334.944 361.932 335.288 361.486 335.976C361.04 336.664 360.818 337.643 360.818 338.912Z" fill="#22215B"/>
<path d="M357.942 305H351.372V303.895L354.962 300.232C355.922 299.273 356.401 298.449 356.401 297.761C356.401 297.199 356.227 296.758 355.878 296.438C355.539 296.108 355.112 295.944 354.599 295.944C353.639 295.944 352.942 296.399 352.506 297.31L351.372 296.641C351.682 295.992 352.118 295.498 352.68 295.159C353.242 294.81 353.877 294.635 354.584 294.635C355.447 294.635 356.188 294.916 356.808 295.479C357.438 296.05 357.753 296.806 357.753 297.746C357.753 298.773 357.148 299.893 355.936 301.104L353.334 303.692H357.942V305ZM365.175 296.016L362.966 298.996C363.76 299.142 364.4 299.481 364.885 300.014C365.369 300.547 365.611 301.206 365.611 301.991C365.611 302.989 365.272 303.769 364.594 304.331C363.906 304.903 363.082 305.189 362.123 305.189C361.328 305.189 360.635 305.01 360.044 304.651C359.453 304.293 359.031 303.784 358.779 303.125L359.913 302.456C360.214 303.396 360.95 303.866 362.123 303.866C362.762 303.866 363.276 303.701 363.664 303.372C364.061 303.033 364.26 302.572 364.26 301.991C364.26 301.409 364.061 300.949 363.664 300.61C363.276 300.271 362.762 300.101 362.123 300.101H361.774L361.236 299.273L363.591 296.089H359.07V294.824H365.175V296.016Z" fill="#22215B"/>
<path d="M352.202 253.755L354.877 252.824H356.039L356.039 263H354.702V254.278L352.536 254.918L352.202 253.755ZM361.09 256.342C362.108 256.342 362.946 256.662 363.605 257.302C364.264 257.932 364.593 258.75 364.593 259.758C364.593 260.766 364.264 261.59 363.605 262.23C362.946 262.869 362.108 263.189 361.09 263.189C360.053 263.189 359.21 262.869 358.561 262.23C357.911 261.59 357.587 260.766 357.587 259.758C357.587 258.964 357.79 258.285 358.197 257.723L361.468 252.824H363.009L360.61 256.371C360.901 256.352 361.061 256.342 361.09 256.342ZM361.09 257.636C360.441 257.636 359.918 257.83 359.52 258.217C359.123 258.605 358.924 259.119 358.924 259.758C358.924 260.398 359.123 260.916 359.52 261.314C359.927 261.701 360.451 261.895 361.09 261.895C361.73 261.895 362.248 261.701 362.646 261.314C363.053 260.916 363.256 260.398 363.256 259.758C363.256 259.119 363.053 258.605 362.646 258.217C362.248 257.83 361.73 257.636 361.09 257.636Z" fill="#22215B"/>
<path d="M362.003 216.052C362.003 216.846 361.794 217.529 361.378 218.101H361.392L358.107 223H356.581L358.994 219.439C358.703 219.458 358.538 219.468 358.499 219.468C357.472 219.468 356.629 219.153 355.97 218.523C355.321 217.883 354.996 217.059 354.996 216.052C354.996 215.034 355.321 214.215 355.97 213.595C356.619 212.955 357.462 212.635 358.499 212.635C359.517 212.635 360.355 212.955 361.014 213.595C361.673 214.225 362.003 215.044 362.003 216.052ZM358.499 213.929C357.86 213.929 357.336 214.123 356.929 214.511C356.532 214.898 356.333 215.412 356.333 216.052C356.333 216.691 356.532 217.21 356.929 217.607C357.336 217.995 357.86 218.188 358.499 218.188C359.139 218.188 359.657 217.995 360.055 217.607C360.462 217.21 360.665 216.691 360.665 216.052C360.665 215.412 360.467 214.898 360.069 214.511C359.672 214.123 359.149 213.929 358.499 213.929Z" fill="#22215B"/>
<path d="M362.275 180.088H355.327C355.336 179.245 355.54 178.508 355.937 177.878C356.335 177.248 356.877 176.701 357.565 176.236C357.895 175.993 358.239 175.761 358.598 175.538C358.956 175.305 359.286 175.058 359.586 174.797C359.886 174.535 360.134 174.254 360.327 173.953C360.521 173.643 360.623 173.29 360.633 172.892C360.633 172.708 360.608 172.514 360.56 172.311C360.521 172.098 360.439 171.904 360.313 171.729C360.187 171.545 360.012 171.395 359.79 171.279C359.567 171.153 359.276 171.09 358.917 171.09C358.588 171.09 358.312 171.158 358.089 171.293C357.876 171.419 357.701 171.598 357.565 171.831C357.439 172.054 357.343 172.32 357.275 172.631C357.217 172.941 357.183 173.275 357.173 173.634H355.516C355.516 173.072 355.588 172.553 355.734 172.078C355.889 171.594 356.117 171.177 356.417 170.828C356.717 170.479 357.081 170.208 357.507 170.014C357.943 169.81 358.447 169.709 359.019 169.709C359.639 169.709 360.158 169.81 360.574 170.014C360.991 170.217 361.326 170.474 361.578 170.784C361.839 171.095 362.023 171.434 362.13 171.802C362.237 172.161 362.29 172.505 362.29 172.834C362.29 173.241 362.227 173.609 362.101 173.939C361.975 174.268 361.805 174.574 361.592 174.855C361.379 175.126 361.137 175.378 360.865 175.611C360.594 175.843 360.313 176.061 360.022 176.265C359.731 176.468 359.441 176.662 359.15 176.846C358.859 177.03 358.588 177.214 358.336 177.399C358.094 177.583 357.88 177.777 357.696 177.98C357.512 178.174 357.386 178.382 357.318 178.605H362.275V180.088Z" fill="#22215B"/>
<path d="M418.007 335.016L415.798 337.996C416.592 338.142 417.232 338.481 417.717 339.014C418.201 339.547 418.443 340.206 418.443 340.991C418.443 341.989 418.104 342.769 417.426 343.331C416.738 343.903 415.914 344.189 414.955 344.189C414.16 344.189 413.467 344.01 412.876 343.651C412.285 343.293 411.863 342.784 411.611 342.125L412.745 341.456C413.045 342.396 413.782 342.866 414.955 342.866C415.594 342.866 416.108 342.701 416.495 342.372C416.893 342.033 417.091 341.572 417.091 340.991C417.091 340.409 416.893 339.949 416.495 339.61C416.108 339.271 415.594 339.101 414.955 339.101H414.606L414.068 338.273L416.423 335.089H411.902V333.824H418.007V335.016ZM418.818 334.755L421.493 333.824H422.656V344H421.318V335.278L419.152 335.918L418.818 334.755Z" fill="#22215B"/>
<path d="M415.673 305H409.102V303.895L412.693 300.232C413.652 299.273 414.132 298.449 414.132 297.761C414.132 297.199 413.957 296.758 413.608 296.438C413.269 296.108 412.843 295.944 412.329 295.944C411.37 295.944 410.672 296.399 410.236 297.31L409.102 296.641C409.412 295.992 409.848 295.498 410.41 295.159C410.972 294.81 411.607 294.635 412.315 294.635C413.177 294.635 413.918 294.916 414.539 295.479C415.169 296.05 415.484 296.806 415.484 297.746C415.484 298.773 414.878 299.893 413.667 301.104L411.064 303.692H415.673V305ZM422.879 301.802H424.115V303.067H422.879V305H421.527V303.067H416.338V301.802L419.987 294.824H421.44L417.791 301.802H421.527V298.924H422.879V301.802Z" fill="#22215B"/>
<path d="M410.55 253.755L413.224 252.824H414.387L414.387 263H413.05V254.278L410.884 254.918L410.55 253.755ZM415.789 254.104V252.824H422.142V254.031L418.435 263H417.025L420.703 254.104H415.789Z" fill="#22215B"/>
<path d="M409.535 213.755L412.209 212.824H413.372L413.372 223H412.035V214.278L409.869 214.918L409.535 213.755ZM421.984 221.75C421.306 222.709 420.342 223.189 419.092 223.189C417.841 223.189 416.877 222.709 416.199 221.75C415.511 220.781 415.167 219.502 415.167 217.912C415.167 216.323 415.511 215.044 416.199 214.075C416.877 213.115 417.841 212.635 419.092 212.635C420.342 212.635 421.306 213.115 421.984 214.075C422.672 215.044 423.016 216.323 423.016 217.912C423.016 219.502 422.672 220.781 421.984 221.75ZM416.519 217.912C416.519 219.172 416.742 220.146 417.187 220.834C417.633 221.522 418.268 221.866 419.092 221.866C419.915 221.866 420.55 221.522 420.996 220.834C421.451 220.146 421.679 219.172 421.679 217.912C421.679 216.652 421.451 215.678 420.996 214.99C420.55 214.293 419.915 213.944 419.092 213.944C418.268 213.944 417.633 214.288 417.187 214.976C416.742 215.664 416.519 216.643 416.519 217.912Z" fill="#22215B"/>
<path d="M415.645 174.128C415.916 174.138 416.188 174.118 416.459 174.07C416.73 174.021 416.973 173.939 417.186 173.823C417.399 173.697 417.569 173.527 417.695 173.314C417.83 173.101 417.898 172.839 417.898 172.529C417.898 172.093 417.748 171.744 417.447 171.482C417.157 171.221 416.779 171.09 416.314 171.09C416.023 171.09 415.771 171.148 415.558 171.264C415.344 171.38 415.165 171.54 415.02 171.744C414.884 171.938 414.782 172.161 414.715 172.413C414.647 172.655 414.618 172.907 414.627 173.168H412.97C412.99 172.674 413.082 172.219 413.246 171.802C413.411 171.376 413.634 171.007 413.915 170.697C414.206 170.387 414.555 170.145 414.962 169.97C415.369 169.796 415.829 169.709 416.343 169.709C416.74 169.709 417.128 169.767 417.506 169.883C417.893 169.999 418.237 170.169 418.538 170.392C418.848 170.615 419.095 170.901 419.279 171.25C419.463 171.589 419.555 171.981 419.555 172.427C419.555 172.941 419.439 173.391 419.206 173.779C418.974 174.157 418.61 174.433 418.116 174.608V174.637C418.698 174.753 419.148 175.044 419.468 175.509C419.797 175.964 419.962 176.522 419.962 177.181C419.962 177.665 419.865 178.101 419.672 178.489C419.478 178.867 419.216 179.191 418.887 179.463C418.557 179.724 418.174 179.928 417.738 180.073C417.302 180.219 416.842 180.291 416.357 180.291C415.766 180.291 415.248 180.209 414.802 180.044C414.366 179.87 413.997 179.628 413.697 179.317C413.406 179.007 413.183 178.634 413.028 178.198C412.873 177.762 412.791 177.277 412.781 176.744H414.438C414.419 177.365 414.569 177.883 414.889 178.3C415.218 178.707 415.708 178.91 416.357 178.91C416.91 178.91 417.37 178.755 417.738 178.445C418.116 178.125 418.305 177.675 418.305 177.093C418.305 176.696 418.228 176.381 418.072 176.148C417.917 175.916 417.714 175.741 417.462 175.625C417.21 175.499 416.924 175.422 416.604 175.393C416.294 175.363 415.974 175.354 415.645 175.363V174.128Z" fill="#22215B"/>
<g opacity="0.653918">
<path d="M61.1135 123.461C61.0468 122.898 60.7763 122.46 60.3019 122.149C59.8275 121.838 59.2456 121.682 58.5563 121.682C58.0523 121.682 57.6112 121.764 57.2332 121.927C56.8589 122.09 56.5661 122.314 56.3548 122.599C56.1473 122.885 56.0435 123.209 56.0435 123.572C56.0435 123.876 56.1158 124.137 56.2603 124.356C56.4086 124.571 56.5976 124.751 56.8274 124.895C57.0571 125.036 57.298 125.153 57.5501 125.246C57.8021 125.334 58.0337 125.407 58.245 125.462L59.4013 125.774C59.6978 125.851 60.0276 125.959 60.3908 126.096C60.7577 126.233 61.108 126.42 61.4415 126.658C61.7788 126.891 62.0567 127.191 62.2754 127.558C62.4941 127.925 62.6034 128.375 62.6034 128.909C62.6034 129.524 62.4422 130.08 62.1198 130.577C61.801 131.073 61.334 131.468 60.7188 131.761C60.1073 132.054 59.3642 132.2 58.4896 132.2C57.6742 132.2 56.9682 132.069 56.3715 131.805C55.7785 131.542 55.3116 131.175 54.9706 130.705C54.6333 130.234 54.4425 129.687 54.398 129.065H55.8211C55.8582 129.495 56.0027 129.85 56.2548 130.132C56.5105 130.41 56.8329 130.618 57.2221 130.755C57.6149 130.888 58.0374 130.955 58.4896 130.955C59.0159 130.955 59.4884 130.87 59.9072 130.699C60.326 130.525 60.6577 130.284 60.9023 129.976C61.1469 129.665 61.2692 129.302 61.2692 128.887C61.2692 128.509 61.1636 128.201 60.9523 127.964C60.7411 127.727 60.4631 127.534 60.1184 127.386C59.7738 127.238 59.4013 127.108 59.001 126.997L57.6001 126.596C56.7106 126.341 56.0065 125.976 55.4876 125.501C54.9687 125.027 54.7093 124.406 54.7093 123.639C54.7093 123.001 54.8816 122.446 55.2263 121.971C55.5747 121.493 56.0417 121.122 56.6272 120.859C57.2165 120.592 57.8744 120.459 58.6008 120.459C59.3346 120.459 59.9869 120.591 60.5576 120.854C61.1284 121.113 61.5805 121.469 61.9141 121.921C62.2513 122.373 62.4292 122.887 62.4477 123.461H61.1135Z" fill="#22215B"/>
<path d="M111.415 120.615H113.061L116.93 130.065H117.063L120.932 120.615H122.578V132H121.288V123.35H121.177L117.619 132H116.374L112.816 123.35H112.705V132H111.415V120.615Z" fill="#22215B"/>
<path d="M172.734 121.838V120.615H181.273V121.838H177.693V132H176.314V121.838H172.734Z" fill="#22215B"/>
<path d="M233.517 132L230.404 120.615H231.805L234.184 129.887H234.295L236.719 120.615H238.276L240.699 129.887H240.811L243.19 120.615H244.591L241.478 132H240.054L237.542 122.927H237.453L234.94 132H233.517Z" fill="#22215B"/>
<path d="M294.734 121.838V120.615H303.273V121.838H299.693V132H298.314V121.838H294.734Z" fill="#22215B"/>
<path d="M355.785 132V120.615H362.611V121.838H357.163V125.685H362.1V126.908H357.163V132H355.785Z" fill="#22215B"/>
<path d="M419.114 122.461C419.047 121.898 418.776 121.46 418.302 121.149C417.827 120.838 417.246 120.682 416.556 120.682C416.052 120.682 415.611 120.764 415.233 120.927C414.859 121.09 414.566 121.314 414.355 121.599C414.147 121.885 414.044 122.209 414.044 122.572C414.044 122.876 414.116 123.137 414.26 123.356C414.409 123.571 414.598 123.751 414.827 123.895C415.057 124.036 415.298 124.153 415.55 124.246C415.802 124.334 416.034 124.407 416.245 124.462L417.401 124.774C417.698 124.851 418.028 124.959 418.391 125.096C418.758 125.233 419.108 125.42 419.442 125.658C419.779 125.891 420.057 126.191 420.275 126.558C420.494 126.925 420.603 127.375 420.603 127.909C420.603 128.524 420.442 129.08 420.12 129.577C419.801 130.073 419.334 130.468 418.719 130.761C418.107 131.054 417.364 131.2 416.49 131.2C415.674 131.2 414.968 131.069 414.372 130.805C413.779 130.542 413.312 130.175 412.971 129.705C412.633 129.234 412.442 128.687 412.398 128.065H413.821C413.858 128.495 414.003 128.85 414.255 129.132C414.51 129.41 414.833 129.618 415.222 129.755C415.615 129.888 416.037 129.955 416.49 129.955C417.016 129.955 417.488 129.87 417.907 129.699C418.326 129.525 418.658 129.284 418.902 128.976C419.147 128.665 419.269 128.302 419.269 127.887C419.269 127.509 419.164 127.201 418.952 126.964C418.741 126.727 418.463 126.534 418.118 126.386C417.774 126.238 417.401 126.108 417.001 125.997L415.6 125.596C414.711 125.341 414.006 124.976 413.488 124.501C412.969 124.027 412.709 123.406 412.709 122.639C412.709 122.001 412.882 121.446 413.226 120.971C413.575 120.493 414.042 120.122 414.627 119.859C415.217 119.592 415.874 119.459 416.601 119.459C417.335 119.459 417.987 119.591 418.558 119.854C419.128 120.113 419.581 120.469 419.914 120.921C420.251 121.373 420.429 121.887 420.448 122.461H419.114Z" fill="#22215B"/>
</g>
<path d="M283.641 45.696C283.504 44.4858 282.942 43.5483 281.953 42.8835C280.964 42.2102 279.72 41.8736 278.22 41.8736C277.146 41.8736 276.217 42.044 275.433 42.3849C274.649 42.7173 274.04 43.1776 273.605 43.7656C273.179 44.3452 272.966 45.0057 272.966 45.7472C272.966 46.3693 273.111 46.9062 273.401 47.358C273.699 47.8097 274.087 48.1889 274.564 48.4957C275.05 48.794 275.57 49.0455 276.124 49.25C276.678 49.446 277.21 49.608 277.722 49.7358L280.278 50.4006C281.114 50.6051 281.97 50.8821 282.848 51.2315C283.726 51.581 284.54 52.0412 285.29 52.6122C286.04 53.1832 286.645 53.8906 287.105 54.7344C287.574 55.5781 287.808 56.5881 287.808 57.7642C287.808 59.2472 287.425 60.5639 286.658 61.7145C285.899 62.8651 284.795 63.7727 283.347 64.4375C281.906 65.1023 280.163 65.4347 278.118 65.4347C276.158 65.4347 274.462 65.1236 273.03 64.5014C271.598 63.8793 270.477 62.9972 269.668 61.8551C268.858 60.7045 268.411 59.3409 268.325 57.7642H272.288C272.365 58.7102 272.672 59.4986 273.209 60.1293C273.754 60.7514 274.449 61.2159 275.293 61.5227C276.145 61.821 277.078 61.9702 278.092 61.9702C279.209 61.9702 280.202 61.7955 281.071 61.446C281.949 61.0881 282.639 60.5937 283.142 59.9631C283.645 59.3239 283.896 58.5781 283.896 57.7259C283.896 56.9503 283.675 56.3153 283.232 55.821C282.797 55.3267 282.205 54.9176 281.455 54.5938C280.713 54.2699 279.874 53.9844 278.936 53.7372L275.842 52.8935C273.746 52.3224 272.084 51.483 270.857 50.375C269.638 49.267 269.028 47.8011 269.028 45.9773C269.028 44.4687 269.438 43.152 270.256 42.027C271.074 40.902 272.182 40.0284 273.58 39.4062C274.977 38.7756 276.554 38.4602 278.31 38.4602C280.082 38.4602 281.646 38.7713 283.001 39.3935C284.365 40.0156 285.439 40.8722 286.223 41.9631C287.007 43.0455 287.416 44.2898 287.45 45.696H283.641ZM300.685 65.3963C298.75 65.3963 297.084 64.983 295.686 64.1562C294.297 63.321 293.223 62.1491 292.465 60.6406C291.715 59.1236 291.34 57.3466 291.34 55.3097C291.34 53.2983 291.715 51.5256 292.465 49.9915C293.223 48.4574 294.28 47.2599 295.635 46.3991C296.999 45.5384 298.593 45.108 300.417 45.108C301.525 45.108 302.598 45.2912 303.638 45.6577C304.678 46.0241 305.611 46.5994 306.438 47.3835C307.265 48.1676 307.917 49.1861 308.394 50.4389C308.871 51.6832 309.11 53.196 309.11 54.9773V56.3324H293.5V53.4688H305.364C305.364 52.4631 305.159 51.5724 304.75 50.7969C304.341 50.0128 303.766 49.3949 303.025 48.9432C302.292 48.4915 301.431 48.2656 300.442 48.2656C299.368 48.2656 298.431 48.5298 297.63 49.0582C296.837 49.5781 296.223 50.2599 295.789 51.1037C295.363 51.9389 295.15 52.8466 295.15 53.8267V56.0639C295.15 57.3764 295.38 58.4929 295.84 59.4134C296.309 60.3338 296.961 61.0369 297.796 61.5227C298.631 62 299.607 62.2386 300.723 62.2386C301.448 62.2386 302.108 62.1364 302.705 61.9318C303.301 61.7187 303.817 61.4034 304.252 60.9858C304.686 60.5682 305.019 60.0526 305.249 59.4389L308.867 60.0909C308.577 61.1562 308.057 62.0895 307.307 62.8906C306.566 63.6832 305.632 64.3011 304.507 64.7443C303.391 65.179 302.117 65.3963 300.685 65.3963ZM313.351 72.3636V45.3636H317.084V48.5469H317.403C317.625 48.1378 317.945 47.6648 318.362 47.1278C318.78 46.5909 319.359 46.1222 320.101 45.7216C320.842 45.3125 321.822 45.108 323.041 45.108C324.626 45.108 326.041 45.5085 327.286 46.3097C328.53 47.1108 329.506 48.2656 330.213 49.7741C330.929 51.2827 331.287 53.098 331.287 55.2202C331.287 57.3423 330.933 59.1619 330.226 60.679C329.518 62.1875 328.547 63.3509 327.311 64.169C326.075 64.9787 324.665 65.3835 323.08 65.3835C321.886 65.3835 320.911 65.1832 320.152 64.7827C319.402 64.3821 318.814 63.9134 318.388 63.3764C317.962 62.8395 317.634 62.3622 317.403 61.9446H317.173V72.3636H313.351ZM317.097 55.1818C317.097 56.5625 317.297 57.7727 317.697 58.8125C318.098 59.8523 318.678 60.6662 319.436 61.2543C320.195 61.8338 321.124 62.1236 322.223 62.1236C323.365 62.1236 324.32 61.821 325.087 61.2159C325.854 60.6023 326.433 59.7713 326.825 58.723C327.226 57.6747 327.426 56.4943 327.426 55.1818C327.426 53.8864 327.23 52.723 326.838 51.6918C326.455 50.6605 325.875 49.8466 325.099 49.25C324.332 48.6534 323.374 48.3551 322.223 48.3551C321.115 48.3551 320.178 48.6406 319.411 49.2116C318.652 49.7827 318.077 50.5795 317.685 51.6023C317.293 52.625 317.097 53.8182 317.097 55.1818ZM345.046 65V62.1364L353.905 52.9574C354.851 51.9602 355.631 51.0866 356.245 50.3366C356.867 49.5781 357.331 48.858 357.638 48.1761C357.945 47.4943 358.098 46.7699 358.098 46.0028C358.098 45.1335 357.894 44.3835 357.485 43.7528C357.076 43.1136 356.517 42.6236 355.81 42.2827C355.103 41.9332 354.306 41.7585 353.419 41.7585C352.482 41.7585 351.664 41.9503 350.965 42.3338C350.266 42.7173 349.729 43.2585 349.354 43.9574C348.979 44.6562 348.792 45.4744 348.792 46.4119H345.02C345.02 44.8182 345.387 43.4247 346.12 42.2315C346.853 41.0384 347.858 40.1136 349.137 39.4574C350.415 38.7926 351.868 38.4602 353.496 38.4602C355.141 38.4602 356.59 38.7884 357.843 39.4446C359.104 40.0923 360.088 40.9787 360.796 42.1037C361.503 43.2202 361.857 44.4815 361.857 45.8878C361.857 46.8594 361.674 47.8097 361.307 48.7386C360.949 49.6676 360.323 50.7031 359.428 51.8452C358.533 52.9787 357.289 54.3551 355.695 55.9744L350.492 61.4205V61.6122L362.279 61.6122V65H345.046ZM376.239 65.4347C374.219 65.4261 372.493 64.8935 371.061 63.8366C369.63 62.7798 368.534 61.2415 367.776 59.2216C367.017 57.2017 366.638 54.7685 366.638 51.9219C366.638 49.0838 367.017 46.6591 367.776 44.6477C368.543 42.6364 369.642 41.1023 371.074 40.0455C372.515 38.9886 374.236 38.4602 376.239 38.4602C378.242 38.4602 379.959 38.9929 381.391 40.0582C382.823 41.1151 383.918 42.6491 384.676 44.6605C385.444 46.6634 385.827 49.0838 385.827 51.9219C385.827 54.777 385.448 57.2145 384.689 59.2344C383.931 61.2457 382.836 62.7841 381.404 63.8494C379.972 64.9063 378.25 65.4347 376.239 65.4347ZM376.239 62.0213C378.012 62.0213 379.397 61.1562 380.394 59.4261C381.4 57.696 381.902 55.1946 381.902 51.9219C381.902 49.7486 381.672 47.9119 381.212 46.4119C380.76 44.9034 380.108 43.7614 379.256 42.9858C378.412 42.2017 377.407 41.8097 376.239 41.8097C374.475 41.8097 373.09 42.679 372.084 44.4176C371.078 46.1562 370.571 48.6577 370.563 51.9219C370.563 54.1037 370.789 55.9489 371.24 57.4574C371.701 58.9574 372.353 60.0952 373.196 60.8707C374.04 61.6378 375.054 62.0213 376.239 62.0213ZM390.362 65V62.1364L399.222 52.9574C400.168 51.9602 400.947 51.0866 401.561 50.3366C402.183 49.5781 402.648 48.858 402.955 48.1761C403.261 47.4943 403.415 46.7699 403.415 46.0028C403.415 45.1335 403.21 44.3835 402.801 43.7528C402.392 43.1136 401.834 42.6236 401.126 42.2827C400.419 41.9332 399.622 41.7585 398.736 41.7585C397.798 41.7585 396.98 41.9503 396.281 42.3338C395.582 42.7173 395.045 43.2585 394.67 43.9574C394.295 44.6562 394.108 45.4744 394.108 46.4119H390.337C390.337 44.8182 390.703 43.4247 391.436 42.2315C392.169 41.0384 393.175 40.1136 394.453 39.4574C395.732 38.7926 397.185 38.4602 398.812 38.4602C400.457 38.4602 401.906 38.7884 403.159 39.4446C404.42 40.0923 405.405 40.9787 406.112 42.1037C406.82 43.2202 407.173 44.4815 407.173 45.8878C407.173 46.8594 406.99 47.8097 406.624 48.7386C406.266 49.6676 405.639 50.7031 404.744 51.8452C403.849 52.9787 402.605 54.3551 401.011 55.9744L395.808 61.4205V61.6122H407.595V65H390.362ZM412.44 65V62.1364L421.3 52.9574C422.246 51.9602 423.026 51.0866 423.639 50.3366C424.261 49.5781 424.726 48.858 425.033 48.1761C425.339 47.4943 425.493 46.7699 425.493 46.0028C425.493 45.1335 425.288 44.3835 424.879 43.7528C424.47 43.1136 423.912 42.6236 423.205 42.2827C422.497 41.9332 421.7 41.7585 420.814 41.7585C419.876 41.7585 419.058 41.9503 418.359 42.3338C417.661 42.7173 417.124 43.2585 416.749 43.9574C416.374 44.6562 416.186 45.4744 416.186 46.4119L412.415 46.4119C412.415 44.8182 412.781 43.4247 413.514 42.2315C414.247 41.0384 415.253 40.1136 416.531 39.4574C417.81 38.7926 419.263 38.4602 420.891 38.4602C422.536 38.4602 423.984 38.7884 425.237 39.4446C426.499 40.0923 427.483 40.9787 428.19 42.1037C428.898 43.2202 429.251 44.4815 429.251 45.8878C429.251 46.8594 429.068 47.8097 428.702 48.7386C428.344 49.6676 427.717 50.7031 426.822 51.8452C425.928 52.9787 424.683 54.3551 423.089 55.9744L417.886 61.4205V61.6122H429.673V65H412.44Z" fill="#1D3ADB"/>
<path d="M440 58L446 52V64H434L440 58Z" fill="#B632F2"/>
<path d="M42.6882 52.4922H39.8885C39.8374 52.13 39.733 51.8082 39.5753 51.527C39.4176 51.2415 39.2152 50.9986 38.968 50.7983C38.7209 50.598 38.4354 50.4446 38.1115 50.3381C37.7919 50.2315 37.4446 50.1783 37.0696 50.1783C36.392 50.1783 35.8018 50.3466 35.299 50.6832C34.7962 51.0156 34.4063 51.5014 34.1293 52.1406C33.8523 52.7756 33.7138 53.5469 33.7138 54.4545C33.7138 55.3878 33.8523 56.1719 34.1293 56.8068C34.4105 57.4418 34.8026 57.9212 35.3054 58.245C35.8082 58.5689 36.3899 58.7308 37.0504 58.7308C37.4212 58.7308 37.7642 58.6818 38.0795 58.5838C38.3991 58.4858 38.6825 58.343 38.9297 58.1555C39.1768 57.9638 39.3814 57.7315 39.5433 57.4588C39.7095 57.1861 39.8246 56.875 39.8885 56.5256L42.6882 56.5384C42.6158 57.1392 42.4347 57.7188 42.1449 58.277C41.8594 58.831 41.4737 59.3274 40.9879 59.7663C40.5064 60.201 39.9311 60.5462 39.2621 60.8018C38.5973 61.0533 37.8452 61.179 37.0057 61.179C35.8381 61.179 34.794 60.9148 33.8736 60.3864C32.9574 59.858 32.233 59.093 31.7003 58.0916C31.1719 57.0902 30.9077 55.8778 30.9077 54.4545C30.9077 53.027 31.1761 51.8125 31.7131 50.8111C32.25 49.8097 32.9787 49.0469 33.8991 48.5227C34.8196 47.9943 35.8551 47.7301 37.0057 47.7301C37.7642 47.7301 38.4673 47.8366 39.1151 48.0497C39.767 48.2628 40.3445 48.5739 40.8473 48.983C41.3501 49.3878 41.7592 49.8842 42.0746 50.4723C42.3942 51.0604 42.5987 51.7337 42.6882 52.4922ZM47.4215 61.1854C46.7951 61.1854 46.2369 61.0767 45.7468 60.8594C45.2567 60.6378 44.869 60.3118 44.5835 59.8814C44.3022 59.4467 44.1616 58.9055 44.1616 58.2578C44.1616 57.7124 44.2617 57.2543 44.462 56.8835C44.6623 56.5128 44.935 56.2145 45.2802 55.9886C45.6254 55.7628 46.0174 55.5923 46.4563 55.4773C46.8995 55.3622 47.364 55.2812 47.8498 55.2344C48.4208 55.1747 48.881 55.1193 49.2305 55.0682C49.5799 55.0128 49.8335 54.9318 49.9911 54.8253C50.1488 54.7187 50.2276 54.5611 50.2276 54.3523V54.3139C50.2276 53.9091 50.0998 53.5959 49.8441 53.3743C49.5927 53.1527 49.2347 53.0419 48.7702 53.0419C48.2802 53.0419 47.8903 53.1506 47.6005 53.3679C47.3107 53.581 47.119 53.8494 47.0252 54.1733L44.5067 53.9688C44.6346 53.3722 44.886 52.8565 45.261 52.4219C45.636 51.983 46.1197 51.6463 46.712 51.4119C47.3086 51.1733 47.9989 51.054 48.783 51.054C49.3285 51.054 49.8505 51.1179 50.3491 51.2457C50.8519 51.3736 51.2972 51.5717 51.685 51.8402C52.0771 52.1087 52.386 52.4538 52.6119 52.8757C52.8377 53.2933 52.9506 53.794 52.9506 54.3778V61H50.3683V59.6385H50.2915C50.1339 59.9453 49.9229 60.2159 49.6587 60.4503C49.3945 60.6804 49.0771 60.8615 48.7063 60.9936C48.3356 61.1214 47.9073 61.1854 47.4215 61.1854ZM48.2013 59.3061C48.6019 59.3061 48.9556 59.2273 49.2624 59.0696C49.5692 58.9077 49.81 58.6903 49.9847 58.4176C50.1594 58.1449 50.2468 57.8359 50.2468 57.4908V56.4489C50.1616 56.5043 50.0444 56.5554 49.8952 56.6023C49.7504 56.6449 49.5863 56.6854 49.4031 56.7237C49.2198 56.7578 49.0366 56.7898 48.8533 56.8196C48.6701 56.8452 48.5039 56.8686 48.3548 56.8899C48.0352 56.9368 47.756 57.0114 47.5174 57.1136C47.2788 57.2159 47.0934 57.3544 46.9613 57.5291C46.8292 57.6996 46.7631 57.9126 46.7631 58.1683C46.7631 58.5391 46.8974 58.8224 47.1658 59.0185C47.4386 59.2102 47.7837 59.3061 48.2013 59.3061ZM57.7862 47.9091V61H55.0632V47.9091H57.7862ZM64.4419 61.1918C63.432 61.1918 62.5627 60.9872 61.834 60.5781C61.1096 60.1648 60.5513 59.581 60.1593 58.8267C59.7672 58.0682 59.5712 57.1712 59.5712 56.1357C59.5712 55.1257 59.7672 54.2393 60.1593 53.4766C60.5513 52.7138 61.1032 52.1193 61.8148 51.6932C62.5307 51.267 63.3702 51.054 64.3333 51.054C64.981 51.054 65.584 51.1584 66.1422 51.3672C66.7047 51.5717 67.1948 51.8807 67.6124 52.294C68.0343 52.7074 68.3624 53.2273 68.5968 53.8537C68.8311 54.4759 68.9483 55.2045 68.9483 56.0398V56.7876H60.6578V55.1001H66.3851C66.3851 54.7081 66.2999 54.3608 66.1294 54.0582C65.959 53.7557 65.7225 53.5192 65.4199 53.3487C65.1216 53.174 64.7743 53.0866 64.378 53.0866C63.9647 53.0866 63.5982 53.1825 63.2786 53.3743C62.9632 53.5618 62.7161 53.8153 62.5371 54.1349C62.3581 54.4503 62.2665 54.8018 62.2623 55.1896V56.794C62.2623 57.2798 62.3517 57.6996 62.5307 58.0533C62.714 58.407 62.9718 58.6797 63.3042 58.8714C63.6365 59.0632 64.0307 59.1591 64.4867 59.1591C64.7892 59.1591 65.0662 59.1165 65.3176 59.0312C65.5691 58.946 65.7843 58.8182 65.9632 58.6477C66.1422 58.4773 66.2786 58.2685 66.3723 58.0213L68.8908 58.1875C68.763 58.7926 68.5009 59.321 68.1046 59.7727C67.7125 60.2202 67.2054 60.5696 66.5833 60.821C65.9654 61.0682 65.2516 61.1918 64.4419 61.1918ZM73.4483 55.3239V61H70.7253V51.1818H73.3205V52.9141H73.4355C73.6529 52.343 74.0172 51.8913 74.5286 51.5589C75.04 51.2223 75.66 51.054 76.3887 51.054C77.0705 51.054 77.665 51.2031 78.1721 51.5014C78.6792 51.7997 79.0733 52.2259 79.3546 52.7798C79.6358 53.3295 79.7765 53.9858 79.7765 54.7486V61H77.0534V55.2344C77.0577 54.6335 76.9043 54.1648 76.5932 53.8281C76.2821 53.4872 75.8539 53.3168 75.3084 53.3168C74.9419 53.3168 74.6181 53.3956 74.3368 53.5533C74.0598 53.7109 73.8425 53.9411 73.6848 54.2436C73.5314 54.5419 73.4526 54.902 73.4483 55.3239ZM85.5405 61.1598C84.7947 61.1598 84.1193 60.968 83.5142 60.5845C82.9134 60.1967 82.4361 59.6278 82.0824 58.8778C81.733 58.1236 81.5582 57.1989 81.5582 56.1037C81.5582 54.9787 81.7393 54.0433 82.1016 53.2976C82.4638 52.5476 82.9453 51.9872 83.5462 51.6165C84.1513 51.2415 84.8139 51.054 85.5341 51.054C86.0838 51.054 86.5419 51.1477 86.9084 51.3352C87.2791 51.5185 87.5774 51.7486 87.8033 52.0256C88.0334 52.2983 88.2081 52.5668 88.3274 52.831H88.4105V47.9091H91.1271V61H88.4425V59.4276H88.3274C88.1996 59.7003 88.0185 59.9709 87.7841 60.2393C87.554 60.5036 87.2536 60.723 86.8828 60.8977C86.5163 61.0724 86.0689 61.1598 85.5405 61.1598ZM86.4034 58.9929C86.8423 58.9929 87.2131 58.8736 87.5156 58.6349C87.8224 58.392 88.0568 58.0533 88.2188 57.6186C88.3849 57.1839 88.468 56.6747 88.468 56.0909C88.468 55.5071 88.3871 55 88.2251 54.5696C88.0632 54.1392 87.8288 53.8068 87.522 53.5724C87.2152 53.3381 86.8423 53.2209 86.4034 53.2209C85.956 53.2209 85.5788 53.3423 85.272 53.5852C84.9652 53.8281 84.733 54.1648 84.5753 54.5952C84.4176 55.0256 84.3388 55.5241 84.3388 56.0909C84.3388 56.6619 84.4176 57.1669 84.5753 57.6058C84.7372 58.0405 84.9695 58.3814 85.272 58.6286C85.5788 58.8714 85.956 58.9929 86.4034 58.9929ZM96.1657 61.1854C95.5392 61.1854 94.981 61.0767 94.4909 60.8594C94.0009 60.6378 93.6131 60.3118 93.3276 59.8814C93.0463 59.4467 92.9057 58.9055 92.9057 58.2578C92.9057 57.7124 93.0059 57.2543 93.2061 56.8835C93.4064 56.5128 93.6792 56.2145 94.0243 55.9886C94.3695 55.7628 94.7615 55.5923 95.2005 55.4773C95.6436 55.3622 96.1081 55.2812 96.5939 55.2344C97.165 55.1747 97.6252 55.1193 97.9746 55.0682C98.324 55.0128 98.5776 54.9318 98.7353 54.8253C98.8929 54.7187 98.9718 54.5611 98.9718 54.3523V54.3139C98.9718 53.9091 98.8439 53.5959 98.5882 53.3743C98.3368 53.1527 97.9789 53.0419 97.5144 53.0419C97.0243 53.0419 96.6344 53.1506 96.3446 53.3679C96.0549 53.581 95.8631 53.8494 95.7694 54.1733L93.2509 53.9688C93.3787 53.3722 93.6301 52.8565 94.0051 52.4219C94.3801 51.983 94.8638 51.6463 95.4561 51.4119C96.0527 51.1733 96.7431 51.054 97.5272 51.054C98.0726 51.054 98.5946 51.1179 99.0932 51.2457C99.5961 51.3736 100.041 51.5717 100.429 51.8402C100.821 52.1087 101.13 52.4538 101.356 52.8757C101.582 53.2933 101.695 53.794 101.695 54.3778V61H99.1124V59.6385H99.0357C98.878 59.9453 98.6671 60.2159 98.4029 60.4503C98.1387 60.6804 97.8212 60.8615 97.4505 60.9936C97.0797 61.1214 96.6515 61.1854 96.1657 61.1854ZM96.9455 59.3061C97.3461 59.3061 97.6998 59.2273 98.0066 59.0696C98.3134 58.9077 98.5542 58.6903 98.7289 58.4176C98.9036 58.1449 98.9909 57.8359 98.9909 57.4908V56.4489C98.9057 56.5043 98.7885 56.5554 98.6394 56.6023C98.4945 56.6449 98.3304 56.6854 98.1472 56.7237C97.964 56.7578 97.7807 56.7898 97.5975 56.8196C97.4142 56.8452 97.248 56.8686 97.0989 56.8899C96.7793 56.9368 96.5002 57.0114 96.2615 57.1136C96.0229 57.2159 95.8375 57.3544 95.7054 57.5291C95.5733 57.6996 95.5073 57.9126 95.5073 58.1683C95.5073 58.5391 95.6415 58.8224 95.91 59.0185C96.1827 59.2102 96.5279 59.3061 96.9455 59.3061ZM103.807 61V51.1818H106.447V52.8949H106.55C106.729 52.2855 107.029 51.8253 107.451 51.5142C107.873 51.1989 108.358 51.0412 108.908 51.0412C109.045 51.0412 109.192 51.0497 109.349 51.0668C109.507 51.0838 109.645 51.1072 109.765 51.1371V53.5533C109.637 53.5149 109.46 53.4808 109.234 53.451C109.008 53.4212 108.802 53.4062 108.614 53.4062C108.214 53.4062 107.856 53.4936 107.54 53.6683C107.229 53.8388 106.982 54.0774 106.799 54.3842C106.62 54.6911 106.53 55.0447 106.53 55.4453V61H103.807Z" fill="#1D3ADB"/>
</svg>
