<svg width="48" height="48" viewBox="0 0 48 48" fill="none" xmlns="http://www.w3.org/2000/svg">
<g clip-path="url(#clip0_139_114)">
<path d="M1.40633 39.4687H8.43757V43.6874C8.43757 44.464 9.06719 45.0937 9.84382 45.0937H46.5937C47.3704 45.0937 48 44.464 48 43.6874V7.12499C48 6.34837 47.3704 5.71874 46.5937 5.71874H39.5625V4.3125C39.5625 3.53587 38.9329 2.90625 38.1563 2.90625C37.3796 2.90625 36.75 3.53587 36.75 4.3125V5.71874H29.625V4.3125C29.625 3.53587 28.9954 2.90625 28.2188 2.90625C27.4422 2.90625 26.8125 3.53587 26.8125 4.3125V5.71874H19.7813V4.3125C19.7813 3.53587 19.1517 2.90625 18.375 2.90625C17.5984 2.90625 16.9688 3.53587 16.9688 4.3125V5.71874H9.84382C9.06719 5.71874 8.43757 6.34837 8.43757 7.12499V15.5625C8.43757 25.9265 4.13023 33.8996 0.506054 36.9822C0.0511804 37.3612 -0.117475 37.9844 0.0839929 38.5412C0.285649 39.0979 0.81421 39.4687 1.40633 39.4687ZM45.1875 42.2812H11.2501V39.4687H38.1563C38.4852 39.4687 38.8038 39.3534 39.0565 39.1427C40.747 37.7347 43.3656 34.3824 45.1875 30.0888V42.2812ZM11.2501 8.53124H16.9688V9.93749C16.9688 10.7141 17.5984 11.3437 18.375 11.3437C19.1517 11.3437 19.7813 10.7141 19.7813 9.93749V8.53124H26.8125V9.93749C26.8125 10.7141 27.4422 11.3437 28.2188 11.3437C28.9954 11.3437 29.625 10.7141 29.625 9.93749V8.53124H36.75V9.93749C36.75 10.7141 37.3796 11.3437 38.1563 11.3437C38.9329 11.3437 39.5625 10.7141 39.5625 9.93749V8.53124H45.1875V14.1562H11.2501V8.53124ZM11.226 16.9678H45.1626C44.8457 25.8885 41.4218 32.9074 37.6048 36.6562H4.60498C8.92994 31.1455 10.9939 23.9701 11.226 16.9678Z" fill="#FFC93E"/>
</g>
<defs>
<clipPath id="clip0_139_114">
<rect width="48" height="48" fill="white"/>
</clipPath>
</defs>
</svg>
