<svg width="48" height="48" viewBox="0 0 48 48" fill="none" xmlns="http://www.w3.org/2000/svg">
<path d="M36 46H8C4.692 46 2 43.308 2 40V12C2 8.692 4.692 6 8 6H24C25.104 6 26 6.894 26 8C26 9.106 25.104 10 24 10H8C6.898 10 6 10.896 6 12V40C6 41.104 6.898 42 8 42H36C37.102 42 38 41.104 38 40V24C38 22.894 38.896 22 40 22C41.104 22 42 22.894 42 24V40C42 43.308 39.308 46 36 46Z" fill="#FFC93E"/>
<path d="M44 2H32C31.192 2 30.462 2.486 30.152 3.234C29.842 3.982 30.014 4.842 30.586 5.414L35.172 10L20.586 24.586C19.804 25.368 19.804 26.632 20.586 27.414C20.976 27.804 21.488 28 22 28C22.512 28 23.024 27.804 23.414 27.414L38 12.828L42.586 17.414C42.968 17.796 43.48 18 44 18C44.258 18 44.518 17.952 44.766 17.848C45.512 17.54 46 16.808 46 16V4C46 2.894 45.104 2 44 2Z" fill="#FFC93E"/>
</svg>
