<svg width="48" height="48" viewBox="0 0 48 48" fill="none" xmlns="http://www.w3.org/2000/svg">
<g clip-path="url(#clip0_159_742)">
<path d="M42.1395 8.28291V2.8125H45.1875V0H39.327V5.52863C35.0279 1.94859 29.6637 0 24 0C17.5894 0 11.5625 2.49647 7.02938 7.02938C2.49647 11.5625 0 17.5894 0 24C0 30.4106 2.49647 36.4375 7.02938 40.9706C11.5625 45.5035 17.5894 48 24 48C30.4106 48 36.4375 45.5035 40.9706 40.9706C45.5035 36.4375 48 30.4106 48 24C48 18.1637 45.9308 12.6454 42.1395 8.28291ZM38.9818 38.9818C34.98 42.9836 29.6594 45.1875 24 45.1875C18.3406 45.1875 13.02 42.9836 9.01819 38.9818C5.01638 34.98 2.8125 29.6594 2.8125 24C2.8125 18.3406 5.01638 13.02 9.01819 9.01819C13.02 5.01638 18.3406 2.8125 24 2.8125C29.6594 2.8125 34.98 5.01638 38.9818 9.01819C39.008 9.04434 39.034 9.07059 39.0601 9.09694C38.6982 8.99541 38.3168 8.94103 37.923 8.94103C35.598 8.94103 33.7064 10.8336 33.7064 13.1598C33.7064 15.486 35.598 17.3785 37.923 17.3785C40.248 17.3785 42.1396 15.486 42.1396 13.1598V13.0356C44.1263 16.3089 45.1875 20.0729 45.1875 24C45.1875 29.6594 42.9836 34.98 38.9818 38.9818ZM39.327 13.1598C39.327 13.9352 38.6971 14.566 37.9229 14.566C37.1487 14.566 36.5188 13.9352 36.5188 13.1598C36.5188 12.3844 37.1487 11.7535 37.9229 11.7535C38.6971 11.7535 39.327 12.3844 39.327 13.1598Z" fill="#C752EC"/>
<path d="M9.0293 24H6.2168C6.2168 33.8056 14.1943 41.7832 24 41.7832V38.9707C15.7451 38.9707 9.0293 32.2548 9.0293 24Z" fill="#C752EC"/>
<path d="M23.9999 14.0331C18.5078 14.0331 14.0398 18.5043 14.0398 24C14.0398 29.4957 18.5078 33.9668 23.9999 33.9668C29.492 33.9668 33.96 29.4957 33.96 24C33.96 18.5043 29.492 14.0331 23.9999 14.0331ZM23.9999 31.1543C20.0587 31.1543 16.8523 27.9449 16.8523 24C16.8523 20.0551 20.0587 16.8456 23.9999 16.8456C27.941 16.8456 31.1475 20.0551 31.1475 24C31.1475 27.9449 27.941 31.1543 23.9999 31.1543Z" fill="#C752EC"/>
<path d="M24 19.7812C21.675 19.7812 19.7834 21.6738 19.7834 24C19.7834 26.3262 21.675 28.2188 24 28.2188C26.325 28.2188 28.2166 26.3262 28.2166 24C28.2166 21.6738 26.325 19.7812 24 19.7812ZM24 25.4062C23.2259 25.4062 22.5959 24.7754 22.5959 24C22.5959 23.2246 23.2259 22.5938 24 22.5938C24.7742 22.5938 25.4041 23.2246 25.4041 24C25.4041 24.7754 24.7742 25.4062 24 25.4062Z" fill="#C752EC"/>
</g>
<defs>
<clipPath id="clip0_159_742">
<rect width="48" height="48" fill="white"/>
</clipPath>
</defs>
</svg>
