<svg width="62" height="62" viewBox="0 0 62 62" fill="none" xmlns="http://www.w3.org/2000/svg">
<g clip-path="url(#clip0_159_748)">
<path d="M35.722 23.2495C35.722 19.5772 32.7343 16.5895 29.062 16.5895C25.3897 16.5895 22.402 19.5772 22.402 23.2495C22.402 26.9219 25.3897 29.9096 29.062 29.9096C32.7343 29.9096 35.722 26.9219 35.722 23.2495ZM26.0347 23.2495C26.0347 21.5803 27.3928 20.2222 29.062 20.2222C30.7312 20.2222 32.0893 21.5803 32.0893 23.2495C32.0893 24.9188 30.7312 26.2768 29.062 26.2768C27.3928 26.2768 26.0347 24.9188 26.0347 23.2495Z" fill="#C752EC"/>
<path d="M56.0539 30.8002C55.961 29.9595 55.2829 29.2602 54.3878 29.1899C53.9833 29.1593 54.0019 29.1888 51.2254 29.8829C55.6525 15.1104 44.5654 0 29.062 0C16.3089 0 5.93359 10.4297 5.93359 23.2495C5.93359 37.7299 18.9651 48.4791 33.0581 46.0267V50.882C29.3361 49.4325 25.3082 52.1958 25.3082 56.1864C25.3082 57.6996 25.8907 59.1405 26.9483 60.2439C29.1926 62.5851 32.8058 62.5858 35.0507 60.2439C36.1084 59.1407 36.6908 57.6996 36.6908 56.1864V45.1659L52.4327 41.0951V47.0071C48.7107 45.5576 44.6828 48.3209 44.6828 52.3115C44.6828 55.4497 47.2359 58.0028 50.3741 58.0028C53.736 58.0028 56.3995 55.08 56.031 51.692C56.0531 51.5789 56.0654 51.4624 56.0654 51.3427C56.0654 29.5336 56.0717 30.9632 56.0539 30.8002ZM9.56634 23.2495C9.56634 12.4328 18.312 3.63274 29.062 3.63274C39.8121 3.63274 48.5578 12.4328 48.5578 23.2495C48.5578 25.9322 48.0258 28.5164 46.979 30.9447C33.4996 34.3145 34.3875 34.0864 34.2262 34.1479C33.6365 34.3738 33.2353 34.872 33.1055 35.4358C33.0384 35.728 33.0581 35.2914 33.0581 42.3275C20.8852 44.8357 9.56634 35.6265 9.56634 23.2495ZM30.9995 58.366C29.9029 58.366 28.941 57.3475 28.941 56.1864C28.941 55.0513 29.8644 54.1278 30.9995 54.1278C32.1346 54.1278 33.0581 55.0513 33.0581 56.1864C33.0581 57.3475 32.0961 58.366 30.9995 58.366ZM36.6908 41.4136V37.2613C45.8552 34.9701 24.6391 40.2743 52.4327 33.3258V37.3429L36.6908 41.4136ZM50.3741 54.37C49.239 54.37 48.3156 53.4466 48.3156 52.3115C48.3156 51.1764 49.239 50.2529 50.3741 50.2529C51.5092 50.2529 52.4327 51.1764 52.4327 52.3115C52.4327 53.4466 51.5092 54.37 50.3741 54.37Z" fill="#C752EC"/>
</g>
<defs>
<clipPath id="clip0_159_748">
<rect width="62" height="62" fill="white"/>
</clipPath>
</defs>
</svg>
