<svg width="42" height="43" viewBox="0 0 42 43" fill="none" xmlns="http://www.w3.org/2000/svg">
<g clip-path="url(#clip0_253_281)">
<path d="M21 42.6328C32.598 42.6328 42 33.2308 42 21.6328C42 10.0348 32.598 0.632812 21 0.632812C9.40202 0.632812 0 10.0348 0 21.6328C0 33.2308 9.40202 42.6328 21 42.6328Z" fill="#F0F0F0"/>
<path d="M4.34422 8.84766C2.69466 10.9938 1.45082 13.4675 0.726562 16.1548H11.6513L4.34422 8.84766Z" fill="#0052B4"/>
<path d="M41.2762 16.1547C40.5519 13.4675 39.308 10.9938 37.6585 8.84766L30.3516 16.1547H41.2762Z" fill="#0052B4"/>
<path d="M0.726562 27.1113C1.4509 29.7985 2.69474 32.2722 4.34422 34.4183L11.6511 27.1113H0.726562Z" fill="#0052B4"/>
<path d="M33.7914 4.97419C31.6452 3.32462 29.1716 2.08078 26.4844 1.35645V12.2811L33.7914 4.97419Z" fill="#0052B4"/>
<path d="M8.21875 38.2922C10.3649 39.9418 12.8386 41.1856 15.5258 41.9099V30.9854L8.21875 38.2922Z" fill="#0052B4"/>
<path d="M15.5257 1.35645C12.8385 2.08078 10.3649 3.32462 8.21875 4.97411L15.5257 12.281V1.35645Z" fill="#0052B4"/>
<path d="M26.4844 41.9099C29.1716 41.1856 31.6452 39.9418 33.7913 38.2923L26.4844 30.9854V41.9099Z" fill="#0052B4"/>
<path d="M30.3516 27.1113L37.6585 34.4183C39.308 32.2722 40.5519 29.7985 41.2762 27.1113H30.3516Z" fill="#0052B4"/>
<path d="M41.8222 18.8937H23.7393H23.7392V0.810574C22.8425 0.693844 21.9283 0.632812 21 0.632812C20.0715 0.632812 19.1575 0.693844 18.2609 0.810574V18.8935V18.8936H0.177762C0.0610313 19.7903 0 20.7045 0 21.6328C0 22.5613 0.0610313 23.4753 0.177762 24.3719H18.2607H18.2608V42.4551C19.1575 42.5718 20.0715 42.6328 21 42.6328C21.9283 42.6328 22.8425 42.5719 23.7391 42.4551V24.3721V24.372H41.8222C41.939 23.4753 42 22.5613 42 21.6328C42 20.7045 41.939 19.7903 41.8222 18.8937Z" fill="#D80027"/>
<path d="M26.4766 27.1114L35.8475 36.4823C36.2785 36.0515 36.6896 35.6011 37.0819 35.1341L29.0591 27.1113H26.4766V27.1114Z" fill="#D80027"/>
<path d="M15.5194 27.1113H15.5193L6.14844 36.4822C6.57927 36.9132 7.0297 37.3243 7.49662 37.7166L15.5194 29.6936V27.1113Z" fill="#D80027"/>
<path d="M15.5194 16.1544V16.1542L6.14847 6.7832C5.71748 7.21403 5.30634 7.66446 4.91406 8.13139L12.937 16.1543H15.5194V16.1544Z" fill="#D80027"/>
<path d="M26.4766 16.1542L35.8476 6.78315C35.4167 6.35216 34.9663 5.94102 34.4994 5.54883L26.4766 13.5717V16.1542Z" fill="#D80027"/>
</g>
<defs>
<clipPath id="clip0_253_281">
<rect width="42" height="42" fill="white" transform="translate(0 0.632812)"/>
</clipPath>
</defs>
</svg>
