<svg width="42" height="43" viewBox="0 0 42 43" fill="none" xmlns="http://www.w3.org/2000/svg">
<path d="M27.5625 15.0703C34.8114 15.0703 40.6875 20.9464 40.6875 28.1953C40.6875 30.4259 40.131 32.5272 39.1492 34.3667L40.6875 40.0078L35.6836 38.507C33.4497 40.269 30.6285 41.3203 27.5625 41.3203C20.3136 41.3203 14.4375 35.4443 14.4375 28.1953L27.5625 15.0703Z" fill="#1430CA"/>
<path d="M40.5776 26.5547C39.7685 20.0821 34.2579 15.0703 27.5662 15.0703C20.8744 15.0703 15.3632 20.0821 14.5547 26.5547C15.3638 33.0273 20.8744 38.0391 27.5662 38.0391C34.2579 38.0391 39.7691 33.0273 40.5776 26.5547Z" fill="#446AA9"/>
<path d="M40.5776 26.5547C39.7685 20.0821 34.2579 15.0703 27.5662 15.0703C20.8744 15.0703 15.3632 20.0821 14.5547 26.5547C15.3638 33.0273 20.8744 38.0391 27.5662 38.0391C34.2579 38.0391 39.7691 33.0273 40.5776 26.5547Z" fill="#1D3ADB"/>
<path d="M28.873 15.1366C28.4419 15.0939 28.0048 15.0703 27.5625 15.0703L14.4375 28.1953C14.4375 28.6376 14.4611 29.0747 14.5038 29.5058C22.4122 29.4698 28.8376 23.0444 28.8737 15.1359L28.873 15.1366Z" fill="#1D33A8"/>
<path d="M2.85075 21.2417L1.3125 26.8828L6.31641 25.382C8.55028 27.144 11.3715 28.1953 14.4375 28.1953C21.6864 28.1953 27.5625 22.3193 27.5625 15.0703C27.5625 7.82138 21.6864 1.94531 14.4375 1.94531C7.18856 1.94531 1.3125 7.82138 1.3125 15.0703C1.3125 17.3009 1.869 19.4022 2.85075 21.2417Z" fill="#A23EE3"/>
<path d="M27.4526 13.4297C26.6435 6.95709 21.1329 1.94531 14.4412 1.94531C7.74937 1.94531 2.23819 6.95709 1.42969 13.4297C2.23884 19.9023 7.74937 24.9141 14.4412 24.9141C21.1329 24.9141 26.6441 19.9023 27.4526 13.4297Z" fill="#B755F7"/>
<path d="M21.905 21.4177L20.431 19.9437C21.2048 18.794 21.6562 17.4093 21.6562 15.9189C21.6562 11.9322 18.4242 8.7002 14.4375 8.7002C10.4508 8.7002 7.21875 11.9322 7.21875 15.9189C7.21875 19.9057 10.4508 23.1377 14.4375 23.1377C15.9278 23.1377 17.3125 22.6862 18.4623 21.9125L19.9362 23.3864C20.1974 23.6476 20.5511 23.7939 20.9206 23.7939C21.6897 23.7939 22.3125 23.1705 22.3125 22.402C22.3125 22.0326 22.1655 21.6789 21.905 21.4177ZM18.5181 18.0308L17.47 16.9827C17.2088 16.7215 16.8551 16.5752 16.4857 16.5752C15.7165 16.5752 15.0938 17.1986 15.0938 17.9671C15.0938 18.3366 15.2408 18.6903 15.5013 18.9515L16.5493 19.9995C15.9173 20.3276 15.1988 20.5127 14.4375 20.5127C11.9004 20.5127 9.84375 18.456 9.84375 15.9189C9.84375 13.3819 11.9004 11.3252 14.4375 11.3252C16.9746 11.3252 19.0312 13.3819 19.0312 15.9189C19.0312 16.6802 18.8462 17.3981 18.5181 18.0308Z" fill="#8A56AB"/>
<path d="M21.905 20.569L20.431 19.0951C21.2048 17.9453 21.6562 16.5607 21.6562 15.0703C21.6562 11.0836 18.4242 7.85156 14.4375 7.85156C10.4508 7.85156 7.21875 11.0836 7.21875 15.0703C7.21875 19.057 10.4508 22.2891 14.4375 22.2891C15.9278 22.2891 17.3125 21.8376 18.4623 21.0638L19.9362 22.5378C20.1974 22.799 20.5511 22.9453 20.9206 22.9453C21.6897 22.9453 22.3125 22.3219 22.3125 21.5534C22.3125 21.1839 22.1655 20.8302 21.905 20.569ZM18.5181 17.1821L17.47 16.1341C17.2088 15.8729 16.8551 15.7266 16.4857 15.7266C15.7165 15.7266 15.0938 16.35 15.0938 17.1185C15.0938 17.4879 15.2408 17.8417 15.5013 18.1028L16.5493 19.1509C15.9173 19.479 15.1988 19.6641 14.4375 19.6641C11.9004 19.6641 9.84375 17.6074 9.84375 15.0703C9.84375 12.5332 11.9004 10.4766 14.4375 10.4766C16.9746 10.4766 19.0312 12.5332 19.0312 15.0703C19.0312 15.8316 18.8462 16.5495 18.5181 17.1821Z" fill="#EDF4FA"/>
<path d="M33.4259 33.5687L31.4499 24.943C31.0214 23.0714 29.4129 21.751 27.5623 21.751C27.0065 21.751 26.4723 21.8704 25.9853 22.0876L23.6077 25.235L21.6987 33.5694C21.469 34.5708 22.2001 35.5329 23.1904 35.5329C23.9018 35.5329 24.5199 35.0243 24.6833 34.3037L25.148 32.2516H29.9767L30.4413 34.3037C30.604 35.0236 31.2222 35.5329 31.9342 35.5329C32.9252 35.5329 33.6556 34.5715 33.4259 33.5694V33.5687ZM25.7419 29.626L26.786 25.0145C26.8706 24.6404 27.1922 24.376 27.5617 24.376C27.9311 24.376 28.2527 24.6404 28.3373 25.0145L29.3814 29.626H25.7412H25.7419Z" fill="#1D33A8"/>
<path d="M33.4259 32.7943L31.4499 24.1686C31.0214 22.2969 29.4129 20.9766 27.5623 20.9766C27.0065 20.9766 26.4723 21.096 25.9853 21.3132L23.6077 24.4606L21.6987 32.795C21.469 33.7964 22.2001 34.7585 23.1904 34.7585C23.9018 34.7585 24.5199 34.2499 24.6833 33.5293L25.148 31.4772H29.9767L30.4413 33.5293C30.604 34.2492 31.2222 34.7585 31.9342 34.7585C32.9252 34.7585 33.6556 33.7971 33.4259 32.795V32.7943ZM25.7419 28.8516L26.786 24.2401C26.8706 23.866 27.1922 23.6016 27.5617 23.6016C27.9311 23.6016 28.2527 23.866 28.3373 24.2401L29.3814 28.8516H25.7412H25.7419Z" fill="#EDF4FA"/>
</svg>
