<svg width="82" height="66" viewBox="0 0 82 66" fill="none" xmlns="http://www.w3.org/2000/svg">
<g clip-path="url(#clip0_266_1243)">
<path d="M13.4126 44.8149C13.4908 44.8959 13.5751 44.9668 13.6563 45.0416L13.6465 45.0518C18.4464 50.0262 26.2282 50.0262 31.0286 45.0518L37.6526 38.1871L28.9614 29.1799L22.3355 36.0481L12.2909 25.6384L22.2641 15.3024L51.0445 45.129C55.8445 50.1034 63.6262 50.1034 68.4267 45.129L78.3999 34.7929C83.1999 29.8185 83.1999 21.7539 78.3999 16.7789L59.7358 36.1218L26.9448 2.13889C24.3598 -0.539786 20.1687 -0.539786 17.584 2.13889L13.5731 6.29551L3.59995 16.6315C-1.19998 21.6059 -1.19998 29.6706 3.59995 34.6453L13.4126 44.8149Z" fill="url(#paint0_linear_266_1243)"/>
<path d="M59.6668 15.376L66.7442 22.7107L75.4355 13.7036L64.0124 1.86551C61.6123 -0.621836 57.7215 -0.621836 55.3211 1.86551L43.9609 13.6386L52.6519 22.6455L59.6668 15.376Z" fill="#3E47EE"/>
<path d="M3.79342 55.4297L0.015625 65.0894H2.64931L3.28468 63.2965H6.7236L7.3587 65.0894H9.97816L6.20802 55.4297H3.79342ZM4.10386 61.079L4.99361 58.4885H5.01467L5.90442 61.079H4.10386Z" fill="#3E47EE"/>
<path d="M13.1604 55.4307H10.7031V65.0901H16.4366V62.8728H13.1604V55.4307Z" fill="#3E47EE"/>
<path d="M20.262 55.4307H17.8047V65.0901H23.5384V62.8728H20.262V55.4307Z" fill="#3E47EE"/>
<path d="M32.6694 56.6963C32.2289 56.2408 31.7057 55.8803 31.1301 55.6353C30.5415 55.3819 29.8989 55.2551 29.2024 55.2549C28.5149 55.2549 27.8759 55.3817 27.2853 55.6353C26.709 55.8787 26.1852 56.2386 25.7445 56.694C25.3038 57.1495 24.9551 57.6913 24.7186 58.2879C24.4737 58.8954 24.3514 59.5504 24.3516 60.2528C24.3516 60.9603 24.4668 61.6178 24.6973 62.2251C24.9198 62.8195 25.2546 63.3618 25.6819 63.8204C26.1153 64.2816 26.6366 64.6442 27.2125 64.8851C27.8055 65.1385 28.4693 65.2653 29.2037 65.2655C29.9149 65.2655 30.5668 65.1387 31.1596 64.8851C31.7365 64.6428 32.2592 64.2805 32.6954 63.8204C33.1272 63.3625 33.4669 62.8203 33.6946 62.2251C33.93 61.6178 34.0477 60.9603 34.0477 60.2528C34.0477 59.5504 33.9277 58.8954 33.6877 58.2879C33.4546 57.692 33.1083 57.1508 32.6694 56.6963ZM31.2042 61.5811C31.0243 61.966 30.7474 62.2934 30.4028 62.5287C30.0593 62.7628 29.6591 62.8799 29.2024 62.8799C28.7456 62.8799 28.3455 62.7626 28.0022 62.5281C27.6575 62.2928 27.3805 61.9655 27.2005 61.5805C27.01 61.1837 26.9147 60.7409 26.9147 60.2522C26.9147 59.7636 27.01 59.3222 27.2005 58.9282C27.3819 58.5442 27.6586 58.2172 28.0022 57.9806C28.3457 57.7442 28.7458 57.6259 29.2024 57.6257C29.659 57.6255 30.0591 57.7438 30.4028 57.9806C30.7463 58.2172 31.0229 58.5443 31.2042 58.9282C31.3948 59.3235 31.4901 59.7651 31.4903 60.2528C31.4905 60.7405 31.3951 61.1833 31.2042 61.5811Z" fill="#3E47EE"/>
<path d="M34.3828 57.6479H36.487V65.0901H38.9442V57.6479H41.0484V55.4307H34.3828V57.6479Z" fill="#3E47EE"/>
<path d="M48.4729 55.4307H46.0156V65.0901H51.7493V62.8728H48.4729V55.4307Z" fill="#3E47EE"/>
<path d="M55.5588 55.4307H53.1016V65.0901H55.5588V55.4307Z" fill="#3E47EE"/>
<path d="M63.5713 62.3371L60.3797 55.4307H57.0469V65.0901H59.5041V58.1521L62.6745 65.0901H66.0215V55.4307H63.5713V62.3371Z" fill="#3E47EE"/>
<path d="M67.5 65.0901H73.6218V62.8728H69.9573V61.3215H73.6079V59.1774H69.9573V57.6479H73.6218V55.4307H67.5V65.0901Z" fill="#3E47EE"/>
<path d="M81.2699 60.3989C81.0376 60.1449 80.7703 59.928 80.4767 59.7552C80.163 59.57 79.8334 59.4156 79.492 59.294C79.1826 59.186 78.8796 59.059 78.5848 58.9136C78.3563 58.7966 78.1904 58.6795 78.087 58.5624C77.9877 58.4565 77.932 58.3148 77.9316 58.1672C77.9316 57.9575 78.027 57.8025 78.2177 57.7024C78.4085 57.6022 78.6546 57.5522 78.9562 57.5524C79.1981 57.5536 79.438 57.5969 79.666 57.6805C79.8845 57.7571 80.096 57.8539 80.2978 57.9697C80.4333 58.0444 80.5631 58.1297 80.6862 58.2248L81.8585 56.1759C81.7972 56.1272 81.6277 56.0284 81.35 55.8794C81.0723 55.7305 80.7063 55.5888 80.2519 55.4543C79.7975 55.3199 79.2761 55.2528 78.6879 55.253C78.1396 55.2495 77.5965 55.3628 77.0922 55.5858C76.5931 55.808 76.1894 56.1251 75.8811 56.5371C75.5727 56.949 75.4186 57.4404 75.4186 58.011C75.4186 58.578 75.5304 59.0512 75.7542 59.4309C75.9723 59.8056 76.2691 60.1244 76.6226 60.3637C76.9807 60.6067 77.363 60.8092 77.7629 60.9675C78.0972 61.0949 78.4248 61.2402 78.7445 61.4029C78.989 61.5322 79.1655 61.6615 79.274 61.791C79.3785 61.91 79.4365 62.0651 79.4365 62.2261C79.4395 62.3282 79.417 62.4293 79.3712 62.5197C79.3254 62.6102 79.2578 62.6868 79.175 62.7422C79.0011 62.8664 78.7351 62.9286 78.3772 62.9288C78.1242 62.9262 77.8726 62.8893 77.6288 62.8191C77.372 62.7483 77.1207 62.6577 76.8769 62.5481C76.6399 62.4409 76.4362 62.3385 76.2659 62.2408C76.0956 62.1431 75.985 62.0724 75.9341 62.0288L74.7266 64.1581C74.7924 64.2263 74.9866 64.3508 75.3092 64.5314C75.6317 64.7121 76.0554 64.8791 76.5802 65.0326C77.1051 65.1862 77.7018 65.263 78.3701 65.263C78.8176 65.2636 79.2635 65.2071 79.6977 65.0949C80.1126 64.9908 80.5077 64.8151 80.8664 64.5754C81.2073 64.3466 81.4906 64.0366 81.6925 63.6714C81.8971 63.3031 81.9994 62.8604 81.9996 62.3434C81.9996 61.9385 81.9349 61.575 81.8054 61.253C81.6783 60.937 81.4968 60.6476 81.2699 60.3989Z" fill="#3E47EE"/>
</g>
<defs>
<linearGradient id="paint0_linear_266_1243" x1="40.9999" y1="0.129883" x2="40.9999" y2="48.8598" gradientUnits="userSpaceOnUse">
<stop stop-color="#3E47EE"/>
<stop offset="1" stop-color="#C856F8"/>
</linearGradient>
<clipPath id="clip0_266_1243">
<rect width="82" height="65.2653" fill="white"/>
</clipPath>
</defs>
</svg>
